<svg width="24" height="24" viewBox="0 0 24 24" fill="none" xmlns="http://www.w3.org/2000/svg">
<g clip-path="url(#clip0_1927_7368)">
<path d="M16.8888 6.22144C16.9178 6.22144 16.9468 6.21844 16.9753 6.21294C17.0041 6.20719 17.0318 6.19869 17.0588 6.18769C17.0858 6.17644 17.1113 6.16269 17.1356 6.14644C17.1598 6.13019 17.1823 6.11194 17.2031 6.09119C17.2236 6.07069 17.2421 6.04819 17.2583 6.02394C17.2746 5.99969 17.2881 5.97394 17.2993 5.94694C17.3106 5.92019 17.3188 5.89219 17.3246 5.86369C17.3303 5.83494 17.3331 5.80619 17.3331 5.77694V3.99919C17.3331 3.96994 17.3303 3.94119 17.3246 3.91244C17.3188 3.88394 17.3106 3.85619 17.2993 3.82919C17.2881 3.80219 17.2746 3.77644 17.2583 3.75219C17.2421 3.72794 17.2236 3.70544 17.2031 3.68494C17.1823 3.66419 17.1598 3.64594 17.1356 3.62969C17.1113 3.61344 17.0858 3.59969 17.0588 3.58869C17.0318 3.57744 17.0041 3.56894 16.9753 3.56319C16.9468 3.55769 16.9178 3.55469 16.8888 3.55469C16.8596 3.55469 16.8306 3.55769 16.8021 3.56319C16.7733 3.56894 16.7456 3.57744 16.7186 3.58869C16.6916 3.59969 16.6661 3.61344 16.6418 3.62969C16.6176 3.64594 16.5951 3.66419 16.5743 3.68494C16.5538 3.70544 16.5353 3.72794 16.5191 3.75219C16.5031 3.77644 16.4893 3.80219 16.4781 3.82919C16.4668 3.85619 16.4586 3.88394 16.4528 3.91244C16.4471 3.94119 16.4443 3.96994 16.4443 3.99919V5.77694C16.4443 5.80619 16.4471 5.83494 16.4528 5.86369C16.4586 5.89219 16.4668 5.92019 16.4781 5.94694C16.4893 5.97394 16.5031 5.99969 16.5191 6.02394C16.5353 6.04819 16.5538 6.07069 16.5743 6.09119C16.5951 6.11194 16.6176 6.13019 16.6418 6.14644C16.6661 6.16269 16.6916 6.17644 16.7186 6.18769C16.7456 6.19869 16.7733 6.20719 16.8021 6.21294C16.8306 6.21844 16.8596 6.22144 16.8888 6.22144Z" fill="#7D126B"/>
<path d="M16.8888 10.666C16.8596 10.666 16.8306 10.6688 16.8021 10.6745C16.7733 10.6803 16.7456 10.6885 16.7186 10.6998C16.6916 10.711 16.6661 10.7245 16.6418 10.7408C16.6176 10.757 16.5951 10.7755 16.5743 10.796C16.5538 10.8168 16.5353 10.8393 16.5191 10.8635C16.5031 10.8878 16.4893 10.9133 16.4781 10.9403C16.4668 10.9673 16.4586 10.995 16.4528 11.0238C16.4471 11.0523 16.4443 11.0813 16.4443 11.1103V12.8883C16.4443 12.9173 16.4471 12.9463 16.4528 12.9748C16.4586 13.0035 16.4668 13.0313 16.4781 13.0583C16.4893 13.0853 16.5031 13.1108 16.5191 13.135C16.5353 13.1593 16.5538 13.1818 16.5743 13.2025C16.5951 13.223 16.6176 13.2415 16.6418 13.2578C16.6661 13.274 16.6916 13.2875 16.7186 13.2988C16.7456 13.31 16.7733 13.3183 16.8021 13.324C16.8306 13.3298 16.8596 13.3325 16.8888 13.3325C16.9178 13.3325 16.9468 13.3298 16.9753 13.324C17.0041 13.3183 17.0318 13.31 17.0588 13.2988C17.0858 13.2875 17.1113 13.274 17.1356 13.2578C17.1598 13.2415 17.1823 13.223 17.2031 13.2025C17.2236 13.1818 17.2421 13.1593 17.2583 13.135C17.2746 13.1108 17.2881 13.0853 17.2993 13.0583C17.3106 13.0313 17.3188 13.0035 17.3246 12.9748C17.3303 12.9463 17.3331 12.9173 17.3331 12.8883V11.1103C17.3331 11.0813 17.3303 11.0523 17.3246 11.0238C17.3188 10.995 17.3106 10.9673 17.2993 10.9403C17.2881 10.9133 17.2746 10.8878 17.2583 10.8635C17.2421 10.8393 17.2236 10.8168 17.2031 10.796C17.1823 10.7755 17.1598 10.757 17.1356 10.7408C17.1113 10.7245 17.0858 10.711 17.0588 10.6998C17.0318 10.6885 17.0041 10.6803 16.9753 10.6745C16.9468 10.6688 16.9178 10.666 16.8888 10.666Z" fill="#7D126B"/>
<path d="M7.11116 20.4452C7.22766 20.4452 7.34391 20.4395 7.45966 20.428C7.57566 20.4167 7.69066 20.3995 7.80491 20.3767C7.91916 20.3542 8.03191 20.326 8.14341 20.292C8.25491 20.2582 8.36441 20.219 8.47191 20.1745C8.57941 20.13 8.68466 20.0802 8.78741 20.0252C8.89016 19.9705 8.98991 19.9107 9.08666 19.846C9.18341 19.7812 9.27691 19.712 9.36691 19.638C9.45691 19.5642 9.54316 19.4862 9.62541 19.4037C9.70766 19.3215 9.78591 19.2352 9.85966 19.1452C9.93366 19.0552 10.0029 18.9617 10.0677 18.865C10.1324 18.7682 10.1922 18.6685 10.2469 18.5657C10.3019 18.463 10.3517 18.3577 10.3962 18.2502C10.4407 18.1427 10.4799 18.0332 10.5137 17.9217C10.5474 17.8102 10.5759 17.6975 10.5984 17.5832C10.6212 17.469 10.6384 17.354 10.6497 17.2382C10.6612 17.1222 10.6669 17.006 10.6669 16.8897C10.6669 16.7732 10.6612 16.657 10.6497 16.5412C10.6384 16.4252 10.6212 16.3102 10.5984 16.196C10.5759 16.0817 10.5474 15.969 10.5137 15.8575C10.4799 15.746 10.4407 15.6365 10.3962 15.529C10.3517 15.4215 10.3019 15.3162 10.2469 15.2135C10.1922 15.1107 10.1324 15.011 10.0677 14.9142C10.0029 14.8175 9.93366 14.724 9.85966 14.634C9.78591 14.544 9.70766 14.4577 9.62541 14.3755C9.54316 14.2932 9.45691 14.215 9.36691 14.1412C9.27691 14.0672 9.18341 13.998 9.08666 13.9332C8.98991 13.8685 8.89016 13.8087 8.78741 13.754C8.68466 13.699 8.57941 13.6492 8.47191 13.6047C8.36441 13.5602 8.25491 13.521 8.14341 13.4872C8.03191 13.4535 7.91916 13.425 7.80491 13.4025C7.69066 13.3797 7.57566 13.3625 7.45966 13.3512C7.34391 13.3397 7.22766 13.334 7.11116 13.334C6.99491 13.334 6.87866 13.3397 6.76266 13.3512C6.64691 13.3625 6.53191 13.3797 6.41766 13.4025C6.30341 13.425 6.19066 13.4535 6.07916 13.4872C5.96766 13.521 5.85816 13.5602 5.75066 13.6047C5.64291 13.6492 5.53791 13.699 5.43516 13.754C5.33241 13.8087 5.23266 13.8685 5.13591 13.9332C5.03916 13.998 4.94566 14.0672 4.85566 14.1412C4.76566 14.215 4.67941 14.2932 4.59716 14.3755C4.51466 14.4577 4.43666 14.544 4.36291 14.634C4.28891 14.724 4.21966 14.8175 4.15491 14.9142C4.09016 15.011 4.03041 15.1107 3.97566 15.2135C3.92066 15.3162 3.87091 15.4215 3.82641 15.529C3.78191 15.6365 3.74266 15.746 3.70891 15.8575C3.67491 15.969 3.64666 16.0817 3.62391 16.196C3.60141 16.3102 3.58416 16.4252 3.57291 16.5412C3.56141 16.657 3.55566 16.7732 3.55566 16.8897C3.55566 17.006 3.56141 17.1222 3.57291 17.2382C3.58416 17.354 3.60141 17.469 3.62391 17.5832C3.64666 17.6975 3.67491 17.8102 3.70891 17.9217C3.74266 18.0332 3.78191 18.1427 3.82641 18.2502C3.87091 18.3577 3.92066 18.463 3.97566 18.5657C4.03041 18.6685 4.09016 18.7682 4.15491 18.865C4.21966 18.9617 4.28891 19.0552 4.36291 19.1452C4.43666 19.2352 4.51466 19.3215 4.59716 19.4037C4.67941 19.4862 4.76566 19.5642 4.85566 19.638C4.94566 19.712 5.03916 19.7812 5.13591 19.846C5.23266 19.9107 5.33241 19.9705 5.43516 20.0252C5.53791 20.0802 5.64291 20.13 5.75066 20.1745C5.85816 20.219 5.96766 20.2582 6.07916 20.292C6.19066 20.326 6.30341 20.3542 6.41766 20.3767C6.53191 20.3995 6.64691 20.4167 6.76266 20.428C6.87866 20.4395 6.99491 20.4452 7.11116 20.4452ZM7.11116 14.223C7.16666 14.2227 7.22216 14.224 7.27741 14.2272C7.33266 14.2305 7.38791 14.2352 7.44291 14.242C7.49791 14.2485 7.55266 14.2567 7.60716 14.2667C7.66166 14.2767 7.71566 14.2885 7.76941 14.3017C7.82316 14.3152 7.87666 14.3302 7.92941 14.347C7.98216 14.3637 8.03441 14.382 8.08616 14.402C8.13791 14.422 8.18891 14.4435 8.23916 14.4667C8.28966 14.4897 8.33916 14.5145 8.38791 14.5407C8.43666 14.567 8.48466 14.5947 8.53166 14.6237C8.57891 14.653 8.62491 14.6837 8.67016 14.7157C8.71541 14.748 8.75941 14.7815 8.80241 14.8162C8.84566 14.851 8.88741 14.8872 8.92841 14.9247C8.96916 14.9622 9.00891 15.0007 9.04716 15.0407C9.08566 15.0807 9.12266 15.1217 9.15866 15.164C9.19441 15.2062 9.22891 15.2495 9.26216 15.294C9.29516 15.3382 9.32691 15.3837 9.35741 15.43C9.38766 15.4765 9.41641 15.5237 9.44391 15.572C9.47116 15.62 9.49716 15.669 9.52141 15.7187C9.54566 15.7687 9.56841 15.819 9.58966 15.8702C9.61091 15.9215 9.63041 15.9732 9.64841 16.0257C9.66641 16.0782 9.68266 16.131 9.69741 16.1845C9.71191 16.238 9.72491 16.2917 9.73616 16.346C9.74741 16.4002 9.75716 16.4547 9.76491 16.5097C9.77291 16.5645 9.77916 16.6195 9.78341 16.6747C9.78791 16.73 9.79066 16.7852 9.79166 16.8407C9.79266 16.896 9.79216 16.9515 9.78966 17.0067C9.78716 17.0622 9.78291 17.1175 9.77716 17.1725C9.77116 17.2275 9.76366 17.2825 9.75441 17.337C9.74516 17.3917 9.73416 17.446 9.72141 17.5C9.70866 17.5537 9.69441 17.6072 9.67841 17.6605C9.66241 17.7135 9.64466 17.766 9.62541 17.8177C9.60616 17.8697 9.58516 17.921 9.56266 17.9717C9.54016 18.0222 9.51616 18.0722 9.49066 18.1215C9.46516 18.1705 9.43791 18.2187 9.40941 18.2662C9.38066 18.3137 9.35066 18.3602 9.31916 18.4057C9.28766 18.4515 9.25466 18.496 9.22041 18.5395C9.18616 18.583 9.15066 18.6255 9.11366 18.6667C9.07666 18.708 9.03866 18.7482 8.99916 18.787C8.95966 18.826 8.91916 18.8637 8.87741 18.9C8.83566 18.9365 8.79266 18.9715 8.74866 19.0052C8.70491 19.039 8.65991 19.0712 8.61391 19.1022C8.56791 19.1332 8.52091 19.1627 8.47316 19.1907C8.42541 19.2187 8.37666 19.2452 8.32741 19.27C8.27791 19.295 8.22766 19.3185 8.17666 19.3402C8.12591 19.3622 8.07416 19.3825 8.02216 19.401C7.96991 19.4197 7.91716 19.4367 7.86391 19.452C7.81066 19.4672 7.75691 19.481 7.70291 19.493C7.64891 19.505 7.59441 19.5152 7.53966 19.524C7.48491 19.5325 7.42991 19.5395 7.37491 19.5445C7.31966 19.5497 7.26441 19.5532 7.20891 19.555C7.15366 19.5567 7.09816 19.5567 7.04291 19.555C6.98741 19.5532 6.93216 19.5497 6.87716 19.5447C6.82191 19.5395 6.76691 19.5327 6.71216 19.524C6.65741 19.5155 6.60316 19.5052 6.54891 19.4932C6.49491 19.4812 6.44116 19.4675 6.38791 19.4522C6.33466 19.437 6.28191 19.42 6.22991 19.4012C6.17766 19.3827 6.12616 19.3625 6.07516 19.3407C6.02416 19.3187 5.97391 19.2955 5.92466 19.2705C5.87516 19.2455 5.82641 19.219 5.77866 19.191C5.73091 19.163 5.68391 19.1337 5.63791 19.1027C5.59191 19.0717 5.54691 19.0395 5.50291 19.0057C5.45891 18.972 5.41616 18.937 5.37441 18.9007C5.33266 18.8642 5.29191 18.8267 5.25241 18.7877C5.21316 18.7487 5.17491 18.7087 5.13791 18.6675H5.17791C5.25141 18.651 5.32316 18.6287 5.39291 18.6002C5.46266 18.5717 5.52941 18.5377 5.59341 18.4977C5.65741 18.458 5.71766 18.413 5.77391 18.3632C5.83041 18.3132 5.88191 18.2587 5.92916 18.2C5.97641 18.1412 6.01816 18.079 6.05466 18.013C6.09141 17.9472 6.12216 17.8787 6.14716 17.8075C6.17191 17.7365 6.19091 17.6637 6.20341 17.5895C6.21616 17.5152 6.22241 17.4405 6.22241 17.3652V16.414C6.22241 16.3387 6.21616 16.264 6.20341 16.1897C6.19091 16.1155 6.17191 16.0427 6.14716 15.9717C6.12216 15.9005 6.09141 15.832 6.05466 15.7662C6.01816 15.7005 5.97641 15.638 5.92916 15.5792C5.88191 15.5205 5.83041 15.4662 5.77391 15.4162C5.71766 15.3662 5.65741 15.3212 5.59341 15.2815C5.52941 15.2417 5.46266 15.2075 5.39291 15.179C5.32316 15.1505 5.25141 15.1282 5.17791 15.1117H5.13341C5.25791 14.9727 5.39566 14.848 5.54641 14.7375C5.69716 14.6272 5.85766 14.534 6.02791 14.4572C6.19841 14.3807 6.37466 14.3227 6.55741 14.2832C6.73991 14.2437 6.92441 14.2237 7.11116 14.223ZM4.44466 16.8897C4.44616 16.5487 4.50991 16.2197 4.63566 15.903L4.98691 15.983C5.03691 15.9942 5.08366 16.0137 5.12716 16.0412C5.17041 16.0687 5.20791 16.1027 5.23966 16.1432C5.27116 16.1837 5.29516 16.2285 5.31116 16.2772C5.32741 16.326 5.33466 16.376 5.33341 16.4275V17.3785C5.33466 17.43 5.32741 17.48 5.31116 17.5287C5.29516 17.5775 5.27116 17.6222 5.23966 17.6627C5.20791 17.7032 5.17041 17.7372 5.12716 17.7647C5.08366 17.7922 5.03691 17.8117 4.98691 17.823L4.63566 17.903C4.50641 17.5775 4.44266 17.2397 4.44466 16.8897Z" fill="#7D126B"/>
<path d="M11.1112 9.77742H12.0002C12.0295 9.77742 12.0582 9.77467 12.087 9.76892C12.1155 9.76317 12.1432 9.75467 12.1702 9.74367C12.1972 9.73242 12.223 9.71867 12.2472 9.70242C12.2715 9.68642 12.294 9.66792 12.3145 9.64717C12.3352 9.62667 12.3535 9.60417 12.3697 9.57992C12.386 9.55567 12.3997 9.52992 12.4107 9.50317C12.422 9.47617 12.4305 9.44842 12.4362 9.41967C12.4417 9.39117 12.4447 9.36217 12.4447 9.33292C12.4447 9.30392 12.4417 9.27492 12.4362 9.24642C12.4305 9.21767 12.422 9.18992 12.4107 9.16292C12.3997 9.13592 12.386 9.11042 12.3697 9.08617C12.3535 9.06192 12.3352 9.03942 12.3145 9.01867C12.294 8.99817 12.2715 8.97967 12.2472 8.96342C12.223 8.94717 12.1972 8.93367 12.1702 8.92242C12.1432 8.91117 12.1155 8.90267 12.087 8.89717C12.0582 8.89142 12.0295 8.88867 12.0002 8.88867H11.1112C11.0822 8.88867 11.0532 8.89142 11.0247 8.89717C10.996 8.90267 10.9682 8.91117 10.9412 8.92242C10.9142 8.93367 10.8887 8.94717 10.8645 8.96342C10.8402 8.97967 10.8177 8.99817 10.797 9.01867C10.7765 9.03942 10.758 9.06192 10.7417 9.08617C10.7255 9.11042 10.712 9.13592 10.7007 9.16292C10.6895 9.18992 10.6812 9.21767 10.6755 9.24642C10.6697 9.27492 10.667 9.30392 10.667 9.33292C10.667 9.36217 10.6697 9.39117 10.6755 9.41967C10.6812 9.44842 10.6895 9.47617 10.7007 9.50317C10.712 9.52992 10.7255 9.55567 10.7417 9.57992C10.758 9.60417 10.7765 9.62667 10.797 9.64717C10.8177 9.66792 10.8402 9.68642 10.8645 9.70242C10.8887 9.71867 10.9142 9.73242 10.9412 9.74367C10.9682 9.75467 10.996 9.76317 11.0247 9.76892C11.0532 9.77467 11.0822 9.77742 11.1112 9.77742Z" fill="#7D126B"/>
<path d="M2.22233 9.77742H3.11108C3.14033 9.77742 3.16933 9.77467 3.19783 9.76892C3.22658 9.76317 3.25433 9.75467 3.28133 9.74367C3.30833 9.73242 3.33383 9.71867 3.35808 9.70242C3.38233 9.68642 3.40483 9.66792 3.42558 9.64717C3.44608 9.62667 3.46458 9.60417 3.48083 9.57992C3.49683 9.55567 3.51058 9.52992 3.52183 9.50317C3.53308 9.47617 3.54133 9.44842 3.54708 9.41967C3.55283 9.39117 3.55558 9.36217 3.55558 9.33292C3.55558 9.30392 3.55283 9.27492 3.54708 9.24642C3.54133 9.21767 3.53308 9.18992 3.52183 9.16292C3.51058 9.13592 3.49683 9.11042 3.48083 9.08617C3.46458 9.06192 3.44608 9.03942 3.42558 9.01867C3.40483 8.99817 3.38233 8.97967 3.35808 8.96342C3.33383 8.94717 3.30833 8.93367 3.28133 8.92242C3.25433 8.91117 3.22658 8.90267 3.19783 8.89717C3.16933 8.89142 3.14033 8.88867 3.11108 8.88867H2.22233C2.19308 8.88867 2.16433 8.89142 2.13558 8.89717C2.10708 8.90267 2.07908 8.91117 2.05233 8.92242C2.02533 8.93367 1.99958 8.94717 1.97533 8.96342C1.95108 8.97967 1.92858 8.99817 1.90808 9.01867C1.88733 9.03942 1.86908 9.06192 1.85283 9.08617C1.83658 9.11042 1.82283 9.13592 1.81158 9.16292C1.80058 9.18992 1.79208 9.21767 1.78633 9.24642C1.78058 9.27492 1.77783 9.30392 1.77783 9.33292C1.77783 9.36217 1.78058 9.39117 1.78633 9.41967C1.79208 9.44842 1.80058 9.47617 1.81158 9.50317C1.82283 9.52992 1.83658 9.55567 1.85283 9.57992C1.86908 9.60417 1.88733 9.62667 1.90808 9.64717C1.92858 9.66792 1.95108 9.68642 1.97533 9.70242C1.99958 9.71867 2.02533 9.73242 2.05233 9.74367C2.07908 9.75467 2.10708 9.76317 2.13558 9.76892C2.16433 9.77467 2.19308 9.77742 2.22233 9.77742Z" fill="#7D126B"/>
<path d="M4.88884 9.77742H9.33309C9.36234 9.77742 9.39134 9.77467 9.41984 9.76892C9.44859 9.76317 9.47634 9.75467 9.50334 9.74367C9.53009 9.73242 9.55584 9.71867 9.58009 9.70242C9.60434 9.68642 9.62684 9.66792 9.64734 9.64717C9.66809 9.62667 9.68659 9.60417 9.70259 9.57992C9.71884 9.55567 9.73259 9.52992 9.74384 9.50317C9.75484 9.47617 9.76334 9.44842 9.76909 9.41967C9.77484 9.39117 9.77759 9.36217 9.77759 9.33292C9.77759 9.30392 9.77484 9.27492 9.76909 9.24642C9.76334 9.21767 9.75484 9.18992 9.74384 9.16292C9.73259 9.13592 9.71884 9.11042 9.70259 9.08617C9.68659 9.06192 9.66809 9.03942 9.64734 9.01867C9.62684 8.99817 9.60434 8.97967 9.58009 8.96342C9.55584 8.94717 9.53009 8.93367 9.50334 8.92242C9.47634 8.91117 9.44859 8.90267 9.41984 8.89717C9.39134 8.89142 9.36234 8.88867 9.33309 8.88867H4.88884C4.85959 8.88867 4.83059 8.89142 4.80209 8.89717C4.77334 8.90267 4.74559 8.91117 4.71859 8.92242C4.69159 8.93367 4.66609 8.94717 4.64184 8.96342C4.61759 8.97967 4.59509 8.99817 4.57434 9.01867C4.55384 9.03942 4.53534 9.06192 4.51909 9.08617C4.50309 9.11042 4.48934 9.13592 4.47809 9.16292C4.46684 9.18992 4.45859 9.21767 4.45284 9.24642C4.44709 9.27492 4.44434 9.30392 4.44434 9.33292C4.44434 9.36217 4.44709 9.39117 4.45284 9.41967C4.45859 9.44842 4.46684 9.47617 4.47809 9.50317C4.48934 9.52992 4.50309 9.55567 4.51909 9.57992C4.53534 9.60417 4.55384 9.62667 4.57434 9.64717C4.59509 9.66792 4.61759 9.68642 4.64184 9.70242C4.66609 9.71867 4.69159 9.73242 4.71859 9.74367C4.74559 9.75467 4.77334 9.76317 4.80209 9.76892C4.83059 9.77467 4.85959 9.77742 4.88884 9.77742Z" fill="#7D126B"/>
<path d="M22.6668 14.2223H19.111V1.33325C19.111 1.28975 19.109 1.246 19.1048 1.20275C19.1005 1.15925 19.094 1.116 19.0855 1.07325C19.077 1.0305 19.0663 0.988 19.0538 0.94625C19.041 0.9045 19.0263 0.8635 19.0095 0.823C18.993 0.78275 18.9743 0.74325 18.9538 0.70475C18.933 0.66625 18.9108 0.629 18.8865 0.5925C18.8623 0.55625 18.8363 0.52125 18.8085 0.4875C18.7808 0.45375 18.7515 0.4215 18.7205 0.3905C18.6898 0.35975 18.6575 0.33025 18.6238 0.30275C18.59 0.275 18.5548 0.249 18.5185 0.22475C18.4823 0.2005 18.4448 0.178 18.4063 0.1575C18.3678 0.13675 18.3283 0.11825 18.288 0.1015C18.2478 0.08475 18.2065 0.07 18.1648 0.0575C18.123 0.04475 18.0808 0.03425 18.038 0.0255C17.995 0.017 17.952 0.01075 17.9085 0.00649997C17.865 0.00225 17.8215 0 17.7778 0H6.22225C6.1785 0 6.135 0.00225 6.0915 0.00649997C6.048 0.01075 6.005 0.017 5.962 0.0255C5.91925 0.03425 5.877 0.04475 5.83525 0.0575C5.7935 0.07 5.75225 0.08475 5.712 0.1015C5.67175 0.11825 5.63225 0.13675 5.59375 0.1575C5.55525 0.178 5.51775 0.2005 5.4815 0.22475C5.44525 0.249 5.41 0.275 5.37625 0.30275C5.3425 0.33025 5.31025 0.35975 5.2795 0.3905C5.2485 0.4215 5.21925 0.45375 5.1915 0.4875C5.16375 0.52125 5.13775 0.55625 5.1135 0.5925C5.08925 0.629 5.067 0.66625 5.04625 0.70475C5.02575 0.74325 5.007 0.78275 4.9905 0.823C4.97375 0.8635 4.959 0.9045 4.94625 0.94625C4.9335 0.988 4.923 1.0305 4.9145 1.07325C4.906 1.116 4.8995 1.15925 4.89525 1.20275C4.891 1.246 4.889 1.28975 4.889 1.33325V7.111H1.33325C1.28975 7.111 1.246 7.11325 1.20275 7.1175C1.15925 7.12175 1.116 7.12825 1.07325 7.13675C1.0305 7.14525 0.988 7.15575 0.94625 7.1685C0.9045 7.18125 0.8635 7.196 0.823 7.2125C0.78275 7.22925 0.74325 7.248 0.70475 7.2685C0.66625 7.28925 0.629 7.3115 0.5925 7.33575C0.55625 7.36 0.52125 7.386 0.4875 7.41375C0.45375 7.4415 0.4215 7.47075 0.3905 7.50175C0.35975 7.5325 0.33025 7.56475 0.30275 7.5985C0.275 7.63225 0.249 7.6675 0.22475 7.70375C0.2005 7.74 0.178 7.7775 0.1575 7.816C0.13675 7.8545 0.11825 7.89375 0.1015 7.93425C0.08475 7.9745 0.07 8.0155 0.0575 8.0575C0.04475 8.09925 0.03425 8.1415 0.0255 8.18425C0.017 8.22725 0.01075 8.27025 0.00649997 8.31375C0.00225 8.35725 0 8.40075 0 8.4445V22.6668C0 22.7103 0.00225 22.754 0.00649997 22.7973C0.01075 22.8408 0.017 22.884 0.0255 22.9268C0.03425 22.9695 0.04475 23.012 0.0575 23.0538C0.07 23.0955 0.08475 23.1365 0.1015 23.177C0.11825 23.2173 0.13675 23.2568 0.1575 23.2953C0.178 23.3338 0.2005 23.371 0.22475 23.4075C0.249 23.4438 0.275 23.4788 0.30275 23.5125C0.33025 23.5463 0.35975 23.5785 0.3905 23.6095C0.4215 23.6403 0.45375 23.6698 0.4875 23.6973C0.52125 23.725 0.55625 23.751 0.5925 23.7753C0.629 23.7995 0.66625 23.822 0.70475 23.8425C0.74325 23.8633 0.78275 23.8818 0.823 23.8985C0.8635 23.9153 0.9045 23.93 0.94625 23.9425C0.988 23.9553 1.0305 23.9658 1.07325 23.9745C1.116 23.983 1.15925 23.9893 1.20275 23.9935C1.246 23.9978 1.28975 24 1.33325 24H22.6668C22.7103 24 22.754 23.9978 22.7973 23.9935C22.8408 23.9893 22.884 23.983 22.9268 23.9745C22.9695 23.9658 23.012 23.9553 23.0538 23.9425C23.0955 23.93 23.1365 23.9153 23.177 23.8985C23.2173 23.8818 23.2568 23.8633 23.2953 23.8425C23.3338 23.822 23.371 23.7995 23.4075 23.7753C23.4438 23.751 23.4788 23.725 23.5125 23.6973C23.5463 23.6698 23.5785 23.6403 23.6095 23.6095C23.6403 23.5785 23.6698 23.5463 23.6973 23.5125C23.725 23.4788 23.751 23.4438 23.7753 23.4075C23.7995 23.371 23.822 23.3338 23.8425 23.2953C23.8633 23.2568 23.8818 23.2173 23.8985 23.177C23.9153 23.1365 23.93 23.0955 23.9425 23.0538C23.9553 23.012 23.9658 22.9695 23.9745 22.9268C23.983 22.884 23.9893 22.8408 23.9935 22.7973C23.9978 22.754 24 22.7103 24 22.6668V15.5555C24 15.512 23.9978 15.4683 23.9935 15.4248C23.9893 15.3815 23.983 15.3383 23.9745 15.2955C23.9658 15.2525 23.9553 15.2103 23.9425 15.1685C23.93 15.1268 23.9153 15.0858 23.8985 15.0453C23.8818 15.005 23.8633 14.9655 23.8425 14.927C23.822 14.8885 23.7995 14.851 23.7753 14.8148C23.751 14.7785 23.725 14.7435 23.6973 14.7098C23.6698 14.676 23.6403 14.6435 23.6095 14.6128C23.5785 14.5818 23.5463 14.5525 23.5125 14.5248C23.4788 14.4973 23.4438 14.4713 23.4075 14.447C23.371 14.4228 23.3338 14.4003 23.2953 14.3798C23.2568 14.359 23.2173 14.3405 23.177 14.3238C23.1365 14.307 23.0955 14.2923 23.0538 14.2798C23.012 14.267 22.9695 14.2563 22.9268 14.2478C22.884 14.2393 22.8408 14.233 22.7973 14.2288C22.754 14.2243 22.7103 14.2223 22.6668 14.2223ZM14.2223 14.2223V9.77775H18.2223V14.2223H14.2223ZM5.77775 1.33325C5.77775 1.30425 5.7805 1.27525 5.78625 1.24675C5.792 1.218 5.8005 1.19025 5.8115 1.16325C5.82275 1.13625 5.8365 1.11075 5.85275 1.0865C5.869 1.06225 5.88725 1.03975 5.908 1.019C5.9285 0.9985 5.951 0.98 5.97525 0.96375C5.9995 0.9475 6.02525 0.934 6.05225 0.92275C6.079 0.9115 6.107 0.903 6.1355 0.8975C6.16425 0.89175 6.193 0.889 6.22225 0.889H9.94675L9.50225 1.77775H5.77775V1.33325ZM5.77775 2.66675H9.77775C9.81875 2.6665 9.859 2.66075 9.8985 2.6495C9.938 2.63825 9.97525 2.62175 10.01 2.60025C10.045 2.57875 10.0763 2.55275 10.104 2.5225C10.1318 2.49225 10.1548 2.45875 10.1733 2.42225L10.9423 0.889H17.7778C17.807 0.889 17.8358 0.89175 17.8645 0.8975C17.893 0.903 17.921 0.9115 17.9478 0.92275C17.9748 0.934 18.0005 0.9475 18.0248 0.96375C18.049 0.98 18.0715 0.9985 18.092 1.019C18.1128 1.03975 18.131 1.06225 18.1473 1.0865C18.1635 1.11075 18.1773 1.13625 18.1885 1.16325C18.1995 1.19025 18.208 1.218 18.2138 1.24675C18.2193 1.27525 18.2223 1.30425 18.2223 1.33325V8.889H14.2223V8.4445C14.2223 8.40075 14.22 8.35725 14.2158 8.31375C14.2115 8.27025 14.205 8.22725 14.1965 8.18425C14.188 8.1415 14.1775 8.09925 14.1648 8.0575C14.1523 8.0155 14.1375 7.9745 14.1208 7.93425C14.104 7.89375 14.0853 7.8545 14.0648 7.816C14.0443 7.7775 14.0218 7.74 13.9975 7.70375C13.9733 7.66725 13.9473 7.63225 13.9195 7.5985C13.8918 7.56475 13.8625 7.5325 13.8318 7.50175C13.8008 7.47075 13.7685 7.4415 13.7348 7.41375C13.701 7.386 13.666 7.36 13.6298 7.33575C13.5933 7.3115 13.556 7.28925 13.5175 7.2685C13.479 7.248 13.4395 7.22925 13.3993 7.2125C13.3588 7.196 13.3178 7.18125 13.276 7.1685C13.2343 7.15575 13.1918 7.14525 13.149 7.13675C13.1063 7.12825 13.063 7.12175 13.0195 7.1175C12.976 7.11325 12.9325 7.111 12.889 7.111H5.77775V2.66675ZM1.33325 8H12.889C12.918 8 12.947 8.00275 12.9755 8.0085C13.0043 8.01425 13.032 8.02275 13.059 8.03375C13.086 8.045 13.1115 8.05875 13.1358 8.075C13.16 8.091 13.1825 8.1095 13.2033 8.13025C13.2238 8.15075 13.2423 8.17325 13.2585 8.1975C13.2748 8.22175 13.2883 8.2475 13.2995 8.27425C13.3108 8.30125 13.319 8.329 13.3248 8.35775C13.3305 8.38625 13.3333 8.41525 13.3333 8.4445V10.6668H0.889V8.4445C0.889 8.41525 0.89175 8.38625 0.8975 8.35775C0.903 8.329 0.9115 8.30125 0.92275 8.27425C0.934 8.2475 0.9475 8.22175 0.96375 8.1975C0.98 8.17325 0.9985 8.15075 1.019 8.13025C1.03975 8.1095 1.06225 8.091 1.0865 8.075C1.11075 8.05875 1.13625 8.045 1.16325 8.03375C1.19025 8.02275 1.218 8.01425 1.24675 8.0085C1.27525 8.00275 1.30425 8 1.33325 8ZM0.889 22.6668V11.5555H13.3333V14.2223H12.889C12.8453 14.2223 12.8018 14.2243 12.7583 14.2288C12.7148 14.233 12.6715 14.2393 12.6288 14.2478C12.586 14.2563 12.5438 14.267 12.5018 14.2798C12.46 14.2923 12.419 14.307 12.3788 14.3238C12.3383 14.3405 12.2988 14.359 12.2603 14.3798C12.2218 14.4003 12.1845 14.4228 12.1483 14.447C12.1118 14.4713 12.0768 14.4973 12.043 14.525C12.0093 14.5525 11.977 14.5818 11.946 14.6128C11.9153 14.6435 11.886 14.676 11.8583 14.7098C11.8305 14.7435 11.8045 14.7785 11.7803 14.8148C11.756 14.851 11.7335 14.8885 11.713 14.927C11.6925 14.9655 11.6738 15.005 11.657 15.0453C11.6403 15.0858 11.6258 15.1268 11.613 15.1685C11.6003 15.2103 11.5898 15.2525 11.5813 15.2955C11.5728 15.3383 11.5663 15.3815 11.562 15.4248C11.5578 15.4683 11.5555 15.512 11.5555 15.5555V21.3333H2.22225C2.193 21.3333 2.16425 21.3363 2.1355 21.3418C2.107 21.3475 2.079 21.356 2.05225 21.3673C2.02525 21.3783 1.9995 21.392 1.97525 21.4083C1.951 21.4245 1.9285 21.4428 1.908 21.4635C1.88725 21.4843 1.869 21.5065 1.85275 21.5308C1.8365 21.555 1.82275 21.5808 1.8115 21.6078C1.8005 21.6348 1.792 21.6625 1.78625 21.691C1.7805 21.7198 1.77775 21.7485 1.77775 21.7778C1.77775 21.807 1.7805 21.8358 1.78625 21.8645C1.792 21.893 1.8005 21.921 1.8115 21.9478C1.82275 21.9748 1.8365 22.0005 1.85275 22.0248C1.869 22.049 1.88725 22.0715 1.908 22.092C1.9285 22.1128 1.951 22.131 1.97525 22.1473C1.9995 22.1635 2.02525 22.1773 2.05225 22.1885C2.079 22.1995 2.107 22.208 2.1355 22.2138C2.16425 22.2193 2.193 22.2223 2.22225 22.2223H11.5555V22.6668C11.5568 22.8195 11.5835 22.9675 11.6355 23.111H1.33325C1.30425 23.111 1.27525 23.1083 1.24675 23.1025C1.218 23.0968 1.19025 23.0885 1.16325 23.0773C1.13625 23.066 1.11075 23.0525 1.0865 23.0363C1.06225 23.02 1.03975 23.0015 1.019 22.981C0.9985 22.9603 0.98 22.9378 0.96375 22.9135C0.9475 22.8893 0.934 22.8638 0.92275 22.8368C0.9115 22.8098 0.903 22.782 0.8975 22.7533C0.89175 22.7248 0.889 22.6958 0.889 22.6668ZM23.111 22.6668C23.111 22.6958 23.1083 22.7248 23.1025 22.7533C23.0968 22.782 23.0885 22.8098 23.0773 22.8368C23.066 22.8638 23.0525 22.8893 23.0363 22.9135C23.02 22.9378 23.0015 22.9603 22.981 22.981C22.9603 23.0015 22.9378 23.02 22.9135 23.0363C22.8893 23.0525 22.8638 23.066 22.8368 23.0773C22.8098 23.0885 22.782 23.0968 22.7533 23.1025C22.7248 23.1083 22.6958 23.111 22.6668 23.111H12.889C12.8598 23.111 12.8308 23.1083 12.8023 23.1025C12.7735 23.0968 12.7458 23.0885 12.7188 23.0773C12.6918 23.066 12.6663 23.0525 12.642 23.0363C12.6178 23.02 12.5953 23.0015 12.5745 22.981C12.554 22.9603 12.5355 22.9378 12.5193 22.9135C12.5033 22.8893 12.4895 22.8638 12.4783 22.8368C12.467 22.8098 12.4588 22.782 12.453 22.7533C12.4473 22.7248 12.4445 22.6958 12.4445 22.6668V15.5555C12.4445 15.5263 12.4473 15.4975 12.453 15.4688C12.4588 15.4403 12.467 15.4125 12.4783 15.3855C12.4895 15.3585 12.5033 15.333 12.5193 15.3088C12.5355 15.2843 12.554 15.262 12.5745 15.2413C12.5953 15.2208 12.6178 15.2023 12.642 15.186C12.6663 15.1698 12.6918 15.156 12.7188 15.145C12.7458 15.1338 12.7735 15.1253 12.8023 15.1198C12.8308 15.114 12.8598 15.111 12.889 15.111H22.6668C22.6958 15.111 22.7248 15.114 22.7533 15.1198C22.782 15.1253 22.8098 15.1338 22.8368 15.145C22.8638 15.156 22.8893 15.1698 22.9135 15.186C22.9378 15.2023 22.9603 15.2208 22.981 15.2413C23.0015 15.262 23.02 15.2843 23.0363 15.3088C23.0525 15.333 23.066 15.3585 23.0773 15.3855C23.0885 15.4125 23.0968 15.4403 23.1025 15.4688C23.1083 15.4975 23.111 15.5263 23.111 15.5555V22.6668Z" fill="#7D126B"/>
<path d="M19.1108 16H13.7775C13.7483 16 13.7195 16.0028 13.6908 16.0085C13.6623 16.0143 13.6345 16.0228 13.6075 16.0338C13.5805 16.045 13.5548 16.0588 13.5305 16.075C13.5063 16.091 13.484 16.1095 13.4633 16.1303C13.4425 16.1508 13.4243 16.1732 13.408 16.1975C13.3918 16.2217 13.378 16.2475 13.367 16.2743C13.3558 16.3013 13.3473 16.329 13.3415 16.3578C13.336 16.3862 13.333 16.4153 13.333 16.4445V21.7778C13.333 21.807 13.336 21.8358 13.3415 21.8645C13.3473 21.893 13.3558 21.921 13.367 21.9478C13.378 21.9748 13.3918 22.0005 13.408 22.0248C13.4243 22.049 13.4425 22.0715 13.4633 22.092C13.484 22.1128 13.5063 22.131 13.5305 22.1473C13.5548 22.1635 13.5805 22.1773 13.6075 22.1885C13.6345 22.1995 13.6623 22.208 13.6908 22.2138C13.7195 22.2193 13.7483 22.2223 13.7775 22.2223H19.1108C19.14 22.2223 19.169 22.2193 19.1975 22.2138C19.2263 22.208 19.254 22.1995 19.281 22.1885C19.308 22.1773 19.3335 22.1635 19.3578 22.1473C19.382 22.131 19.4045 22.1128 19.4253 22.092C19.4458 22.0715 19.4643 22.049 19.4805 22.0248C19.4965 22.0005 19.5103 21.9748 19.5215 21.9478C19.5328 21.921 19.541 21.893 19.5468 21.8645C19.5525 21.8358 19.5553 21.807 19.5553 21.7778V16.4445C19.5553 16.4153 19.5525 16.3862 19.5468 16.3578C19.541 16.329 19.5328 16.3013 19.5215 16.2743C19.5103 16.2475 19.4965 16.2217 19.4805 16.1975C19.4643 16.1732 19.4458 16.1508 19.4253 16.1303C19.4045 16.1095 19.382 16.091 19.3578 16.075C19.3335 16.0588 19.308 16.045 19.281 16.0338C19.254 16.0228 19.2263 16.0143 19.1975 16.0085C19.169 16.0028 19.14 16 19.1108 16ZM18.6665 21.3333H14.222V16.889H18.6665V21.3333Z" fill="#7D126B"/>
<path d="M21.7776 18.666H20.8888C20.8596 18.666 20.8306 18.6688 20.8021 18.6745C20.7733 18.6803 20.7456 18.6885 20.7186 18.6998C20.6916 18.711 20.6661 18.7245 20.6418 18.7408C20.6176 18.757 20.5951 18.7755 20.5743 18.796C20.5538 18.8168 20.5353 18.8393 20.5191 18.8635C20.5031 18.8878 20.4893 18.9133 20.4781 18.9403C20.4668 18.9673 20.4586 18.995 20.4528 19.0238C20.4471 19.0523 20.4443 19.0813 20.4443 19.1103C20.4443 19.1395 20.4471 19.1685 20.4528 19.197C20.4586 19.2258 20.4668 19.2535 20.4781 19.2805C20.4893 19.3075 20.5031 19.333 20.5191 19.3573C20.5353 19.3815 20.5538 19.404 20.5743 19.4248C20.5951 19.4453 20.6176 19.4638 20.6418 19.48C20.6661 19.496 20.6916 19.5098 20.7186 19.521C20.7456 19.5323 20.7733 19.5405 20.8021 19.5463C20.8306 19.552 20.8596 19.5548 20.8888 19.5548H21.7776C21.8068 19.5548 21.8356 19.552 21.8643 19.5463C21.8928 19.5405 21.9208 19.5323 21.9476 19.521C21.9746 19.5098 22.0003 19.496 22.0246 19.48C22.0488 19.4638 22.0713 19.4453 22.0918 19.4248C22.1126 19.404 22.1308 19.3815 22.1471 19.3573C22.1633 19.333 22.1771 19.3075 22.1883 19.2805C22.1993 19.2535 22.2078 19.2258 22.2136 19.197C22.2191 19.1685 22.2221 19.1395 22.2221 19.1103C22.2221 19.0813 22.2191 19.0523 22.2136 19.0238C22.2078 18.995 22.1993 18.9673 22.1883 18.9403C22.1771 18.9133 22.1633 18.8878 22.1471 18.8635C22.1308 18.8393 22.1126 18.8168 22.0918 18.796C22.0713 18.7755 22.0488 18.757 22.0246 18.7408C22.0003 18.7245 21.9746 18.711 21.9476 18.6998C21.9208 18.6885 21.8928 18.6803 21.8643 18.6745C21.8356 18.6688 21.8068 18.666 21.7776 18.666Z" fill="#7D126B"/>
<path d="M21.7776 16.8887H20.8888C20.8596 16.8887 20.8306 16.8914 20.8021 16.8972C20.7733 16.9027 20.7456 16.9112 20.7186 16.9224C20.6916 16.9337 20.6661 16.9472 20.6418 16.9634C20.6176 16.9797 20.5951 16.9982 20.5743 17.0187C20.5538 17.0394 20.5353 17.0619 20.5191 17.0862C20.5031 17.1104 20.4893 17.1359 20.4781 17.1629C20.4668 17.1899 20.4586 17.2177 20.4528 17.2462C20.4471 17.2749 20.4443 17.3039 20.4443 17.3329C20.4443 17.3622 20.4471 17.3912 20.4528 17.4197C20.4586 17.4484 20.4668 17.4762 20.4781 17.5032C20.4893 17.5299 20.5031 17.5557 20.5191 17.5799C20.5353 17.6042 20.5538 17.6267 20.5743 17.6472C20.5951 17.6679 20.6176 17.6864 20.6418 17.7024C20.6661 17.7187 20.6916 17.7324 20.7186 17.7437C20.7456 17.7547 20.7733 17.7632 20.8021 17.7689C20.8306 17.7747 20.8596 17.7774 20.8888 17.7774H21.7776C21.8068 17.7774 21.8356 17.7747 21.8643 17.7689C21.8928 17.7632 21.9208 17.7547 21.9476 17.7437C21.9746 17.7324 22.0003 17.7187 22.0246 17.7024C22.0488 17.6864 22.0713 17.6679 22.0918 17.6472C22.1126 17.6267 22.1308 17.6042 22.1471 17.5799C22.1633 17.5557 22.1771 17.5299 22.1883 17.5032C22.1993 17.4762 22.2078 17.4484 22.2136 17.4197C22.2191 17.3912 22.2221 17.3622 22.2221 17.3329C22.2221 17.3039 22.2191 17.2749 22.2136 17.2462C22.2078 17.2177 22.1993 17.1899 22.1883 17.1629C22.1771 17.1359 22.1633 17.1104 22.1471 17.0862C22.1308 17.0619 22.1126 17.0394 22.0918 17.0187C22.0713 16.9982 22.0488 16.9797 22.0246 16.9634C22.0003 16.9472 21.9746 16.9337 21.9476 16.9224C21.9208 16.9112 21.8928 16.9027 21.8643 16.8972C21.8356 16.8914 21.8068 16.8887 21.7776 16.8887Z" fill="#7D126B"/>
<path d="M21.7776 20.4453H20.8888C20.8596 20.4453 20.8306 20.4481 20.8021 20.4538C20.7733 20.4596 20.7456 20.4678 20.7186 20.4791C20.6916 20.4903 20.6661 20.5041 20.6418 20.5201C20.6176 20.5363 20.5951 20.5548 20.5743 20.5753C20.5538 20.5961 20.5353 20.6186 20.5191 20.6428C20.5031 20.6671 20.4893 20.6926 20.4781 20.7196C20.4668 20.7466 20.4586 20.7743 20.4528 20.8031C20.4471 20.8316 20.4443 20.8606 20.4443 20.8898C20.4443 20.9188 20.4471 20.9478 20.4528 20.9763C20.4586 21.0051 20.4668 21.0328 20.4781 21.0598C20.4893 21.0868 20.5031 21.1123 20.5191 21.1366C20.5353 21.1608 20.5538 21.1833 20.5743 21.2041C20.5951 21.2246 20.6176 21.2431 20.6418 21.2593C20.6661 21.2756 20.6916 21.2891 20.7186 21.3003C20.7456 21.3116 20.7733 21.3198 20.8021 21.3256C20.8306 21.3313 20.8596 21.3341 20.8888 21.3341H21.7776C21.8068 21.3341 21.8356 21.3313 21.8643 21.3256C21.8928 21.3198 21.9208 21.3116 21.9476 21.3003C21.9746 21.2891 22.0003 21.2756 22.0246 21.2593C22.0488 21.2431 22.0713 21.2246 22.0918 21.2041C22.1126 21.1833 22.1308 21.1608 22.1471 21.1366C22.1633 21.1123 22.1771 21.0868 22.1883 21.0598C22.1993 21.0328 22.2078 21.0051 22.2136 20.9763C22.2191 20.9478 22.2221 20.9188 22.2221 20.8898C22.2221 20.8606 22.2191 20.8316 22.2136 20.8031C22.2078 20.7743 22.1993 20.7466 22.1883 20.7196C22.1771 20.6926 22.1633 20.6671 22.1471 20.6428C22.1308 20.6186 22.1126 20.5961 22.0918 20.5753C22.0713 20.5548 22.0488 20.5363 22.0246 20.5201C22.0003 20.5041 21.9746 20.4903 21.9476 20.4791C21.9208 20.4678 21.8928 20.4596 21.8643 20.4538C21.8356 20.4481 21.8068 20.4453 21.7776 20.4453Z" fill="#7D126B"/>
</g>
<defs>
<clipPath id="clip0_1927_7368">
<rect width="24" height="24" fill="white"/>
</clipPath>
</defs>
</svg>
