<svg width="24" height="25" viewBox="0 0 24 25" fill="none" xmlns="http://www.w3.org/2000/svg">
<g clip-path="url(#clip0_1482_91)">
<path d="M7.38883 6.33972C7.50508 6.40572 7.62908 6.44822 7.76133 6.46697C7.89358 6.48597 8.02483 6.47972 8.15483 6.44872C8.42083 6.40747 8.64583 6.22747 8.79508 6.01072C8.98133 5.72697 8.93458 5.37272 9.00808 5.05522C9.09858 4.65772 9.29508 4.28847 9.54583 3.96972C9.62708 3.86047 9.70433 3.74622 9.80933 3.65647C10.0156 3.47697 10.2271 3.30147 10.4698 3.17097C10.6318 3.12522 10.7783 3.03897 10.9363 2.98122C11.1433 2.89872 11.3653 2.86872 11.5826 2.82447C11.7931 2.77897 12.0101 2.79072 12.2241 2.79022C12.3841 2.78672 12.5373 2.83472 12.6941 2.85822C12.9863 2.90772 13.2633 3.02022 13.5293 3.14547C13.7381 3.23797 13.9061 3.39447 14.0893 3.52597C14.2391 3.63697 14.3438 3.79672 14.4928 3.90747C14.5491 4.01172 14.6343 4.09797 14.6946 4.20047C15.0213 4.68897 15.1643 5.28197 15.1801 5.86422C15.1843 7.70097 15.1801 9.53747 15.1851 11.3732C15.1781 11.5017 15.2218 11.6255 15.2758 11.739C15.3341 11.8555 15.3936 11.9785 15.4993 12.0605C15.5923 12.132 15.6773 12.2172 15.7836 12.2695C16.0096 12.352 16.2643 12.383 16.4956 12.3017C16.7993 12.2082 17.0223 11.9472 17.1311 11.6582C17.2286 11.447 17.2318 11.2095 17.2293 10.9812C17.2221 9.24897 17.2343 7.51697 17.2238 5.78547C17.2296 5.65497 17.1906 5.52697 17.1946 5.39572C17.1556 4.70147 16.8988 4.04247 16.5881 3.42822C16.3988 3.11322 16.2143 2.78747 15.9458 2.53122C15.8783 2.46697 15.8433 2.37597 15.7716 2.31547C15.5238 2.08372 15.2733 1.85147 14.9908 1.66272C14.7196 1.49397 14.4516 1.31697 14.1578 1.18947C13.7813 1.03122 13.3931 0.909218 12.9936 0.823718C12.3518 0.732718 11.6958 0.704218 11.0548 0.817968C10.7383 0.861218 10.4391 0.977718 10.1353 1.07222C9.99783 1.11272 9.87808 1.19522 9.74633 1.25022C9.43058 1.37847 9.15083 1.58172 8.87183 1.77922C8.73258 1.86272 8.62658 1.98797 8.50258 2.09072C8.37633 2.19872 8.27608 2.33297 8.15158 2.44347C8.03158 2.55072 7.95733 2.69872 7.83233 2.80072C7.77383 2.91322 7.70383 3.01747 7.62208 3.11422C7.53883 3.21322 7.50158 3.33872 7.43008 3.44447C7.35183 3.56397 7.30583 3.70122 7.24033 3.82822C7.17483 3.95522 7.13833 4.10072 7.09833 4.24047C7.02683 4.51422 6.93083 4.78347 6.90233 5.06672C6.86883 5.21722 6.88333 5.37172 6.86558 5.52422C6.85608 5.71497 6.96258 5.88497 7.06258 6.03847C7.15758 6.15097 7.25433 6.27097 7.38883 6.33972Z" fill="url(#paint0_linear_1482_91)"/>
<path d="M5.66377 15.767C5.56902 15.6625 5.44227 15.5995 5.31527 15.5455C5.11077 15.4782 4.89252 15.4785 4.67977 15.4835C4.36877 15.479 4.06852 15.375 3.79227 15.24C3.37952 15.055 3.04077 14.7377 2.76927 14.3812C2.70027 14.2682 2.63152 14.1552 2.56052 14.0417C2.25327 13.4632 2.14977 12.7915 2.19677 12.1427C2.24252 11.836 2.31277 11.53 2.43627 11.2447C2.53027 11.114 2.58302 10.9607 2.67927 10.8322C2.86877 10.5825 3.06277 10.327 3.32377 10.147C3.47327 10.0102 3.65452 9.91797 3.82652 9.81372C3.96952 9.73322 4.13577 9.69672 4.26877 9.59822C4.49427 9.57197 4.71252 9.49997 4.94052 9.49547C5.14952 9.46022 5.36127 9.50047 5.56702 9.46222C7.40327 9.45772 9.23927 9.46222 11.0748 9.45447C11.293 9.44797 11.498 9.35222 11.679 9.23672C11.9213 9.04622 12.0968 8.75347 12.117 8.44272C12.1273 8.28397 12.088 8.12422 12.0408 7.97272C11.9888 7.80247 11.8653 7.66547 11.731 7.55497C11.6428 7.47447 11.5188 7.45647 11.4143 7.40422C11.2373 7.31247 11.0318 7.33797 10.84 7.33347C10.4485 7.32797 10.057 7.34072 9.66552 7.32197C8.32302 7.31447 6.98027 7.31447 5.63777 7.31372C5.63627 7.33497 5.63327 7.37722 5.63177 7.39847C5.22277 7.39197 4.81577 7.44172 4.40852 7.47172C3.73002 7.56947 3.08777 7.83122 2.49602 8.16922C2.22602 8.33847 1.97127 8.52797 1.73152 8.73822C1.58252 8.90272 1.40627 9.04147 1.27152 9.21897C1.17552 9.34947 1.05877 9.46197 0.971765 9.59822C0.863015 9.73122 0.802015 9.89447 0.702765 10.0337C0.667765 10.086 0.634765 10.1407 0.603765 10.196C0.473265 10.4752 0.350765 10.7595 0.268265 11.0577C0.240015 11.2052 0.181015 11.345 0.166015 11.4957C0.0982651 11.8857 0.0462651 12.2842 0.0957652 12.6792C0.0977652 12.8767 0.110265 13.0737 0.133015 13.27C0.185265 13.527 0.202515 13.7937 0.289515 14.0432C0.322765 14.1415 0.344015 14.2432 0.379515 14.341C0.536015 14.7165 0.708765 15.0882 0.943765 15.4222C1.04952 15.5732 1.14477 15.7355 1.28152 15.8617C1.36802 16.0142 1.50002 16.1347 1.62427 16.2562C1.83302 16.4422 2.04177 16.63 2.28202 16.774C2.51252 16.9362 2.76927 17.0537 3.02052 17.1787C3.35027 17.3125 3.68877 17.417 4.03677 17.492C4.37802 17.5442 4.72552 17.5965 5.07177 17.5612C5.37877 17.524 5.63602 17.3187 5.81377 17.0757C5.88552 16.957 5.93427 16.8297 5.96027 16.6935C5.98627 16.5572 5.98777 16.421 5.96452 16.2842C5.90502 16.0935 5.81977 15.8997 5.66377 15.767Z" fill="url(#paint1_linear_1482_91)"/>
<path d="M17.2176 18.6312C17.2086 18.5125 17.2049 18.3902 17.1654 18.2765C16.5354 18.2835 15.9051 18.2792 15.2751 18.2817C15.2561 18.2802 15.2376 18.283 15.2199 18.2897C15.2019 18.2965 15.1861 18.3065 15.1726 18.32C15.1591 18.3335 15.1491 18.3492 15.1424 18.367C15.1356 18.385 15.1329 18.4032 15.1341 18.4225C15.1321 18.9185 15.1374 19.4145 15.1311 19.9087C15.1101 20.055 15.1144 20.2052 15.0691 20.3472C14.9699 20.765 14.8081 21.1792 14.5229 21.5067C14.4184 21.6272 14.3349 21.7677 14.2096 21.8697C13.9856 22.091 13.7186 22.26 13.4446 22.411C12.9896 22.6242 12.5111 22.7337 12.0089 22.7395C11.9254 22.7177 11.8384 22.7235 11.7531 22.7202C10.9266 22.6452 10.1206 22.2532 9.59187 21.606C9.44712 21.4492 9.34212 21.2612 9.23037 21.0802C9.03162 20.7257 8.91962 20.3457 8.89487 19.9397C8.89162 18.233 8.89487 16.5262 8.89487 14.8195C8.89237 14.5457 8.97537 14.2712 8.92087 13.999C8.87087 13.6855 8.65162 13.417 8.38312 13.2575C8.13037 13.1087 7.81762 13.1132 7.54362 13.1957C7.37162 13.2662 7.22887 13.3755 7.11562 13.523C6.95287 13.7142 6.88687 13.9715 6.88062 14.2185C6.87887 16.1682 6.87937 18.1177 6.88287 20.0672C6.91037 20.6462 7.07412 21.2125 7.31537 21.7382C7.37612 21.888 7.47187 22.0182 7.54762 22.1607C7.65387 22.3605 7.79662 22.5372 7.92287 22.7245C7.99262 22.8267 8.09762 22.898 8.17062 22.9977C8.27137 23.1397 8.41637 23.2402 8.52587 23.3745C8.83687 23.6585 9.17812 23.8995 9.54987 24.0972C9.92162 24.2952 10.3119 24.4435 10.7211 24.5427C11.0339 24.6332 11.3526 24.6855 11.6779 24.6992C11.9741 24.7225 12.2781 24.744 12.5714 24.6907C12.6709 24.6947 12.7681 24.6815 12.8629 24.651C13.0411 24.6622 13.2156 24.6122 13.3871 24.57C13.5646 24.505 13.7559 24.4877 13.9289 24.41C14.3726 24.2432 14.8074 24.03 15.1679 23.7172C15.3894 23.613 15.5421 23.4125 15.7159 23.2475C15.9604 23.0117 16.1769 22.753 16.3654 22.4705C16.5541 22.1882 16.7104 21.889 16.8341 21.573C16.9009 21.4045 16.9846 21.2387 16.9981 21.0555C17.0584 20.9067 17.0729 20.745 17.1061 20.5892C17.2536 19.947 17.2114 19.284 17.2176 18.6312Z" fill="url(#paint2_linear_1482_91)"/>
<mask id="mask0_1482_91" style="mask-type:luminance" maskUnits="userSpaceOnUse" x="11" y="7" width="13" height="11">
<path d="M11.968 7.54797H23.997V17.532H11.968V7.54797Z" fill="white"/>
</mask>
<g mask="url(#mask0_1482_91)">
<path d="M23.9507 12.0085C23.912 11.7882 23.9047 11.5617 23.8392 11.347C23.7272 10.8942 23.569 10.4507 23.3435 10.0415C23.221 9.85875 23.1085 9.66925 22.9832 9.4885C22.841 9.32525 22.724 9.14 22.562 8.99475C22.407 8.8535 22.2675 8.695 22.0952 8.574C21.9325 8.4245 21.7395 8.317 21.5547 8.19875C21.2017 7.99675 20.8305 7.8375 20.441 7.7205C20.0755 7.638 19.7007 7.56725 19.3235 7.575C19.2222 7.575 19.1182 7.56575 19.0205 7.59725C18.8657 7.64525 18.7035 7.69825 18.5847 7.81375C18.5065 7.88525 18.4242 7.95675 18.3795 8.05425C18.2877 8.25075 18.2152 8.4645 18.2365 8.6845C18.2467 9.08775 18.4977 9.51475 18.9032 9.6225C19.0915 9.6815 19.2882 9.62475 19.4805 9.64575C19.6632 9.66825 19.8512 9.669 20.0285 9.72575C20.2112 9.7635 20.368 9.8685 20.5322 9.953C20.73 10.0915 20.9305 10.2325 21.0892 10.4162C21.2565 10.625 21.4285 10.834 21.5542 11.071C21.844 11.5887 21.967 12.1922 21.9377 12.7825C21.9047 13.1697 21.804 13.5567 21.6097 13.895C21.5312 14.0472 21.4515 14.1997 21.3415 14.332C21.1917 14.5115 21.052 14.7032 20.8667 14.849C20.7265 14.9777 20.549 15.0517 20.3925 15.1567C20.146 15.269 19.8867 15.3855 19.6092 15.3772C18.7915 15.3772 17.9735 15.376 17.1557 15.3737C15.8155 15.3692 14.476 15.3925 13.1357 15.384C13.042 15.3817 12.9492 15.3907 12.8572 15.4105C12.7655 15.4305 12.6775 15.4607 12.5927 15.5015C12.5082 15.5425 12.4297 15.5927 12.357 15.6522C12.2845 15.7117 12.22 15.779 12.1632 15.854C12.003 16.0975 11.9687 16.4062 12.023 16.6895C12.047 16.8417 12.1312 16.9735 12.2122 17.1012C12.3357 17.2745 12.5312 17.3782 12.7277 17.4482C12.8927 17.5025 13.0672 17.505 13.2405 17.5167C13.5622 17.5167 13.8842 17.5167 14.2062 17.5147C14.6055 17.4902 15.0057 17.5057 15.407 17.4952C16.7822 17.4915 18.1572 17.4952 19.5312 17.4915C19.6717 17.4915 19.8097 17.4605 19.949 17.4527C20.1317 17.446 20.3002 17.376 20.4752 17.3332C20.766 17.2555 21.048 17.1532 21.3212 17.027C21.765 16.8097 22.1642 16.5072 22.5125 16.1567C22.9405 15.7237 23.315 15.2295 23.5547 14.6667C23.6512 14.4795 23.6957 14.273 23.7732 14.0782C23.8915 13.7097 23.9437 13.3235 23.972 12.9395C23.9987 12.629 23.9777 12.3175 23.9507 12.0085Z" fill="url(#paint3_linear_1482_91)"/>
</g>
</g>
<defs>
<linearGradient id="paint0_linear_1482_91" x1="16.9207" y1="25.6916" x2="3.29078" y2="23.2025" gradientUnits="userSpaceOnUse">
<stop stop-color="#75DCFF"/>
<stop offset="0.178138" stop-color="#2653EA"/>
<stop offset="1" stop-color="#FF6EEE"/>
</linearGradient>
<linearGradient id="paint1_linear_1482_91" x1="11.7595" y1="29.3669" x2="-3.71323" y2="25.653" gradientUnits="userSpaceOnUse">
<stop stop-color="#75DCFF"/>
<stop offset="0.178138" stop-color="#2653EA"/>
<stop offset="1" stop-color="#FF6EEE"/>
</linearGradient>
<linearGradient id="paint2_linear_1482_91" x1="16.9104" y1="38.0428" x2="3.31368" y2="35.5616" gradientUnits="userSpaceOnUse">
<stop stop-color="#75DCFF"/>
<stop offset="0.178138" stop-color="#2653EA"/>
<stop offset="1" stop-color="#FF6EEE"/>
</linearGradient>
<linearGradient id="paint3_linear_1482_91" x1="23.6269" y1="28.9476" x2="8.27318" y2="25.1632" gradientUnits="userSpaceOnUse">
<stop stop-color="#75DCFF"/>
<stop offset="0.178138" stop-color="#2653EA"/>
<stop offset="1" stop-color="#FF6EEE"/>
</linearGradient>
<clipPath id="clip0_1482_91">
<rect width="24" height="24" fill="white" transform="translate(0 0.699951)"/>
</clipPath>
</defs>
</svg>
