<svg width="24" height="25" viewBox="0 0 24 25" fill="none" xmlns="http://www.w3.org/2000/svg">
<g clip-path="url(#clip0_1482_1071)">
<mask id="mask0_1482_1071" style="mask-type:luminance" maskUnits="userSpaceOnUse" x="1" y="0" width="22" height="25">
<path d="M1.75488 0.900024H22.2509V24.9H1.75488V0.900024Z" fill="white"/>
</mask>
<g mask="url(#mask0_1482_1071)">
<path d="M12.0028 24.8943C11.9335 24.8935 11.867 24.88 11.8028 24.8543C1.94977 20.5363 1.75977 5.72352 1.75977 5.09377C1.75977 5.06102 1.76302 5.02852 1.76927 4.99627C1.77577 4.96427 1.78527 4.93302 1.79777 4.90252C1.81027 4.87227 1.82577 4.84352 1.84402 4.81627C1.86227 4.78902 1.88302 4.76377 1.90627 4.74052C1.92952 4.71727 1.95477 4.69652 1.98202 4.67827C2.00927 4.66002 2.03802 4.64477 2.06827 4.63202C2.09877 4.61952 2.13002 4.61002 2.16227 4.60377C2.19427 4.59727 2.22677 4.59402 2.25977 4.59402C7.19377 4.56902 11.5978 1.05077 11.6378 1.01577C11.7283 0.943267 11.8318 0.906517 11.9478 0.905767H12.0578C12.1758 0.905267 12.2808 0.942017 12.3728 1.01577C12.4128 1.05077 16.8168 4.56902 21.7508 4.59402C21.7838 4.59402 21.8163 4.59727 21.8483 4.60377C21.8805 4.61002 21.9118 4.61952 21.9423 4.63202C21.9725 4.64477 22.0013 4.66002 22.0285 4.67827C22.0558 4.69652 22.081 4.71727 22.1043 4.74052C22.1275 4.76377 22.1483 4.78902 22.1665 4.81627C22.1848 4.84352 22.2003 4.87227 22.2128 4.90252C22.2253 4.93302 22.2348 4.96427 22.2413 4.99627C22.2475 5.02852 22.2508 5.06102 22.2508 5.09377C22.2508 5.72352 22.0608 20.5363 12.2078 24.8543C12.142 24.8808 12.0738 24.894 12.0028 24.8943ZM2.77452 5.57852C2.89452 8.14727 3.89427 20.1115 12.0028 23.8448C20.1113 20.1115 21.111 8.14727 21.231 5.57852C16.8068 5.36377 13.0025 2.75502 12.0028 1.99527C11.003 2.75502 7.19877 5.36377 2.77452 5.57852Z" fill="url(#paint0_linear_1482_1071)"/>
</g>
<path d="M12.0029 21.6558C11.9331 21.6575 11.8666 21.6443 11.8029 21.6158C4.63939 18.4823 4.50439 7.74754 4.50439 7.29279C4.50439 7.26004 4.50764 7.22754 4.51389 7.19529C4.52039 7.16304 4.52989 7.13179 4.54239 7.10154C4.55489 7.07129 4.57039 7.04229 4.58864 7.01504C4.60689 6.98779 4.62764 6.96254 4.65089 6.93929C4.67389 6.91629 4.69914 6.89554 4.72664 6.87729C4.75389 6.85904 4.78264 6.84354 4.81289 6.83104C4.84339 6.81854 4.87464 6.80904 4.90664 6.80254C4.93889 6.79629 4.97139 6.79304 5.00414 6.79304C8.50364 6.79304 11.6229 4.29429 11.6529 4.25429C11.7449 4.18054 11.8499 4.14379 11.9679 4.14429H12.0479C12.1659 4.14379 12.2709 4.18054 12.3629 4.25429C12.3929 4.27929 15.5171 6.75304 19.0116 6.79304C19.0444 6.79304 19.0769 6.79629 19.1091 6.80254C19.1411 6.80904 19.1724 6.81854 19.2029 6.83104C19.2331 6.84354 19.2619 6.85904 19.2891 6.87729C19.3166 6.89554 19.3419 6.91629 19.3649 6.93929C19.3881 6.96254 19.4089 6.98779 19.4271 7.01504C19.4454 7.04229 19.4609 7.07129 19.4734 7.10154C19.4859 7.13179 19.4954 7.16304 19.5019 7.19529C19.5081 7.22754 19.5114 7.26004 19.5114 7.29279C19.5114 7.74754 19.3764 18.4823 12.2129 21.6158C12.1461 21.6458 12.0761 21.659 12.0029 21.6558ZM5.50414 7.77254C5.61914 9.84654 6.42389 17.9875 12.0029 20.6113C17.5769 17.9875 18.3716 9.84654 18.5016 7.77254C15.4571 7.57754 12.8526 5.85354 12.0029 5.23879C11.1681 5.85354 8.56364 7.57754 5.50414 7.77254Z" fill="url(#paint1_linear_1482_1071)"/>
<path d="M14.1474 12.4802H9.8584C9.8254 12.4802 9.7929 12.477 9.7609 12.4705C9.72865 12.4642 9.6974 12.4547 9.6669 12.4422C9.63665 12.4295 9.6079 12.4142 9.58065 12.396C9.5534 12.3777 9.52815 12.357 9.5049 12.3337C9.48165 12.3107 9.4609 12.2855 9.44265 12.258C9.4244 12.2307 9.40915 12.202 9.3964 12.1717C9.3839 12.1415 9.3744 12.1102 9.3679 12.078C9.36165 12.0457 9.3584 12.0132 9.3584 11.9805V10.981C9.35915 10.8962 9.36415 10.8117 9.37315 10.7275C9.3824 10.6432 9.3954 10.5595 9.41265 10.4765C9.4299 10.3935 9.45115 10.3115 9.4764 10.2307C9.50165 10.1497 9.5309 10.0702 9.5639 9.99222C9.5969 9.91422 9.63365 9.83772 9.6739 9.76347C9.7144 9.68897 9.7584 9.61647 9.8059 9.54622C9.8534 9.47622 9.9044 9.40847 9.9584 9.34322C10.0126 9.27797 10.0699 9.21547 10.1301 9.15597C10.1901 9.09622 10.2531 9.03972 10.3191 8.98622C10.3849 8.93272 10.4529 8.88247 10.5236 8.83572C10.5944 8.78897 10.6671 8.74572 10.7419 8.70597C10.8169 8.66622 10.8936 8.63022 10.9719 8.59797C11.0504 8.56572 11.1301 8.53747 11.2114 8.51297C11.2924 8.48847 11.3746 8.46797 11.4579 8.45147C11.5409 8.43522 11.6249 8.42272 11.7091 8.41447C11.7936 8.40622 11.8781 8.40222 11.9629 8.40222H12.0429C12.1281 8.40222 12.2134 8.40622 12.2981 8.41472C12.3831 8.42297 12.4674 8.43547 12.5509 8.45222C12.6346 8.46872 12.7174 8.48947 12.7989 8.51422C12.8806 8.53897 12.9609 8.56772 13.0396 8.60047C13.1184 8.63297 13.1954 8.66947 13.2706 8.70972C13.3459 8.74972 13.4189 8.79372 13.4899 8.84097C13.5609 8.88847 13.6291 8.93897 13.6951 8.99322C13.7611 9.04722 13.8241 9.10447 13.8846 9.16472C13.9449 9.22497 14.0021 9.28822 14.0561 9.35422C14.1104 9.41997 14.1611 9.48847 14.2084 9.55922C14.2559 9.63022 14.2996 9.70322 14.3399 9.77847C14.3801 9.85372 14.4164 9.93072 14.4491 10.0095C14.4816 10.0882 14.5104 10.1685 14.5351 10.25C14.5599 10.3317 14.5806 10.4142 14.5974 10.498C14.6139 10.5815 14.6264 10.6657 14.6349 10.7507C14.6431 10.8355 14.6474 10.9207 14.6474 11.006V12.0055C14.6459 12.0372 14.6411 12.0685 14.6336 12.0992C14.6261 12.1302 14.6156 12.1602 14.6024 12.189C14.5891 12.218 14.5731 12.2452 14.5546 12.2712C14.5361 12.297 14.5154 12.3207 14.4924 12.3427C14.4694 12.3647 14.4444 12.3842 14.4176 12.4012C14.3909 12.4185 14.3626 12.433 14.3331 12.4447C14.3036 12.4565 14.2731 12.4652 14.2421 12.4712C14.2109 12.4772 14.1794 12.4802 14.1474 12.4802ZM10.3581 11.4807H13.6476V10.981C13.6466 10.929 13.6434 10.877 13.6376 10.8252C13.6316 10.7737 13.6234 10.7225 13.6124 10.6715C13.6016 10.6207 13.5884 10.5705 13.5726 10.5207C13.5569 10.4712 13.5389 10.4225 13.5184 10.3747C13.4979 10.3267 13.4751 10.2802 13.4501 10.2345C13.4251 10.189 13.3979 10.1447 13.3686 10.1017C13.3391 10.0587 13.3079 10.0172 13.2744 9.97722C13.2411 9.93747 13.2059 9.89922 13.1689 9.86272C13.1316 9.82622 13.0929 9.79147 13.0526 9.75872C13.0121 9.72622 12.9701 9.69547 12.9266 9.66672C12.8831 9.63822 12.8386 9.61172 12.7924 9.58747C12.7464 9.56297 12.6994 9.54097 12.6511 9.52147C12.6031 9.50172 12.5541 9.48422 12.5041 9.46947C12.4544 9.45447 12.4039 9.44197 12.3529 9.43197C12.3019 9.42172 12.2504 9.41422 12.1986 9.40922C12.1469 9.40422 12.0949 9.40172 12.0429 9.40172H11.9629C11.9104 9.40172 11.8579 9.40422 11.8056 9.40947C11.7534 9.41447 11.7014 9.42222 11.6499 9.43247C11.5984 9.44272 11.5474 9.45547 11.4971 9.47072C11.4469 9.48597 11.3974 9.50372 11.3489 9.52372C11.3001 9.54397 11.2529 9.56622 11.2064 9.59122C11.1601 9.61597 11.1151 9.64297 11.0714 9.67197C11.0276 9.70122 10.9856 9.73247 10.9449 9.76572C10.9044 9.79922 10.8654 9.83447 10.8281 9.87147C10.7911 9.90872 10.7559 9.94747 10.7224 9.98822C10.6891 10.0287 10.6579 10.071 10.6286 10.1147C10.5994 10.1582 10.5724 10.2032 10.5476 10.2497C10.5229 10.296 10.5004 10.3435 10.4804 10.392C10.4601 10.4405 10.4426 10.49 10.4274 10.5402C10.4121 10.5905 10.3994 10.6415 10.3891 10.693C10.3789 10.7445 10.3711 10.7965 10.3659 10.8487C10.3609 10.901 10.3581 10.9535 10.3581 11.006V11.4807Z" fill="url(#paint2_linear_1482_1071)"/>
<path d="M14.6825 16.6133H9.32349C9.29074 16.6133 9.25824 16.6101 9.22599 16.6036C9.19374 16.5973 9.16249 16.5878 9.13224 16.5753C9.10199 16.5626 9.07299 16.5473 9.04574 16.5291C9.01849 16.5108 8.99324 16.4901 8.96999 16.4668C8.94674 16.4436 8.92599 16.4183 8.90774 16.3911C8.88974 16.3638 8.87424 16.3351 8.86174 16.3048C8.84899 16.2743 8.83974 16.2431 8.83324 16.2111C8.82674 16.1788 8.82349 16.1463 8.82349 16.1136V11.9806C8.82349 11.9478 8.82674 11.9153 8.83324 11.8831C8.83974 11.8508 8.84899 11.8196 8.86174 11.7893C8.87424 11.7591 8.88974 11.7301 8.90774 11.7028C8.92599 11.6756 8.94674 11.6503 8.96999 11.6271C8.99324 11.6038 9.01849 11.5833 9.04574 11.5651C9.07299 11.5468 9.10199 11.5313 9.13224 11.5188C9.16249 11.5063 9.19374 11.4968 9.22599 11.4903C9.25824 11.4841 9.29074 11.4808 9.32349 11.4808H14.6825C14.7152 11.4808 14.7477 11.4841 14.78 11.4903C14.8122 11.4968 14.8435 11.5063 14.8737 11.5188C14.904 11.5313 14.933 11.5468 14.9602 11.5651C14.9875 11.5833 15.0127 11.6038 15.036 11.6271C15.0592 11.6503 15.08 11.6756 15.0982 11.7028C15.1162 11.7301 15.1317 11.7591 15.1442 11.7893C15.157 11.8196 15.1662 11.8508 15.1727 11.8831C15.1792 11.9153 15.1825 11.9478 15.1825 11.9806V16.1136C15.1825 16.1463 15.1792 16.1788 15.1727 16.2111C15.1662 16.2431 15.157 16.2743 15.1442 16.3048C15.1317 16.3351 15.1162 16.3638 15.0982 16.3911C15.08 16.4183 15.0592 16.4436 15.036 16.4668C15.0127 16.4901 14.9875 16.5108 14.9602 16.5291C14.933 16.5473 14.904 16.5626 14.8737 16.5753C14.8435 16.5878 14.8122 16.5973 14.78 16.6036C14.7477 16.6101 14.7152 16.6133 14.6825 16.6133ZM9.82349 15.6138H14.1825V12.4803H9.82349V15.6138Z" fill="url(#paint3_linear_1482_1071)"/>
</g>
<defs>
<linearGradient id="paint0_linear_1482_1071" x1="21.6396" y1="52.4724" x2="-5.38061" y2="47.7528" gradientUnits="userSpaceOnUse">
<stop stop-color="#75DCFF"/>
<stop offset="0.178138" stop-color="#2653EA"/>
<stop offset="1" stop-color="#FF6EEE"/>
</linearGradient>
<linearGradient id="paint1_linear_1482_1071" x1="19.0638" y1="41.7887" x2="-0.721223" y2="38.3218" gradientUnits="userSpaceOnUse">
<stop stop-color="#75DCFF"/>
<stop offset="0.178138" stop-color="#2653EA"/>
<stop offset="1" stop-color="#FF6EEE"/>
</linearGradient>
<linearGradient id="paint2_linear_1482_1071" x1="14.4897" y1="17.1685" x2="7.77487" y2="15.3877" gradientUnits="userSpaceOnUse">
<stop stop-color="#75DCFF"/>
<stop offset="0.178138" stop-color="#2653EA"/>
<stop offset="1" stop-color="#FF6EEE"/>
</linearGradient>
<linearGradient id="paint3_linear_1482_1071" x1="14.9928" y1="22.5139" x2="6.87295" y2="20.4567" gradientUnits="userSpaceOnUse">
<stop stop-color="#75DCFF"/>
<stop offset="0.178138" stop-color="#2653EA"/>
<stop offset="1" stop-color="#FF6EEE"/>
</linearGradient>
<clipPath id="clip0_1482_1071">
<rect width="24" height="24" fill="white" transform="translate(0 0.900024)"/>
</clipPath>
</defs>
</svg>
