<svg width="24" height="24" viewBox="0 0 24 24" fill="none" xmlns="http://www.w3.org/2000/svg">
<g clip-path="url(#clip0_1927_7370)">
<mask id="mask0_1927_7370" style="mask-type:luminance" maskUnits="userSpaceOnUse" x="0" y="0" width="24" height="24">
<path d="M0.930176 0.0644531H23.0582V23.9365H0.930176V0.0644531Z" fill="white"/>
</mask>
<g mask="url(#mask0_1927_7370)">
<path d="M0.930176 23.6088C0.930176 23.7666 1.06168 23.8981 1.21918 23.8981H22.7692C22.9267 23.8981 23.0582 23.7666 23.0582 23.6088C23.0582 23.4511 22.9267 23.3196 22.7692 23.3196H21.4552V9.75156C21.4552 9.59381 21.3237 9.46231 21.1659 9.46231H20.0359V3.51981C20.0359 3.36206 19.9044 3.23056 19.7469 3.23056H11.4687V0.390813C11.4687 0.233062 11.3372 0.101562 11.1794 0.101562H3.03268C2.87493 0.101562 2.74343 0.233062 2.74343 0.390813L2.71718 23.3196H1.24543C1.06168 23.2933 0.930176 23.4511 0.930176 23.6088ZM10.8642 23.2933H3.29543L3.32168 0.680063H10.8642V23.2933ZM19.4577 9.43606H13.0192C12.8614 9.43606 12.7299 9.56756 12.7299 9.72531L12.7037 23.2933H11.4687V3.83531H19.4577V9.43606ZM20.8769 23.2933H13.2819L13.3082 10.0408H20.8507V23.2933H20.8769Z" fill="url(#paint0_linear_1927_7370)"/>
</g>
<path d="M15.8833 5.4123V8.2258C15.8833 8.38355 16.0148 8.51505 16.1723 8.51505H17.9331C18.0908 8.51505 18.2223 8.38355 18.2223 8.2258V5.4123C18.2223 5.25455 18.0908 5.12305 17.9331 5.12305H16.1723C16.0148 5.12305 15.8833 5.25455 15.8833 5.4123ZM16.4878 5.7278H17.6441V7.93655H16.4878V5.7278Z" fill="url(#paint1_linear_1927_7370)"/>
<path d="M14.2803 12.1188V14.906C14.2803 15.0638 14.4115 15.1953 14.5693 15.1953H16.225C16.3825 15.1953 16.514 15.0638 16.514 14.906V12.1188C16.514 11.961 16.3825 11.8295 16.225 11.8295H14.5693C14.4115 11.8033 14.2803 11.9348 14.2803 12.1188ZM14.8845 12.408H15.9358V14.6168H14.8845V12.408Z" fill="url(#paint2_linear_1927_7370)"/>
<path d="M14.2803 16.8512V19.6384C14.2803 19.7962 14.4115 19.9277 14.5693 19.9277H16.225C16.3825 19.9277 16.514 19.7962 16.514 19.6384V16.8512C16.514 16.6934 16.3825 16.5619 16.225 16.5619H14.5693C14.4115 16.5357 14.2803 16.6672 14.2803 16.8512ZM14.8845 17.1404H15.9358V19.3492H14.8845V17.1404Z" fill="url(#paint3_linear_1927_7370)"/>
<path d="M17.5127 12.1188V14.906C17.5127 15.0638 17.6442 15.1953 17.8019 15.1953H19.4574C19.6152 15.1953 19.7467 15.0638 19.7467 14.906V12.1188C19.7467 11.961 19.6152 11.8295 19.4574 11.8295H17.8019C17.6442 11.8033 17.5127 11.9348 17.5127 12.1188ZM18.1172 12.408H19.1684V14.6168H18.1172V12.408Z" fill="url(#paint4_linear_1927_7370)"/>
<path d="M17.5127 16.8512V19.6384C17.5127 19.7962 17.6442 19.9277 17.8019 19.9277H19.4574C19.6152 19.9277 19.7467 19.7962 19.7467 19.6384V16.8512C19.7467 16.6934 19.6152 16.5619 19.4574 16.5619H17.8019C17.6442 16.5357 17.5127 16.6672 17.5127 16.8512ZM18.1172 17.1404H19.1684V19.3492H18.1172V17.1404Z" fill="url(#paint5_linear_1927_7370)"/>
<path d="M6.68566 14.9046V12.1174C6.68566 11.9596 6.55416 11.8281 6.39641 11.8281H4.74091C4.58316 11.8281 4.45166 11.9596 4.45166 12.1174V14.9046C4.45166 15.0624 4.58316 15.1939 4.74091 15.1939H6.39641C6.55416 15.2201 6.68566 15.0886 6.68566 14.9046ZM6.08116 14.6154H5.02991V12.4066H6.08116V14.6154Z" fill="url(#paint6_linear_1927_7370)"/>
<path d="M6.68566 19.639V16.8518C6.68566 16.694 6.55416 16.5625 6.39641 16.5625H4.74091C4.58316 16.5625 4.45166 16.694 4.45166 16.8518V19.639C4.45166 19.7968 4.58316 19.9283 4.74091 19.9283H6.39641C6.55416 19.9545 6.68566 19.823 6.68566 19.639ZM6.08116 19.3498H5.02991V17.141H6.08116V19.3498Z" fill="url(#paint7_linear_1927_7370)"/>
<path d="M9.91783 14.9046V12.1174C9.91783 11.9596 9.78658 11.8281 9.62883 11.8281H7.97308C7.81558 11.8281 7.68408 11.9596 7.68408 12.1174V14.9046C7.68408 15.0624 7.81558 15.1939 7.97308 15.1939H9.62883C9.78658 15.2201 9.91783 15.0886 9.91783 14.9046ZM9.31358 14.6154H8.26233V12.4066H9.31358V14.6154Z" fill="url(#paint8_linear_1927_7370)"/>
<path d="M9.91783 19.639V16.8518C9.91783 16.694 9.78658 16.5625 9.62883 16.5625H7.97308C7.81558 16.5625 7.68408 16.694 7.68408 16.8518V19.639C7.68408 19.7968 7.81558 19.9283 7.97308 19.9283H9.62883C9.78658 19.9545 9.91783 19.823 9.91783 19.639ZM9.31358 19.3498H8.26233V17.141H9.31358V19.3498Z" fill="url(#paint9_linear_1927_7370)"/>
<path d="M6.68566 5.01877V2.20527C6.68566 2.04752 6.55416 1.91602 6.39641 1.91602H4.74091C4.58316 1.91602 4.45166 2.04752 4.45166 2.20527V5.01877C4.45166 5.17652 4.58316 5.30802 4.74091 5.30802H6.39641C6.55416 5.30802 6.68566 5.17652 6.68566 5.01877ZM6.08116 4.70327H5.02991V2.49452H6.08116V4.70327Z" fill="url(#paint10_linear_1927_7370)"/>
<path d="M6.68566 9.75119V6.93769C6.68566 6.77994 6.55416 6.64844 6.39641 6.64844H4.74091C4.58316 6.64844 4.45166 6.77994 4.45166 6.93769V9.75119C4.45166 9.90894 4.58316 10.0404 4.74091 10.0404H6.39641C6.55416 10.0404 6.68566 9.90894 6.68566 9.75119ZM6.08116 9.43569H5.02991V7.22694H6.08116V9.43569Z" fill="url(#paint11_linear_1927_7370)"/>
<path d="M9.91783 5.01877V2.20527C9.91783 2.04752 9.78658 1.91602 9.62883 1.91602H7.97308C7.81558 1.91602 7.68408 2.04752 7.68408 2.20527V5.01877C7.68408 5.17652 7.81558 5.30802 7.97308 5.30802H9.62883C9.78658 5.30802 9.91783 5.17652 9.91783 5.01877ZM9.31358 4.70327H8.26233V2.49452H9.31358V4.70327Z" fill="url(#paint12_linear_1927_7370)"/>
<path d="M9.91783 9.75119V6.93769C9.91783 6.77994 9.78658 6.64844 9.62883 6.64844H7.97308C7.81558 6.64844 7.68408 6.77994 7.68408 6.93769V9.75119C7.68408 9.90894 7.81558 10.0404 7.97308 10.0404H9.62883C9.78658 10.0404 9.91783 9.90894 9.91783 9.75119ZM9.31358 9.43569H8.26233V7.22694H9.31358V9.43569Z" fill="url(#paint13_linear_1927_7370)"/>
<path d="M13.0717 8.51505H14.8325C14.9902 8.51505 15.1215 8.38355 15.1215 8.2258V5.4123C15.1215 5.25455 14.9902 5.12305 14.8325 5.12305H13.0717C12.914 5.12305 12.7827 5.25455 12.7827 5.4123V8.2258C12.7827 8.38355 12.914 8.51505 13.0717 8.51505ZM13.387 5.7278H14.5435V7.93655H13.387V5.7278Z" fill="url(#paint14_linear_1927_7370)"/>
</g>
<defs>
<linearGradient id="paint0_linear_1927_7370" x1="0.930176" y1="11.9998" x2="23.0582" y2="11.9998" gradientUnits="userSpaceOnUse">
<stop stop-color="#FFA4F5"/>
<stop offset="1" stop-color="#75DCFF"/>
<stop offset="1" stop-color="#B6EAFF"/>
</linearGradient>
<linearGradient id="paint1_linear_1927_7370" x1="15.8833" y1="6.81905" x2="18.2223" y2="6.81905" gradientUnits="userSpaceOnUse">
<stop stop-color="#FFA4F5"/>
<stop offset="1" stop-color="#75DCFF"/>
<stop offset="1" stop-color="#B6EAFF"/>
</linearGradient>
<linearGradient id="paint2_linear_1927_7370" x1="14.2803" y1="13.5107" x2="16.514" y2="13.5107" gradientUnits="userSpaceOnUse">
<stop stop-color="#FFA4F5"/>
<stop offset="1" stop-color="#75DCFF"/>
<stop offset="1" stop-color="#B6EAFF"/>
</linearGradient>
<linearGradient id="paint3_linear_1927_7370" x1="14.2803" y1="18.2431" x2="16.514" y2="18.2431" gradientUnits="userSpaceOnUse">
<stop stop-color="#FFA4F5"/>
<stop offset="1" stop-color="#75DCFF"/>
<stop offset="1" stop-color="#B6EAFF"/>
</linearGradient>
<linearGradient id="paint4_linear_1927_7370" x1="17.5127" y1="13.5107" x2="19.7467" y2="13.5107" gradientUnits="userSpaceOnUse">
<stop stop-color="#FFA4F5"/>
<stop offset="1" stop-color="#75DCFF"/>
<stop offset="1" stop-color="#B6EAFF"/>
</linearGradient>
<linearGradient id="paint5_linear_1927_7370" x1="17.5127" y1="18.2431" x2="19.7467" y2="18.2431" gradientUnits="userSpaceOnUse">
<stop stop-color="#FFA4F5"/>
<stop offset="1" stop-color="#75DCFF"/>
<stop offset="1" stop-color="#B6EAFF"/>
</linearGradient>
<linearGradient id="paint6_linear_1927_7370" x1="4.45166" y1="13.5127" x2="6.68566" y2="13.5127" gradientUnits="userSpaceOnUse">
<stop stop-color="#FFA4F5"/>
<stop offset="1" stop-color="#75DCFF"/>
<stop offset="1" stop-color="#B6EAFF"/>
</linearGradient>
<linearGradient id="paint7_linear_1927_7370" x1="4.45166" y1="18.247" x2="6.68566" y2="18.247" gradientUnits="userSpaceOnUse">
<stop stop-color="#FFA4F5"/>
<stop offset="1" stop-color="#75DCFF"/>
<stop offset="1" stop-color="#B6EAFF"/>
</linearGradient>
<linearGradient id="paint8_linear_1927_7370" x1="7.68408" y1="13.5127" x2="9.91783" y2="13.5127" gradientUnits="userSpaceOnUse">
<stop stop-color="#FFA4F5"/>
<stop offset="1" stop-color="#75DCFF"/>
<stop offset="1" stop-color="#B6EAFF"/>
</linearGradient>
<linearGradient id="paint9_linear_1927_7370" x1="7.68408" y1="18.247" x2="9.91783" y2="18.247" gradientUnits="userSpaceOnUse">
<stop stop-color="#FFA4F5"/>
<stop offset="1" stop-color="#75DCFF"/>
<stop offset="1" stop-color="#B6EAFF"/>
</linearGradient>
<linearGradient id="paint10_linear_1927_7370" x1="4.45166" y1="3.61202" x2="6.68566" y2="3.61202" gradientUnits="userSpaceOnUse">
<stop stop-color="#FFA4F5"/>
<stop offset="1" stop-color="#75DCFF"/>
<stop offset="1" stop-color="#B6EAFF"/>
</linearGradient>
<linearGradient id="paint11_linear_1927_7370" x1="4.45166" y1="8.34444" x2="6.68566" y2="8.34444" gradientUnits="userSpaceOnUse">
<stop stop-color="#FFA4F5"/>
<stop offset="1" stop-color="#75DCFF"/>
<stop offset="1" stop-color="#B6EAFF"/>
</linearGradient>
<linearGradient id="paint12_linear_1927_7370" x1="7.68408" y1="3.61202" x2="9.91783" y2="3.61202" gradientUnits="userSpaceOnUse">
<stop stop-color="#FFA4F5"/>
<stop offset="1" stop-color="#75DCFF"/>
<stop offset="1" stop-color="#B6EAFF"/>
</linearGradient>
<linearGradient id="paint13_linear_1927_7370" x1="7.68408" y1="8.34444" x2="9.91783" y2="8.34444" gradientUnits="userSpaceOnUse">
<stop stop-color="#FFA4F5"/>
<stop offset="1" stop-color="#75DCFF"/>
<stop offset="1" stop-color="#B6EAFF"/>
</linearGradient>
<linearGradient id="paint14_linear_1927_7370" x1="12.7827" y1="6.81905" x2="15.1215" y2="6.81905" gradientUnits="userSpaceOnUse">
<stop stop-color="#FFA4F5"/>
<stop offset="1" stop-color="#75DCFF"/>
<stop offset="1" stop-color="#B6EAFF"/>
</linearGradient>
<clipPath id="clip0_1927_7370">
<rect width="24" height="24" fill="white"/>
</clipPath>
</defs>
</svg>
