<svg width="24" height="24" viewBox="0 0 24 24" fill="none" xmlns="http://www.w3.org/2000/svg">
<g clip-path="url(#clip0_1927_7367)">
<mask id="mask0_1927_7367" style="mask-type:luminance" maskUnits="userSpaceOnUse" x="0" y="2" width="24" height="20">
<path d="M0 2.40039H24V21.6004H0V2.40039Z" fill="white"/>
</mask>
<g mask="url(#mask0_1927_7367)">
<path d="M23.6 2.40039H13.2C13.1738 2.40039 13.1478 2.40289 13.122 2.40814C13.0963 2.41314 13.0713 2.42089 13.047 2.43089C13.0228 2.44089 12.9995 2.45314 12.9778 2.46789C12.956 2.48239 12.9358 2.49889 12.9173 2.51764C12.8985 2.53614 12.882 2.55639 12.8675 2.57814C12.8528 2.59989 12.8405 2.62314 12.8305 2.64739C12.8205 2.67164 12.8128 2.69664 12.8078 2.72239C12.8025 2.74814 12.8 2.77414 12.8 2.80039V12.8004H4V8.80039H5.2C5.2305 8.80039 5.2605 8.79689 5.29 8.79014C5.31975 8.78339 5.348 8.77314 5.3755 8.75989C5.40275 8.74664 5.42825 8.73039 5.45175 8.71114C5.4755 8.69189 5.49675 8.67039 5.51525 8.64639C5.534 8.62239 5.54975 8.59664 5.56275 8.56914C5.5755 8.54164 5.585 8.51289 5.59125 8.48314C5.5975 8.45339 5.6005 8.42339 5.6 8.39314C5.59925 8.36264 5.5955 8.33264 5.588 8.30314L4.9395 5.70914C4.9235 5.64464 4.90225 5.58214 4.8755 5.52114C4.849 5.46014 4.81775 5.40189 4.7815 5.34614C4.74525 5.29039 4.70475 5.23814 4.65975 5.18914C4.61475 5.14014 4.56625 5.09539 4.51375 5.05439C4.4615 5.01364 4.406 4.97714 4.3475 4.94564C4.28925 4.91389 4.2285 4.88714 4.16575 4.86564C4.103 4.84414 4.03875 4.82764 3.97325 4.81689C3.90775 4.80589 3.84175 4.80039 3.77525 4.80039H3.42475C3.35825 4.80039 3.29225 4.80589 3.22675 4.81689C3.16125 4.82764 3.097 4.84414 3.03425 4.86564C2.9715 4.88714 2.91075 4.91389 2.8525 4.94564C2.794 4.97714 2.7385 5.01364 2.68625 5.05439C2.63375 5.09539 2.58525 5.14014 2.54025 5.18914C2.49525 5.23814 2.45475 5.29039 2.4185 5.34614C2.38225 5.40189 2.351 5.46014 2.3245 5.52114C2.29775 5.58214 2.2765 5.64464 2.2605 5.70914L1.612 8.30314C1.6045 8.33264 1.60075 8.36264 1.6 8.39314C1.5995 8.42339 1.6025 8.45339 1.60875 8.48314C1.615 8.51289 1.6245 8.54164 1.63725 8.56914C1.65025 8.59664 1.666 8.62239 1.68475 8.64639C1.70325 8.67039 1.7245 8.69189 1.74825 8.71114C1.77175 8.73039 1.79725 8.74664 1.8245 8.75989C1.852 8.77314 1.88025 8.78339 1.91 8.79014C1.9395 8.79689 1.9695 8.80039 2 8.80039H3.2V12.8004H2.8C2.76075 12.8004 2.7215 12.8024 2.6825 12.8061C2.64325 12.8101 2.6045 12.8159 2.566 12.8234C2.52725 12.8311 2.48925 12.8406 2.45175 12.8521C2.414 12.8634 2.377 12.8766 2.34075 12.8916C2.3045 12.9069 2.269 12.9236 2.23425 12.9421C2.19975 12.9606 2.166 12.9809 2.13325 13.0026C2.10075 13.0244 2.069 13.0479 2.03875 13.0729C2.00825 13.0976 1.97925 13.1241 1.9515 13.1519C1.92375 13.1796 1.89725 13.2086 1.8725 13.2391C1.8475 13.2694 1.824 13.3011 1.80225 13.3336C1.7805 13.3664 1.76025 13.4001 1.74175 13.4346C1.72325 13.4694 1.7065 13.5049 1.69125 13.5411C1.67625 13.5774 1.663 13.6144 1.65175 13.6521C1.64025 13.6896 1.63075 13.7276 1.623 13.7664C1.6155 13.8049 1.60975 13.8436 1.60575 13.8829C1.602 13.9219 1.6 13.9611 1.6 14.0004V16.0004H1.2C1.16075 16.0004 1.1215 16.0024 1.0825 16.0061C1.04325 16.0101 1.0045 16.0159 0.966 16.0234C0.92725 16.0311 0.88925 16.0406 0.85175 16.0521C0.814 16.0634 0.777 16.0766 0.74075 16.0916C0.7045 16.1069 0.669 16.1236 0.63425 16.1421C0.59975 16.1606 0.566 16.1809 0.53325 16.2026C0.50075 16.2244 0.469 16.2479 0.43875 16.2729C0.40825 16.2976 0.37925 16.3241 0.3515 16.3519C0.32375 16.3796 0.29725 16.4086 0.2725 16.4391C0.2475 16.4694 0.224 16.5011 0.20225 16.5336C0.1805 16.5664 0.16025 16.6001 0.14175 16.6346C0.12325 16.6694 0.1065 16.7049 0.09125 16.7411C0.07625 16.7774 0.063 16.8144 0.05175 16.8521C0.04025 16.8896 0.03075 16.9276 0.023 16.9664C0.0155 17.0049 0.00975002 17.0436 0.00575 17.0829C0.002 17.1219 0 17.1611 0 17.2004V21.2004C0 21.2266 0.0025 21.2526 0.00775002 21.2784C0.01275 21.3041 0.0205 21.3291 0.0305 21.3534C0.0405 21.3776 0.05275 21.4009 0.0675 21.4226C0.082 21.4444 0.0985 21.4646 0.11725 21.4831C0.13575 21.5019 0.156 21.5184 0.17775 21.5329C0.1995 21.5476 0.22275 21.5599 0.247 21.5699C0.27125 21.5799 0.29625 21.5876 0.322 21.5926C0.34775 21.5979 0.37375 21.6004 0.4 21.6004H2.8C2.82625 21.6004 2.85225 21.5979 2.878 21.5926C2.90375 21.5876 2.92875 21.5799 2.953 21.5699C2.97725 21.5599 3.0005 21.5476 3.02225 21.5329C3.044 21.5184 3.06425 21.5019 3.08275 21.4831C3.1015 21.4646 3.118 21.4444 3.1325 21.4226C3.14725 21.4009 3.1595 21.3776 3.1695 21.3534C3.1795 21.3291 3.18725 21.3041 3.19225 21.2784C3.1975 21.2526 3.2 21.2266 3.2 21.2004V20.8004H12.8V21.2004C12.8 21.2266 12.8025 21.2526 12.8078 21.2784C12.8128 21.3041 12.8205 21.3291 12.8305 21.3534C12.8405 21.3776 12.8528 21.4009 12.8675 21.4226C12.882 21.4444 12.8985 21.4646 12.9173 21.4831C12.9358 21.5019 12.956 21.5184 12.9778 21.5329C12.9995 21.5476 13.0228 21.5599 13.047 21.5699C13.0713 21.5799 13.0963 21.5876 13.122 21.5926C13.1478 21.5979 13.1738 21.6004 13.2 21.6004H23.6C23.6263 21.6004 23.6523 21.5979 23.678 21.5926C23.7038 21.5876 23.7288 21.5799 23.753 21.5699C23.7773 21.5599 23.8005 21.5476 23.8223 21.5329C23.844 21.5184 23.8643 21.5019 23.8828 21.4831C23.9015 21.4646 23.918 21.4444 23.9325 21.4226C23.9473 21.4009 23.9595 21.3776 23.9695 21.3534C23.9795 21.3291 23.9873 21.3041 23.9923 21.2784C23.9975 21.2526 24 21.2266 24 21.2004V2.80039C24 2.77414 23.9975 2.74814 23.9923 2.72239C23.9873 2.69664 23.9795 2.67164 23.9695 2.64739C23.9595 2.62314 23.9473 2.59989 23.9325 2.57814C23.918 2.55639 23.9015 2.53614 23.8828 2.51764C23.8643 2.49889 23.844 2.48239 23.8223 2.46789C23.8005 2.45314 23.7773 2.44089 23.753 2.43089C23.7288 2.42089 23.7038 2.41314 23.678 2.40814C23.6523 2.40289 23.6263 2.40039 23.6 2.40039ZM3.0365 5.90364C3.04725 5.86039 3.06475 5.81989 3.089 5.78239C3.1135 5.74489 3.14325 5.71264 3.17825 5.68514C3.2135 5.65764 3.25225 5.63664 3.2945 5.62214C3.33675 5.60764 3.38025 5.60039 3.42475 5.60039H3.77525C3.81975 5.60039 3.86325 5.60764 3.9055 5.62214C3.94775 5.63664 3.9865 5.65764 4.02175 5.68514C4.05675 5.71264 4.0865 5.74514 4.111 5.78239C4.13525 5.81989 4.15275 5.86039 4.1635 5.90364L4.688 8.00039H2.512L3.0365 5.90364ZM23.2 3.20039V16.8004H18.8V3.20039H23.2ZM18 3.20039V20.8004H16V17.2004C16 17.1611 15.998 17.1219 15.9943 17.0829C15.9903 17.0436 15.9845 17.0049 15.977 16.9664C15.9693 16.9276 15.9598 16.8896 15.9483 16.8521C15.937 16.8144 15.9238 16.7774 15.9088 16.7411C15.8935 16.7049 15.8768 16.6694 15.8583 16.6346C15.8398 16.6001 15.8195 16.5664 15.7978 16.5336C15.776 16.5011 15.7525 16.4694 15.7275 16.4391C15.7028 16.4086 15.6763 16.3796 15.6485 16.3519C15.6208 16.3241 15.5918 16.2976 15.5613 16.2729C15.531 16.2479 15.4993 16.2244 15.4668 16.2026C15.434 16.1809 15.4003 16.1606 15.3658 16.1421C15.331 16.1236 15.2955 16.1069 15.2593 16.0916C15.223 16.0766 15.186 16.0634 15.1483 16.0521C15.1108 16.0406 15.0728 16.0311 15.034 16.0234C14.9955 16.0159 14.9568 16.0101 14.9175 16.0061C14.8785 16.0024 14.8393 16.0004 14.8 16.0004H14.4V14.0004C14.3998 13.9389 14.3948 13.8779 14.3853 13.8171C14.3755 13.7564 14.3613 13.6969 14.3425 13.6384C14.3238 13.5799 14.3005 13.5231 14.273 13.4681C14.2455 13.4131 14.214 13.3606 14.1783 13.3104C14.1428 13.2604 14.1035 13.2134 14.0608 13.1691C14.018 13.1251 13.972 13.0846 13.923 13.0476C13.8738 13.0106 13.8223 12.9774 13.7683 12.9484C13.714 12.9194 13.658 12.8944 13.6 12.8739V3.20039H18ZM12.8 17.2004V17.6004H8.4V13.6004H13.2C13.2263 13.6004 13.2523 13.6029 13.278 13.6081C13.3038 13.6131 13.3288 13.6209 13.353 13.6309C13.3773 13.6409 13.4005 13.6531 13.4223 13.6679C13.444 13.6824 13.4643 13.6989 13.4828 13.7176C13.5015 13.7361 13.518 13.7564 13.5325 13.7781C13.5473 13.7999 13.5595 13.8231 13.5695 13.8474C13.5795 13.8716 13.5873 13.8966 13.5923 13.9224C13.5975 13.9481 13.6 13.9741 13.6 14.0004V16.0739C13.542 16.0944 13.486 16.1194 13.4318 16.1484C13.3778 16.1774 13.3263 16.2106 13.277 16.2476C13.228 16.2846 13.182 16.3251 13.1393 16.3691C13.0965 16.4134 13.0573 16.4604 13.0218 16.5104C12.986 16.5606 12.9545 16.6131 12.927 16.6681C12.8995 16.7231 12.8763 16.7799 12.8575 16.8384C12.8388 16.8969 12.8245 16.9564 12.8148 17.0171C12.8053 17.0779 12.8003 17.1389 12.8 17.2004ZM2.8 13.6004H7.6V17.6004H3.2V17.2004C3.19975 17.1389 3.19475 17.0779 3.18525 17.0171C3.1755 16.9564 3.16125 16.8969 3.1425 16.8384C3.12375 16.7799 3.1005 16.7231 3.073 16.6681C3.0455 16.6131 3.014 16.5606 2.97825 16.5104C2.94275 16.4604 2.9035 16.4134 2.86075 16.3691C2.818 16.3251 2.772 16.2846 2.723 16.2476C2.67375 16.2106 2.62225 16.1774 2.56825 16.1484C2.514 16.1194 2.458 16.0944 2.4 16.0739V14.0004C2.4 13.9741 2.4025 13.9481 2.40775 13.9224C2.41275 13.8966 2.4205 13.8716 2.4305 13.8474C2.4405 13.8231 2.45275 13.7999 2.4675 13.7781C2.482 13.7564 2.4985 13.7361 2.51725 13.7176C2.53575 13.6989 2.556 13.6824 2.57775 13.6679C2.5995 13.6531 2.62275 13.6409 2.647 13.6309C2.67125 13.6209 2.69625 13.6131 2.722 13.6081C2.74775 13.6029 2.77375 13.6004 2.8 13.6004ZM2.4 20.8004H0.8V17.2004C0.8 17.1741 0.8025 17.1481 0.80775 17.1224C0.81275 17.0966 0.8205 17.0716 0.8305 17.0474C0.8405 17.0231 0.85275 16.9999 0.8675 16.9781C0.882 16.9564 0.8985 16.9361 0.91725 16.9176C0.93575 16.8989 0.956 16.8824 0.97775 16.8679C0.9995 16.8531 1.02275 16.8409 1.047 16.8309C1.07125 16.8209 1.09625 16.8131 1.122 16.8081C1.14775 16.8029 1.17375 16.8004 1.2 16.8004H2C2.02625 16.8004 2.05225 16.8029 2.078 16.8081C2.10375 16.8131 2.12875 16.8209 2.153 16.8309C2.17725 16.8409 2.2005 16.8531 2.22225 16.8679C2.244 16.8824 2.26425 16.8989 2.28275 16.9176C2.3015 16.9361 2.318 16.9564 2.3325 16.9781C2.34725 16.9999 2.3595 17.0231 2.3695 17.0474C2.3795 17.0716 2.38725 17.0966 2.39225 17.1224C2.3975 17.1481 2.4 17.1741 2.4 17.2004V20.8004ZM3.2 20.0004V18.4004H12.8V20.0004H3.2ZM13.6 20.8004V17.2004C13.6 17.1741 13.6025 17.1481 13.6078 17.1224C13.6128 17.0966 13.6205 17.0716 13.6305 17.0474C13.6405 17.0231 13.6528 16.9999 13.6675 16.9781C13.682 16.9564 13.6985 16.9361 13.7173 16.9176C13.7358 16.8989 13.756 16.8824 13.7778 16.8679C13.7995 16.8531 13.8228 16.8409 13.847 16.8309C13.8713 16.8209 13.8963 16.8131 13.922 16.8081C13.9478 16.8029 13.9738 16.8004 14 16.8004H14.8C14.8263 16.8004 14.8523 16.8029 14.878 16.8081C14.9038 16.8131 14.9288 16.8209 14.953 16.8309C14.9773 16.8409 15.0005 16.8531 15.0223 16.8679C15.044 16.8824 15.0643 16.8989 15.0828 16.9176C15.1015 16.9361 15.118 16.9564 15.1325 16.9781C15.1473 16.9999 15.1595 17.0231 15.1695 17.0474C15.1795 17.0716 15.1873 17.0966 15.1923 17.1224C15.1975 17.1481 15.2 17.1741 15.2 17.2004V20.8004H13.6ZM23.2 20.8004H18.8V17.6004H23.2V20.8004Z" fill="url(#paint0_linear_1927_7367)"/>
</g>
<path d="M20.0001 12.0004C20.0263 12.0004 20.0523 11.9979 20.0781 11.9926C20.1038 11.9876 20.1288 11.9799 20.1531 11.9699C20.1773 11.9599 20.2006 11.9476 20.2223 11.9329C20.2441 11.9184 20.2643 11.9019 20.2828 11.8831C20.3016 11.8646 20.3181 11.8444 20.3326 11.8226C20.3473 11.8009 20.3596 11.7776 20.3696 11.7534C20.3796 11.7291 20.3873 11.7041 20.3923 11.6784C20.3976 11.6526 20.4001 11.6266 20.4001 11.6004V10.8004C20.4001 10.7741 20.3976 10.7481 20.3923 10.7224C20.3873 10.6966 20.3796 10.6716 20.3696 10.6474C20.3596 10.6231 20.3473 10.5999 20.3326 10.5781C20.3181 10.5564 20.3016 10.5361 20.2828 10.5176C20.2643 10.4989 20.2441 10.4824 20.2223 10.4679C20.2006 10.4531 20.1773 10.4409 20.1531 10.4309C20.1288 10.4209 20.1038 10.4131 20.0781 10.4081C20.0523 10.4029 20.0263 10.4004 20.0001 10.4004C19.9738 10.4004 19.9478 10.4029 19.9221 10.4081C19.8963 10.4131 19.8713 10.4209 19.8471 10.4309C19.8228 10.4409 19.7996 10.4531 19.7778 10.4679C19.7561 10.4824 19.7358 10.4989 19.7173 10.5176C19.6986 10.5361 19.6821 10.5564 19.6676 10.5781C19.6528 10.5999 19.6406 10.6231 19.6306 10.6474C19.6206 10.6716 19.6128 10.6966 19.6078 10.7224C19.6026 10.7481 19.6001 10.7741 19.6001 10.8004V11.6004C19.6001 11.6266 19.6026 11.6526 19.6078 11.6784C19.6128 11.7041 19.6206 11.7291 19.6306 11.7534C19.6406 11.7776 19.6528 11.8009 19.6676 11.8226C19.6821 11.8444 19.6986 11.8646 19.7173 11.8831C19.7358 11.9019 19.7561 11.9184 19.7778 11.9329C19.7996 11.9476 19.8228 11.9599 19.8471 11.9699C19.8713 11.9799 19.8963 11.9876 19.9221 11.9926C19.9478 11.9979 19.9738 12.0004 20.0001 12.0004Z" fill="url(#paint1_linear_1927_7367)"/>
<path d="M16.7999 12.0004C16.8262 12.0004 16.8522 11.9979 16.8779 11.9926C16.9037 11.9876 16.9287 11.9799 16.9529 11.9699C16.9772 11.9599 17.0004 11.9476 17.0222 11.9329C17.0439 11.9184 17.0642 11.9019 17.0827 11.8831C17.1014 11.8646 17.1179 11.8444 17.1324 11.8226C17.1472 11.8009 17.1594 11.7776 17.1694 11.7534C17.1794 11.7291 17.1872 11.7041 17.1922 11.6784C17.1974 11.6526 17.1999 11.6266 17.1999 11.6004V10.8004C17.1999 10.7741 17.1974 10.7481 17.1922 10.7224C17.1872 10.6966 17.1794 10.6716 17.1694 10.6474C17.1594 10.6231 17.1472 10.5999 17.1324 10.5781C17.1179 10.5564 17.1014 10.5361 17.0827 10.5176C17.0642 10.4989 17.0439 10.4824 17.0222 10.4679C17.0004 10.4531 16.9772 10.4409 16.9529 10.4309C16.9287 10.4209 16.9037 10.4131 16.8779 10.4081C16.8522 10.4029 16.8262 10.4004 16.7999 10.4004C16.7737 10.4004 16.7477 10.4029 16.7219 10.4081C16.6962 10.4131 16.6712 10.4209 16.6469 10.4309C16.6227 10.4409 16.5994 10.4531 16.5777 10.4679C16.5559 10.4824 16.5357 10.4989 16.5172 10.5176C16.4984 10.5361 16.4819 10.5564 16.4674 10.5781C16.4527 10.5999 16.4404 10.6231 16.4304 10.6474C16.4204 10.6716 16.4127 10.6966 16.4077 10.7224C16.4024 10.7481 16.3999 10.7741 16.3999 10.8004V11.6004C16.3999 11.6266 16.4024 11.6526 16.4077 11.6784C16.4127 11.7041 16.4204 11.7291 16.4304 11.7534C16.4404 11.7776 16.4527 11.8009 16.4674 11.8226C16.4819 11.8444 16.4984 11.8646 16.5172 11.8831C16.5357 11.9019 16.5559 11.9184 16.5777 11.9329C16.5994 11.9476 16.6227 11.9599 16.6469 11.9699C16.6712 11.9799 16.6962 11.9876 16.7219 11.9926C16.7477 11.9979 16.7737 12.0004 16.7999 12.0004Z" fill="url(#paint2_linear_1927_7367)"/>
<path d="M20.6002 19.6008H21.4002C21.4264 19.6008 21.4524 19.5983 21.4782 19.593C21.5039 19.588 21.5289 19.5803 21.5532 19.5703C21.5774 19.5603 21.6007 19.548 21.6224 19.5333C21.6442 19.5188 21.6644 19.5023 21.6829 19.4835C21.7017 19.465 21.7182 19.4448 21.7327 19.423C21.7474 19.4013 21.7597 19.378 21.7697 19.3538C21.7797 19.3295 21.7874 19.3045 21.7924 19.2788C21.7977 19.253 21.8002 19.227 21.8002 19.2008C21.8002 19.1745 21.7977 19.1485 21.7924 19.1228C21.7874 19.097 21.7797 19.072 21.7697 19.0478C21.7597 19.0235 21.7474 19.0003 21.7327 18.9785C21.7182 18.9568 21.7017 18.9365 21.6829 18.918C21.6644 18.8993 21.6442 18.8828 21.6224 18.8683C21.6007 18.8535 21.5774 18.8413 21.5532 18.8313C21.5289 18.8213 21.5039 18.8135 21.4782 18.8085C21.4524 18.8033 21.4264 18.8008 21.4002 18.8008H20.6002C20.5739 18.8008 20.5479 18.8033 20.5222 18.8085C20.4964 18.8135 20.4714 18.8213 20.4472 18.8313C20.4229 18.8413 20.3997 18.8535 20.3779 18.8683C20.3562 18.8828 20.3359 18.8993 20.3174 18.918C20.2987 18.9365 20.2822 18.9568 20.2677 18.9785C20.2529 19.0003 20.2407 19.0235 20.2307 19.0478C20.2207 19.072 20.2129 19.097 20.2079 19.1228C20.2027 19.1485 20.2002 19.1745 20.2002 19.2008C20.2002 19.227 20.2027 19.253 20.2079 19.2788C20.2129 19.3045 20.2207 19.3295 20.2307 19.3538C20.2407 19.378 20.2529 19.4013 20.2677 19.423C20.2822 19.4448 20.2987 19.465 20.3174 19.4835C20.3359 19.5023 20.3562 19.5188 20.3779 19.5333C20.3997 19.548 20.4229 19.5603 20.4472 19.5703C20.4714 19.5803 20.4964 19.588 20.5222 19.593C20.5479 19.5983 20.5739 19.6008 20.6002 19.6008Z" fill="url(#paint3_linear_1927_7367)"/>
</g>
<defs>
<linearGradient id="paint0_linear_1927_7367" x1="0" y1="12.0004" x2="24" y2="12.0004" gradientUnits="userSpaceOnUse">
<stop stop-color="#FFA4F5"/>
<stop offset="1" stop-color="#75DCFF"/>
<stop offset="1" stop-color="#B6EAFF"/>
</linearGradient>
<linearGradient id="paint1_linear_1927_7367" x1="19.6001" y1="11.2004" x2="20.4001" y2="11.2004" gradientUnits="userSpaceOnUse">
<stop stop-color="#FFA4F5"/>
<stop offset="1" stop-color="#75DCFF"/>
<stop offset="1" stop-color="#B6EAFF"/>
</linearGradient>
<linearGradient id="paint2_linear_1927_7367" x1="16.3999" y1="11.2004" x2="17.1999" y2="11.2004" gradientUnits="userSpaceOnUse">
<stop stop-color="#FFA4F5"/>
<stop offset="1" stop-color="#75DCFF"/>
<stop offset="1" stop-color="#B6EAFF"/>
</linearGradient>
<linearGradient id="paint3_linear_1927_7367" x1="20.2002" y1="19.2008" x2="21.8002" y2="19.2008" gradientUnits="userSpaceOnUse">
<stop stop-color="#FFA4F5"/>
<stop offset="1" stop-color="#75DCFF"/>
<stop offset="1" stop-color="#B6EAFF"/>
</linearGradient>
<clipPath id="clip0_1927_7367">
<rect width="24" height="24" fill="white"/>
</clipPath>
</defs>
</svg>
