<svg width="24" height="25" viewBox="0 0 24 25" fill="none" xmlns="http://www.w3.org/2000/svg">
<g clip-path="url(#clip0_1482_234)">
<mask id="mask0_1482_234" style="mask-type:luminance" maskUnits="userSpaceOnUse" x="0" y="1" width="24" height="23">
<path d="M0 1.17505H24V23.831H0V1.17505Z" fill="white"/>
</mask>
<g mask="url(#mask0_1482_234)">
<mask id="mask1_1482_234" style="mask-type:luminance" maskUnits="userSpaceOnUse" x="0" y="1" width="25" height="23">
<path d="M23.28 14.976L24.002 10.6748L22.3595 7.75902C22.506 7.58077 22.5938 7.35252 22.5938 7.10377C22.5938 6.53302 22.1313 6.07052 21.5608 6.07052C21.4183 6.07052 21.2823 6.09927 21.1588 6.15152L18.594 3.58602L14.364 2.30102C14.366 2.27402 14.368 2.24727 14.368 2.21977C14.368 1.64902 13.9055 1.18652 13.335 1.18652C12.7645 1.18652 12.3018 1.64902 12.3018 2.21977C12.3018 2.23652 12.3035 2.25302 12.3043 2.26952L5.5455 4.10127L5.49275 4.11577L1.47 7.86602L0.929 12.5445C0.40725 12.5965 0 13.037 0 13.5725C0 14.1433 0.4625 14.6058 1.033 14.6058C1.37025 14.6058 1.66875 14.4435 1.85725 14.1938L5.87675 16.0353L7.17775 17.8468C7.07675 18.0063 7.0175 18.195 7.0175 18.398C7.0175 18.9688 7.48 19.4313 8.0505 19.4313C8.54925 19.4313 8.96525 19.0778 9.06225 18.6078L14.377 17.7373L18.6923 23.8213L18.735 18.8378L22.1583 16.6643C22.345 16.8498 22.602 16.9645 22.886 16.9645C23.4565 16.9645 23.919 16.502 23.919 15.9313C23.919 15.5003 23.655 15.131 23.28 14.976ZM6.045 10.3778C6.21875 10.2955 6.366 10.1665 6.47 10.0063L10.0805 11.3615L11.4103 13.3365L8.47875 17.4585C8.34825 17.3988 8.2035 17.3645 8.0505 17.3645C7.8455 17.3645 7.65475 17.425 7.49425 17.5283L6.24125 15.7835L6.045 10.3778ZM12.7438 3.06652C12.9115 3.18377 13.115 3.25302 13.335 3.25302C13.3658 3.25302 13.396 3.25102 13.426 3.24852L14.7383 7.42752C14.428 7.60577 14.2185 7.94002 14.2185 8.32352C14.2185 8.58927 14.3195 8.83052 14.4843 9.01377L12.504 11.798L10.3685 10.9965L7.98575 7.45752L12.7438 3.06652ZM18.5053 4.12352L20.794 6.41302C20.629 6.59602 20.5278 6.83777 20.5278 7.10377C20.5278 7.37827 20.6355 7.62727 20.81 7.81227L17.0538 13.3235L15.765 9.21952C16.0753 9.04127 16.2847 8.70702 16.2847 8.32352C16.2847 8.05502 16.1815 7.81102 16.0135 7.62727L18.5053 4.12352ZM12.6675 12.3325L16.6983 13.8453L14.4788 17.1018L11.9485 13.3433L12.6675 12.3325ZM11.6843 12.951L10.7948 11.6295L12.2388 12.1715L11.6843 12.951ZM14.8433 9.27277C14.9688 9.32677 15.1065 9.35677 15.2515 9.35677C15.2823 9.35677 15.3125 9.35502 15.3425 9.35227L16.5925 13.3325L12.933 11.959L14.8433 9.27277ZM9.65425 10.7285L6.625 9.59152C6.63175 9.54352 6.6365 9.49477 6.6365 9.44477C6.6365 9.23027 6.57125 9.03127 6.4595 8.86602L7.65675 7.76127L9.65425 10.7285ZM6.137 8.56102C6.086 8.53027 6.0325 8.50352 5.97625 8.48177L5.85275 5.08177L7.4065 7.38952L6.137 8.56102ZM5.53075 8.41502C5.198 8.43827 4.90875 8.61852 4.737 8.88302L2.093 7.89052L5.39975 4.80777L5.53075 8.41502ZM8.833 17.7243L11.6743 13.729L14.1013 17.3338L9.055 18.1603C9.0165 17.9963 8.93925 17.8478 8.833 17.7243ZM16.905 14.328L17.192 15.2418L15.3823 16.5623L16.905 14.328ZM17.287 14.0663L18.288 14.442L17.5695 14.966L17.287 14.0663ZM17.3815 13.6288L21.1755 8.06202C21.2948 8.11002 21.4245 8.13702 21.5608 8.13702C21.7208 8.13702 21.8715 8.09977 22.0068 8.03477L23.4813 10.6525L18.716 14.1295L17.3815 13.6288ZM23.4625 11.2143L22.8438 14.9C22.4983 14.914 22.1965 15.097 22.0195 15.3695L19.212 14.3158L23.4625 11.2143ZM18.118 3.90427L15.6525 7.37102C15.5293 7.31902 15.3938 7.29027 15.2515 7.29027C15.2208 7.29027 15.1908 7.29227 15.1605 7.29477L13.8483 3.11577C14.01 3.02277 14.1443 2.88777 14.2358 2.72477L18.118 3.90427ZM12.4438 2.74077L7.73575 7.08577L5.95975 4.44802L12.4193 2.69727C12.427 2.71202 12.4355 2.72652 12.4438 2.74077ZM1.868 8.27902L4.582 9.29777C4.575 9.34577 4.57025 9.39477 4.57025 9.44477C4.57025 9.61052 4.6105 9.76677 4.68 9.90577L1.62425 12.7258C1.54625 12.6713 1.4605 12.6275 1.36875 12.596L1.868 8.27902ZM1.92425 13.0515L4.9585 10.2513C5.13525 10.3928 5.35925 10.478 5.6035 10.478C5.60425 10.478 5.60475 10.478 5.6055 10.478L5.788 15.5075L2.0425 13.7913C2.05775 13.7208 2.06625 13.6478 2.06625 13.5725C2.06625 13.3823 2.01375 13.2045 1.92425 13.0515ZM14.7845 17.5465L17.332 15.6878L18.293 18.7485L18.2613 22.4483L14.7845 17.5465ZM18.6395 18.374L17.7095 15.4123L18.784 14.628L21.8645 15.7843C21.8575 15.8325 21.8528 15.8813 21.8528 15.9313C21.8528 16.0583 21.8768 16.1793 21.9188 16.2918L18.6395 18.374Z" fill="white"/>
</mask>
<g mask="url(#mask1_1482_234)">
<path d="M0 1.18652V23.8213H24V1.18652H0Z" fill="url(#paint0_linear_1482_234)"/>
</g>
</g>
</g>
<defs>
<linearGradient id="paint0_linear_1482_234" x1="23.2842" y1="49.8431" x2="-7.86441" y2="43.0896" gradientUnits="userSpaceOnUse">
<stop stop-color="#75DCFF"/>
<stop offset="0.178138" stop-color="#2653EA"/>
<stop offset="1" stop-color="#FF6EEE"/>
</linearGradient>
<clipPath id="clip0_1482_234">
<rect width="24" height="24" fill="white" transform="translate(0 0.5)"/>
</clipPath>
</defs>
</svg>
