<svg width="24" height="25" viewBox="0 0 24 25" fill="none" xmlns="http://www.w3.org/2000/svg">
<g clip-path="url(#clip0_1482_1050)">
<path d="M12.0008 0.298218C5.373 0.298218 0 5.67122 0 12.2992C0 18.927 5.373 24.3 12.0008 24.3C18.6288 24.3 24.0018 18.927 24.0018 12.2992C23.9945 5.67422 18.6255 0.305468 12.0008 0.298218ZM23.1065 11.8557H19.694C19.663 10.2235 19.4033 8.60347 18.923 7.04297C19.6665 6.71097 20.3733 6.30247 21.0323 5.82447C22.3018 7.58722 23.023 9.68522 23.1065 11.8557ZM20.483 5.12872C19.908 5.54522 19.2935 5.90422 18.6483 6.20097C18.0605 4.54097 17.0818 3.04697 15.7945 1.84497C17.6163 2.51297 19.2323 3.64497 20.483 5.12872ZM15.0985 12.7422H18.8123C18.782 14.2605 18.5463 15.7675 18.112 17.2225C17.0795 16.8372 16.0105 16.5582 14.9213 16.3895C15.0323 15.144 15.0898 13.89 15.0985 12.7422ZM14.9255 8.20847C16.0148 8.03997 17.0838 7.76097 18.1165 7.37547C18.5478 8.83097 18.7803 10.338 18.808 11.8557H15.103C15.103 10.7125 15.0323 9.45847 14.9255 8.20847ZM17.8238 6.53797C16.856 6.90147 15.854 7.16597 14.8325 7.32672C14.5755 4.95147 14.1148 2.70897 13.4013 1.41947C15.2713 2.06197 16.8755 3.95447 17.8238 6.53797ZM14.2168 12.7422C14.2168 14.0317 14.1503 15.2107 14.0615 16.2875C12.6978 16.1395 11.3218 16.1395 9.958 16.2875C9.86925 15.2285 9.81625 14.0497 9.80275 12.7422H14.2168ZM9.785 11.8557C9.785 10.5665 9.8515 9.38772 9.94 8.31047C10.6218 8.38472 11.3065 8.42172 11.992 8.42147C12.6803 8.42197 13.3685 8.38522 14.0528 8.31047C14.1413 9.36972 14.1945 10.5485 14.2078 11.8557H9.785ZM12.0008 1.18472C12.577 1.18472 13.5298 3.32072 13.973 7.44622C13.3178 7.51772 12.6598 7.55322 12.0008 7.55297C11.3418 7.54597 10.6833 7.50322 10.0288 7.42422C10.4718 3.32072 11.4248 1.18472 12.0008 1.18472ZM10.6005 1.41947V1.42397C9.887 2.71347 9.426 4.96922 9.169 7.33122C8.1475 7.16872 7.1455 6.90322 6.1775 6.53797C7.126 3.95447 8.73025 2.06197 10.6005 1.41947ZM8.89875 11.8557H5.19375C5.22425 10.3377 5.45975 8.83072 5.89425 7.37547C6.9265 7.76097 7.99575 8.03997 9.08475 8.20847C8.97425 9.45847 8.89875 10.7125 8.89875 11.8557ZM9.08475 16.3895H9.07575C7.98675 16.5582 6.91775 16.8372 5.88525 17.2225C5.45375 15.7672 5.2215 14.2602 5.19375 12.7422H8.89875C8.89875 13.8855 8.97425 15.1397 9.08475 16.3895ZM8.22525 1.84497C6.9315 3.04472 5.94625 4.53922 5.3535 6.20097C4.702 5.90397 4.0815 5.54322 3.501 5.12422C4.762 3.63722 6.39075 2.50622 8.22525 1.84497ZM2.97375 5.82447V5.83347C3.633 6.31147 4.33975 6.71947 5.083 7.05197C4.602 8.60947 4.341 10.2265 4.3075 11.8557H0.89525C0.98 9.68497 1.70275 7.58672 2.97375 5.82447ZM2.969 18.7737C1.7 17.011 0.9785 14.9127 0.89525 12.7422H4.3075C4.33875 14.3745 4.59825 15.9945 5.0785 17.555C4.33525 17.8872 3.62825 18.2957 2.969 18.7737ZM3.51875 19.4695C4.09375 19.0532 4.70825 18.694 5.3535 18.397C5.94075 20.0587 6.9195 21.5545 8.20725 22.7577C6.385 22.0882 4.769 20.955 3.51875 19.4695ZM6.1775 18.0602C7.1455 17.6967 8.14775 17.432 9.169 17.2715C9.426 19.6467 9.887 21.8892 10.6005 23.1787C8.73025 22.5362 7.126 20.6437 6.1775 18.0602ZM12.0008 23.4135C11.4248 23.4135 10.4718 21.2775 10.0288 17.1517C11.3383 17.0085 12.6593 17.0085 13.9683 17.1517C13.5298 21.2775 12.577 23.4135 12.0008 23.4135ZM13.4013 23.1787V23.1742C14.1148 21.8845 14.5755 19.629 14.8325 17.2667C15.8543 17.4292 16.8563 17.695 17.8238 18.0602C16.8755 20.6437 15.2713 22.5362 13.4013 23.1787ZM15.7765 22.7532V22.7312C17.0673 21.5375 18.0522 20.051 18.6483 18.397C19.2995 18.6942 19.92 19.0547 20.5005 19.474C19.2395 20.9612 17.6108 22.0917 15.7765 22.7532ZM21.028 18.7737V18.7425C20.3688 18.2647 19.662 17.8562 18.9185 17.524C19.3975 15.9737 19.6585 14.3642 19.694 12.7422H23.1065C23.0218 14.9132 22.2988 17.0112 21.028 18.7737Z" fill="url(#paint0_linear_1482_1050)"/>
</g>
<defs>
<linearGradient id="paint0_linear_1482_1050" x1="23.2859" y1="51.8933" x2="-8.02035" y2="45.4918" gradientUnits="userSpaceOnUse">
<stop stop-color="#75DCFF"/>
<stop offset="0.178138" stop-color="#2653EA"/>
<stop offset="1" stop-color="#FF6EEE"/>
</linearGradient>
<clipPath id="clip0_1482_1050">
<rect width="24" height="24" fill="white" transform="translate(0 0.299927)"/>
</clipPath>
</defs>
</svg>
