<svg width="24" height="25" viewBox="0 0 24 25" fill="none" xmlns="http://www.w3.org/2000/svg">
<g clip-path="url(#clip0_1482_891)">
<path fill-rule="evenodd" clip-rule="evenodd" d="M11.8804 17.4427C9.7714 17.4427 8.05615 15.7274 8.05615 13.6184C8.05615 11.5094 9.7714 9.79419 11.8804 9.79419C13.9894 9.79419 15.7047 11.5094 15.7047 13.6184C15.7047 15.7274 13.9894 17.4427 11.8804 17.4427ZM11.8804 10.2582C10.0244 10.2582 8.52015 11.7624 8.52015 13.6184C8.52015 15.4742 10.0244 16.9787 11.8804 16.9787C13.7364 16.9787 15.2407 15.4742 15.2407 13.6184C15.2407 11.7624 13.7364 10.2582 11.8804 10.2582Z" fill="url(#paint0_linear_1482_891)"/>
<path fill-rule="evenodd" clip-rule="evenodd" d="M11.8806 10.2583C11.7541 10.2583 11.6416 10.1598 11.6416 10.0193V6.84178C11.6416 6.71503 11.7541 6.60278 11.8806 6.60278C12.0071 6.60278 12.1056 6.71503 12.1056 6.84178V10.0193C12.1056 10.1598 12.0071 10.2583 11.8806 10.2583Z" fill="url(#paint1_linear_1482_891)"/>
<path fill-rule="evenodd" clip-rule="evenodd" d="M11.8806 10.2583C11.7541 10.2583 11.6416 10.1598 11.6416 10.0193V8.79601C11.6416 8.66951 11.7541 8.55701 11.8806 8.55701C12.0071 8.55701 12.1056 8.66951 12.1056 8.79601V10.0193C12.1056 10.1598 12.0071 10.2583 11.8806 10.2583Z" fill="url(#paint2_linear_1482_891)"/>
<path fill-rule="evenodd" clip-rule="evenodd" d="M13.2583 10.5392C13.2303 10.5392 13.1881 10.5252 13.1601 10.5112C13.0476 10.469 12.9913 10.3285 13.0336 10.202L15.5783 4.09997C15.6206 3.97347 15.7611 3.91722 15.8736 3.97347C16.0001 4.01572 16.0563 4.15622 16.0001 4.26872L13.4693 10.3847C13.4271 10.4832 13.3428 10.5392 13.2583 10.5392Z" fill="url(#paint3_linear_1482_891)"/>
<path fill-rule="evenodd" clip-rule="evenodd" d="M21.427 17.4707C21.399 17.4707 21.3707 17.4567 21.3427 17.4567L15.1565 15.1087C15.03 15.0664 14.9737 14.9259 15.0157 14.8134C15.058 14.6869 15.1985 14.6307 15.3252 14.6729L21.5115 17.0209C21.638 17.0629 21.6942 17.1897 21.652 17.3162C21.6097 17.4144 21.5255 17.4707 21.427 17.4707Z" fill="url(#paint4_linear_1482_891)"/>
<path fill-rule="evenodd" clip-rule="evenodd" d="M2.54483 17.9909C2.44658 17.9909 2.36208 17.9347 2.33408 17.8504C2.27783 17.7379 2.33408 17.5972 2.44658 17.5409L8.49208 14.8557C8.61883 14.8134 8.75933 14.8557 8.80158 14.9822C8.85783 15.0947 8.80158 15.2352 8.68908 15.2914L2.64333 17.9769C2.60108 17.9769 2.57308 17.9909 2.54483 17.9909Z" fill="url(#paint5_linear_1482_891)"/>
<path fill-rule="evenodd" clip-rule="evenodd" d="M14.4253 11.3127C14.355 11.3127 14.2988 11.2845 14.2565 11.2422C14.1583 11.144 14.1583 11.0032 14.2565 10.905L16.5063 8.65523C16.5905 8.57098 16.7453 8.57098 16.8295 8.65523C16.928 8.75373 16.928 8.89448 16.8295 8.99273L14.58 11.2422C14.5378 11.2845 14.4815 11.3127 14.4253 11.3127Z" fill="url(#paint6_linear_1482_891)"/>
<path fill-rule="evenodd" clip-rule="evenodd" d="M18.6572 13.8575H15.4657C15.3392 13.8575 15.2407 13.745 15.2407 13.6185C15.2407 13.492 15.3392 13.3795 15.4657 13.3795H18.6572C18.7837 13.3795 18.8962 13.492 18.8962 13.6185C18.8962 13.745 18.7837 13.8575 18.6572 13.8575Z" fill="url(#paint7_linear_1482_891)"/>
<path fill-rule="evenodd" clip-rule="evenodd" d="M16.6748 18.6377C16.6045 18.6377 16.5483 18.6237 16.5063 18.5815L14.2565 16.318C14.1583 16.2335 14.1583 16.079 14.2565 15.9945C14.341 15.8962 14.4955 15.8962 14.58 15.9945L16.8295 18.244C16.928 18.3425 16.928 18.4832 16.8295 18.5815C16.7873 18.6237 16.731 18.6377 16.6748 18.6377Z" fill="url(#paint8_linear_1482_891)"/>
<path fill-rule="evenodd" clip-rule="evenodd" d="M11.8806 20.6343C11.7541 20.6343 11.6416 20.5218 11.6416 20.3953V17.2178C11.6416 17.0773 11.7541 16.9788 11.8806 16.9788C12.0071 16.9788 12.1056 17.0773 12.1056 17.2178V20.3953C12.1056 20.5218 12.0071 20.6343 11.8806 20.6343Z" fill="url(#paint9_linear_1482_891)"/>
<path fill-rule="evenodd" clip-rule="evenodd" d="M7.08588 18.6377C7.02988 18.6377 6.95938 18.6237 6.91738 18.5815C6.83288 18.4832 6.83288 18.3425 6.91738 18.244L9.16688 15.9945C9.26538 15.8962 9.40588 15.8962 9.50438 15.9945C9.58863 16.079 9.58863 16.2335 9.50438 16.318L7.25463 18.5815C7.19838 18.6237 7.14213 18.6377 7.08588 18.6377Z" fill="url(#paint10_linear_1482_891)"/>
<path fill-rule="evenodd" clip-rule="evenodd" d="M8.28125 13.8575H5.10375C4.97725 13.8575 4.86475 13.745 4.86475 13.6185C4.86475 13.492 4.97725 13.3795 5.10375 13.3795H8.28125C8.40775 13.3795 8.52025 13.492 8.52025 13.6185C8.52025 13.745 8.40775 13.8575 8.28125 13.8575Z" fill="url(#paint11_linear_1482_891)"/>
<path fill-rule="evenodd" clip-rule="evenodd" d="M9.33563 11.3127C9.27938 11.3127 9.22313 11.2845 9.16688 11.2422L6.91738 8.99273C6.83288 8.89448 6.83288 8.75373 6.91738 8.65523C7.01563 8.57098 7.15638 8.57098 7.25463 8.65523L9.50438 10.905C9.58863 11.0032 9.58863 11.144 9.50438 11.2422C9.46213 11.2845 9.39188 11.3127 9.33563 11.3127Z" fill="url(#paint12_linear_1482_891)"/>
<path fill-rule="evenodd" clip-rule="evenodd" d="M1.434 19.6782C0.64675 19.6782 0 19.0314 0 18.2439C0 17.4567 0.64675 16.8099 1.434 16.8099C2.2355 16.8099 2.88225 17.4567 2.88225 18.2439C2.88225 19.0314 2.2355 19.6782 1.434 19.6782ZM1.434 17.2739C0.89975 17.2739 0.464 17.7097 0.464 18.2439C0.464 18.7784 0.89975 19.2142 1.434 19.2142C1.9825 19.2142 2.40425 18.7784 2.40425 18.2439C2.40425 17.7097 1.9825 17.2739 1.434 17.2739Z" fill="url(#paint13_linear_1482_891)"/>
<path fill-rule="evenodd" clip-rule="evenodd" d="M22.5517 19.1017C21.7644 19.1017 21.1177 18.455 21.1177 17.6535C21.1177 16.8662 21.7644 16.2195 22.5517 16.2195C23.3532 16.2195 23.9999 16.8662 23.9999 17.6535C23.9999 18.455 23.3532 19.1017 22.5517 19.1017ZM22.5517 16.6835C22.0174 16.6835 21.5817 17.1192 21.5817 17.6535C21.5817 18.202 22.0174 18.6377 22.5517 18.6377C23.0859 18.6377 23.5219 18.202 23.5219 17.6535C23.5219 17.1192 23.0859 16.6835 22.5517 16.6835Z" fill="url(#paint14_linear_1482_891)"/>
<path fill-rule="evenodd" clip-rule="evenodd" d="M16.2531 4.50774C15.4518 4.50774 14.8191 3.86099 14.8191 3.07374C14.8191 2.27224 15.4518 1.62549 16.2531 1.62549C17.0406 1.62549 17.6873 2.27224 17.6873 3.07374C17.6873 3.86099 17.0406 4.50774 16.2531 4.50774ZM16.2531 2.10349C15.7188 2.10349 15.2831 2.53924 15.2831 3.07374C15.2831 3.60799 15.7188 4.04374 16.2531 4.04374C16.7873 4.04374 17.2233 3.60799 17.2233 3.07374C17.2233 2.53924 16.7873 2.10349 16.2531 2.10349Z" fill="url(#paint15_linear_1482_891)"/>
<path fill-rule="evenodd" clip-rule="evenodd" d="M11.8804 7.08073C11.2054 7.08073 10.6711 6.53223 10.6711 5.87148C10.6711 5.19673 11.2054 4.66248 11.8804 4.66248C12.5411 4.66248 13.0896 5.19673 13.0896 5.87148C13.0896 6.53223 12.5411 7.08073 11.8804 7.08073ZM11.8804 5.12623C11.4726 5.12623 11.1351 5.46373 11.1351 5.87148C11.1351 6.27923 11.4726 6.60273 11.8804 6.60273C12.2881 6.60273 12.6114 6.27923 12.6114 5.87148C12.6114 5.46373 12.2881 5.12623 11.8804 5.12623Z" fill="url(#paint16_linear_1482_891)"/>
<path fill-rule="evenodd" clip-rule="evenodd" d="M17.3638 9.34428C17.0405 9.34428 16.731 9.21778 16.5063 8.99278C16.2813 8.76778 16.1548 8.45853 16.1548 8.13528C16.1548 7.81178 16.2813 7.51653 16.5063 7.27753C16.731 7.05253 17.0405 6.92603 17.3638 6.92603C17.6873 6.92603 17.9825 7.05253 18.2075 7.27753C18.4465 7.51653 18.573 7.81178 18.573 8.13528C18.573 8.45853 18.4465 8.76778 18.2075 8.99278C17.9825 9.21778 17.6873 9.34428 17.3638 9.34428ZM17.3638 7.39003C17.167 7.39003 16.97 7.47428 16.8295 7.61503C16.689 7.75553 16.6188 7.93828 16.6188 8.13528C16.6188 8.33203 16.703 8.51478 16.8295 8.65528C17.1108 8.93653 17.6028 8.93653 17.884 8.65528C18.0245 8.51478 18.095 8.33203 18.095 8.13528C18.095 7.93828 18.0245 7.75553 17.884 7.61503C17.7435 7.47428 17.5608 7.39003 17.3638 7.39003Z" fill="url(#paint17_linear_1482_891)"/>
<path fill-rule="evenodd" clip-rule="evenodd" d="M19.6275 14.8274C18.9665 14.8274 18.4182 14.2792 18.4182 13.6184C18.4182 12.9577 18.9665 12.4092 19.6275 12.4092C20.3022 12.4092 20.8365 12.9577 20.8365 13.6184C20.8365 14.2792 20.3022 14.8274 19.6275 14.8274ZM19.6275 12.8732C19.2197 12.8732 18.8962 13.2107 18.8962 13.6184C18.8962 14.0262 19.2197 14.3634 19.6275 14.3634C20.0352 14.3634 20.3725 14.0262 20.3725 13.6184C20.3725 13.2107 20.0352 12.8732 19.6275 12.8732Z" fill="url(#paint18_linear_1482_891)"/>
<path fill-rule="evenodd" clip-rule="evenodd" d="M17.3636 20.311C17.0404 20.311 16.7309 20.1842 16.5061 19.9595C16.0279 19.4812 16.0279 18.708 16.5061 18.244C16.7309 18.0192 17.0404 17.8925 17.3636 17.8925C17.6871 17.8925 17.9824 18.0192 18.2074 18.244C18.6854 18.708 18.6854 19.4812 18.2074 19.9595C17.9824 20.1842 17.6871 20.311 17.3636 20.311ZM17.3636 18.3565C17.1669 18.3565 16.9699 18.441 16.8294 18.5815C16.5481 18.8627 16.5481 19.3267 16.8294 19.622C17.1106 19.9032 17.6026 19.9032 17.8839 19.622C18.1651 19.3267 18.1651 18.8627 17.8839 18.5815C17.7434 18.441 17.5606 18.3565 17.3636 18.3565Z" fill="url(#paint19_linear_1482_891)"/>
<path fill-rule="evenodd" clip-rule="evenodd" d="M11.8804 22.5745C11.2054 22.5745 10.6711 22.0403 10.6711 21.3655C10.6711 20.7045 11.2054 20.1562 11.8804 20.1562C12.5411 20.1562 13.0896 20.7045 13.0896 21.3655C13.0896 22.0403 12.5411 22.5745 11.8804 22.5745ZM11.8804 20.6343C11.4726 20.6343 11.1351 20.9578 11.1351 21.3655C11.1351 21.773 11.4726 22.1105 11.8804 22.1105C12.2881 22.1105 12.6114 21.773 12.6114 21.3655C12.6114 20.9578 12.2881 20.6343 11.8804 20.6343Z" fill="url(#paint20_linear_1482_891)"/>
<path fill-rule="evenodd" clip-rule="evenodd" d="M6.39716 20.311C6.07366 20.311 5.76441 20.1842 5.53941 19.9595C5.07541 19.4812 5.07541 18.7222 5.53941 18.244C5.76441 18.0192 6.07366 17.8925 6.39716 17.8925C6.72041 17.8925 7.01566 18.0192 7.25466 18.244C7.71866 18.7222 7.71866 19.4812 7.25466 19.9595C7.01566 20.1842 6.72041 20.311 6.39716 20.311ZM6.39716 18.3565C6.20016 18.3565 6.01741 18.441 5.87691 18.5815C5.58166 18.8627 5.58166 19.3267 5.87691 19.622C6.15816 19.9032 6.63616 19.9032 6.91741 19.622C7.21266 19.3267 7.21266 18.8627 6.91741 18.5815C6.77666 18.441 6.59391 18.3565 6.39716 18.3565Z" fill="url(#paint21_linear_1482_891)"/>
<path fill-rule="evenodd" clip-rule="evenodd" d="M4.11956 14.8274C3.45881 14.8274 2.92456 14.2792 2.92456 13.6184C2.92456 12.9577 3.45881 12.4092 4.11956 12.4092C4.79456 12.4092 5.32881 12.9577 5.32881 13.6184C5.32881 14.2792 4.79456 14.8274 4.11956 14.8274ZM4.11956 12.8732C3.71181 12.8732 3.38856 13.2107 3.38856 13.6184C3.38856 14.0262 3.71181 14.3634 4.11956 14.3634C4.52731 14.3634 4.86481 14.0262 4.86481 13.6184C4.86481 13.2107 4.52731 12.8732 4.11956 12.8732Z" fill="url(#paint22_linear_1482_891)"/>
<path fill-rule="evenodd" clip-rule="evenodd" d="M6.39716 9.34428C6.07366 9.34428 5.76441 9.21778 5.53941 8.99278C5.07541 8.51478 5.07541 7.75553 5.53941 7.27753C5.76441 7.05253 6.07366 6.92603 6.39716 6.92603C6.72041 6.92603 7.01566 7.05253 7.25466 7.27753C7.71866 7.75553 7.71866 8.51478 7.25466 8.99278C7.01566 9.21778 6.72041 9.34428 6.39716 9.34428ZM6.39716 7.39003C6.20016 7.39003 6.01741 7.47428 5.87691 7.61503C5.58166 7.89628 5.58166 8.37428 5.87691 8.65528C6.15816 8.93653 6.63616 8.93653 6.91741 8.65528C7.21266 8.37428 7.21266 7.89628 6.91741 7.61503C6.77666 7.47428 6.59391 7.39003 6.39716 7.39003Z" fill="url(#paint23_linear_1482_891)"/>
<path fill-rule="evenodd" clip-rule="evenodd" d="M11.8806 15.2494C10.9808 15.2494 10.2356 14.5182 10.2356 13.6184C10.2356 12.7187 10.9808 11.9874 11.8806 11.9874C12.7803 11.9874 13.5116 12.7187 13.5116 13.6184C13.5116 14.5182 12.7803 15.2494 11.8806 15.2494ZM11.8806 12.4514C11.2338 12.4514 10.7136 12.9717 10.7136 13.6184C10.7136 14.2652 11.2338 14.7854 11.8806 14.7854C12.5273 14.7854 13.0476 14.2652 13.0476 13.6184C13.0476 12.9717 12.5273 12.4514 11.8806 12.4514Z" fill="url(#paint24_linear_1482_891)"/>
</g>
<defs>
<linearGradient id="paint0_linear_1482_891" x1="15.4765" y1="26.2357" x2="5.50035" y2="24.1958" gradientUnits="userSpaceOnUse">
<stop stop-color="#75DCFF"/>
<stop offset="0.178138" stop-color="#2653EA"/>
<stop offset="1" stop-color="#FF6EEE"/>
</linearGradient>
<linearGradient id="paint1_linear_1482_891" x1="12.0918" y1="14.4608" x2="11.4617" y2="14.4444" gradientUnits="userSpaceOnUse">
<stop stop-color="#75DCFF"/>
<stop offset="0.178138" stop-color="#2653EA"/>
<stop offset="1" stop-color="#FF6EEE"/>
</linearGradient>
<linearGradient id="paint2_linear_1482_891" x1="12.0918" y1="12.2141" x2="11.4632" y2="12.179" gradientUnits="userSpaceOnUse">
<stop stop-color="#75DCFF"/>
<stop offset="0.178138" stop-color="#2653EA"/>
<stop offset="1" stop-color="#FF6EEE"/>
</linearGradient>
<linearGradient id="paint3_linear_1482_891" x1="15.9323" y1="18.1125" x2="11.8877" y2="17.7356" gradientUnits="userSpaceOnUse">
<stop stop-color="#75DCFF"/>
<stop offset="0.178138" stop-color="#2653EA"/>
<stop offset="1" stop-color="#FF6EEE"/>
</linearGradient>
<linearGradient id="paint4_linear_1482_891" x1="21.4671" y1="20.7031" x2="14.1341" y2="17.1492" gradientUnits="userSpaceOnUse">
<stop stop-color="#75DCFF"/>
<stop offset="0.178138" stop-color="#2653EA"/>
<stop offset="1" stop-color="#FF6EEE"/>
</linearGradient>
<linearGradient id="paint5_linear_1482_891" x1="8.62944" y1="21.6136" x2="1.12152" y2="18.4411" gradientUnits="userSpaceOnUse">
<stop stop-color="#75DCFF"/>
<stop offset="0.178138" stop-color="#2653EA"/>
<stop offset="1" stop-color="#FF6EEE"/>
</linearGradient>
<linearGradient id="paint6_linear_1482_891" x1="16.8223" y1="14.4405" x2="13.2738" y2="13.715" gradientUnits="userSpaceOnUse">
<stop stop-color="#75DCFF"/>
<stop offset="0.178138" stop-color="#2653EA"/>
<stop offset="1" stop-color="#FF6EEE"/>
</linearGradient>
<linearGradient id="paint7_linear_1482_891" x1="18.7872" y1="14.407" x2="17.3455" y2="12.1525" gradientUnits="userSpaceOnUse">
<stop stop-color="#75DCFF"/>
<stop offset="0.178138" stop-color="#2653EA"/>
<stop offset="1" stop-color="#FF6EEE"/>
</linearGradient>
<linearGradient id="paint8_linear_1482_891" x1="16.8223" y1="21.7612" x2="13.2741" y2="21.0347" gradientUnits="userSpaceOnUse">
<stop stop-color="#75DCFF"/>
<stop offset="0.178138" stop-color="#2653EA"/>
<stop offset="1" stop-color="#FF6EEE"/>
</linearGradient>
<linearGradient id="paint9_linear_1482_891" x1="12.0918" y1="24.8368" x2="11.4617" y2="24.8204" gradientUnits="userSpaceOnUse">
<stop stop-color="#75DCFF"/>
<stop offset="0.178138" stop-color="#2653EA"/>
<stop offset="1" stop-color="#FF6EEE"/>
</linearGradient>
<linearGradient id="paint10_linear_1482_891" x1="9.48664" y1="21.7612" x2="5.9469" y2="21.0383" gradientUnits="userSpaceOnUse">
<stop stop-color="#75DCFF"/>
<stop offset="0.178138" stop-color="#2653EA"/>
<stop offset="1" stop-color="#FF6EEE"/>
</linearGradient>
<linearGradient id="paint11_linear_1482_891" x1="8.41122" y1="14.407" x2="6.96948" y2="12.1525" gradientUnits="userSpaceOnUse">
<stop stop-color="#75DCFF"/>
<stop offset="0.178138" stop-color="#2653EA"/>
<stop offset="1" stop-color="#FF6EEE"/>
</linearGradient>
<linearGradient id="paint12_linear_1482_891" x1="9.48664" y1="14.4405" x2="5.9465" y2="13.7185" gradientUnits="userSpaceOnUse">
<stop stop-color="#75DCFF"/>
<stop offset="0.178138" stop-color="#2653EA"/>
<stop offset="1" stop-color="#FF6EEE"/>
</linearGradient>
<linearGradient id="paint13_linear_1482_891" x1="2.79629" y1="22.9756" x2="-0.961648" y2="22.2035" gradientUnits="userSpaceOnUse">
<stop stop-color="#75DCFF"/>
<stop offset="0.178138" stop-color="#2653EA"/>
<stop offset="1" stop-color="#FF6EEE"/>
</linearGradient>
<linearGradient id="paint14_linear_1482_891" x1="23.914" y1="22.4153" x2="20.1546" y2="21.6466" gradientUnits="userSpaceOnUse">
<stop stop-color="#75DCFF"/>
<stop offset="0.178138" stop-color="#2653EA"/>
<stop offset="1" stop-color="#FF6EEE"/>
</linearGradient>
<linearGradient id="paint15_linear_1482_891" x1="17.6018" y1="7.82129" x2="13.8592" y2="7.05971" gradientUnits="userSpaceOnUse">
<stop stop-color="#75DCFF"/>
<stop offset="0.178138" stop-color="#2653EA"/>
<stop offset="1" stop-color="#FF6EEE"/>
</linearGradient>
<linearGradient id="paint16_linear_1482_891" x1="13.0175" y1="9.86084" x2="9.86301" y2="9.21574" gradientUnits="userSpaceOnUse">
<stop stop-color="#75DCFF"/>
<stop offset="0.178138" stop-color="#2653EA"/>
<stop offset="1" stop-color="#FF6EEE"/>
</linearGradient>
<linearGradient id="paint17_linear_1482_891" x1="18.5009" y1="12.1244" x2="15.3467" y2="11.4794" gradientUnits="userSpaceOnUse">
<stop stop-color="#75DCFF"/>
<stop offset="0.178138" stop-color="#2653EA"/>
<stop offset="1" stop-color="#FF6EEE"/>
</linearGradient>
<linearGradient id="paint18_linear_1482_891" x1="20.7643" y1="17.6075" x2="17.6101" y2="16.9626" gradientUnits="userSpaceOnUse">
<stop stop-color="#75DCFF"/>
<stop offset="0.178138" stop-color="#2653EA"/>
<stop offset="1" stop-color="#FF6EEE"/>
</linearGradient>
<linearGradient id="paint19_linear_1482_891" x1="18.4938" y1="23.0914" x2="15.3393" y2="22.4463" gradientUnits="userSpaceOnUse">
<stop stop-color="#75DCFF"/>
<stop offset="0.178138" stop-color="#2653EA"/>
<stop offset="1" stop-color="#FF6EEE"/>
</linearGradient>
<linearGradient id="paint20_linear_1482_891" x1="13.0175" y1="25.3546" x2="9.86301" y2="24.7095" gradientUnits="userSpaceOnUse">
<stop stop-color="#75DCFF"/>
<stop offset="0.178138" stop-color="#2653EA"/>
<stop offset="1" stop-color="#FF6EEE"/>
</linearGradient>
<linearGradient id="paint21_linear_1482_891" x1="7.53074" y1="23.0914" x2="4.38491" y2="22.45" gradientUnits="userSpaceOnUse">
<stop stop-color="#75DCFF"/>
<stop offset="0.178138" stop-color="#2653EA"/>
<stop offset="1" stop-color="#FF6EEE"/>
</linearGradient>
<linearGradient id="paint22_linear_1482_891" x1="5.25711" y1="17.6075" x2="2.11971" y2="16.9697" gradientUnits="userSpaceOnUse">
<stop stop-color="#75DCFF"/>
<stop offset="0.178138" stop-color="#2653EA"/>
<stop offset="1" stop-color="#FF6EEE"/>
</linearGradient>
<linearGradient id="paint23_linear_1482_891" x1="7.53074" y1="12.1244" x2="4.38494" y2="11.483" gradientUnits="userSpaceOnUse">
<stop stop-color="#75DCFF"/>
<stop offset="0.178138" stop-color="#2653EA"/>
<stop offset="1" stop-color="#FF6EEE"/>
</linearGradient>
<linearGradient id="paint24_linear_1482_891" x1="13.4139" y1="18.9996" x2="9.14237" y2="18.1224" gradientUnits="userSpaceOnUse">
<stop stop-color="#75DCFF"/>
<stop offset="0.178138" stop-color="#2653EA"/>
<stop offset="1" stop-color="#FF6EEE"/>
</linearGradient>
<clipPath id="clip0_1482_891">
<rect width="24" height="24" fill="white" transform="translate(0 0.0999756)"/>
</clipPath>
</defs>
</svg>
