<svg width="24" height="24" viewBox="0 0 24 24" fill="none" xmlns="http://www.w3.org/2000/svg">
<path d="M6.01966 14.0463C6.01966 14.0706 6.01741 14.0948 6.01241 14.1188C6.00766 14.1428 6.00066 14.1661 5.99141 14.1888C5.98191 14.2113 5.97041 14.2328 5.95691 14.2531C5.94341 14.2736 5.92791 14.2923 5.91066 14.3096C5.89316 14.3268 5.87441 14.3423 5.85416 14.3558C5.83366 14.3696 5.81216 14.3811 5.78966 14.3903C5.76716 14.3996 5.74366 14.4068 5.71966 14.4116C5.69566 14.4163 5.67166 14.4186 5.64716 14.4186C5.62266 14.4186 5.59841 14.4163 5.57441 14.4116C5.55041 14.4068 5.52716 14.3996 5.50441 14.3903C5.48191 14.3811 5.46041 14.3696 5.44016 14.3558C5.41966 14.3423 5.40091 14.3268 5.38366 14.3096C5.36641 14.2923 5.35091 14.2736 5.33716 14.2531C5.32366 14.2328 5.31216 14.2113 5.30291 14.1888C5.29341 14.1661 5.28641 14.1428 5.28166 14.1188C5.27691 14.0948 5.27441 14.0706 5.27441 14.0463C5.27441 14.0218 5.27691 13.9976 5.28166 13.9736C5.28641 13.9496 5.29341 13.9263 5.30291 13.9036C5.31216 13.8811 5.32366 13.8596 5.33716 13.8393C5.35091 13.8188 5.36641 13.8001 5.38366 13.7828C5.40091 13.7656 5.41966 13.7501 5.44016 13.7366C5.46041 13.7228 5.48191 13.7113 5.50441 13.7021C5.52716 13.6928 5.55041 13.6856 5.57441 13.6808C5.59841 13.6761 5.62266 13.6738 5.64716 13.6738C5.67166 13.6738 5.69566 13.6761 5.71966 13.6808C5.74366 13.6856 5.76716 13.6928 5.78966 13.7021C5.81216 13.7113 5.83366 13.7228 5.85416 13.7366C5.87441 13.7501 5.89316 13.7656 5.91066 13.7828C5.92791 13.8001 5.94341 13.8188 5.95691 13.8393C5.97041 13.8596 5.98191 13.8811 5.99141 13.9036C6.00066 13.9263 6.00766 13.9496 6.01241 13.9736C6.01741 13.9976 6.01966 14.0218 6.01966 14.0463Z" fill="#7D126B"/>
<path d="M3.97035 7.69452C3.97035 7.71902 3.96785 7.74327 3.9631 7.76727C3.95835 7.79127 3.95135 7.81452 3.94185 7.83727C3.9326 7.85977 3.9211 7.88127 3.9076 7.90152C3.89385 7.92202 3.8786 7.94077 3.8611 7.95802C3.84385 7.97527 3.8251 7.99077 3.8046 8.00427C3.78435 8.01802 3.76285 8.02927 3.74035 8.03877C3.7176 8.04802 3.69435 8.05527 3.67035 8.06002C3.64635 8.06477 3.6221 8.06702 3.5976 8.06702C3.57335 8.06702 3.5491 8.06477 3.5251 8.06002C3.5011 8.05527 3.47785 8.04802 3.4551 8.03877C3.4326 8.02927 3.4111 8.01802 3.3906 8.00427C3.37035 7.99077 3.3516 7.97527 3.33435 7.95802C3.31685 7.94077 3.3016 7.92202 3.28785 7.90152C3.27435 7.88127 3.26285 7.85977 3.2536 7.83727C3.2441 7.81452 3.2371 7.79127 3.23235 7.76727C3.2276 7.74327 3.2251 7.71902 3.2251 7.69452C3.2251 7.67027 3.2276 7.64602 3.23235 7.62202C3.2371 7.59802 3.2441 7.57477 3.2536 7.55202C3.26285 7.52952 3.27435 7.50802 3.28785 7.48777C3.3016 7.46727 3.31685 7.44852 3.33435 7.43127C3.3516 7.41402 3.37035 7.39852 3.3906 7.38502C3.4111 7.37127 3.4326 7.35977 3.4551 7.35052C3.47785 7.34102 3.5011 7.33402 3.5251 7.32927C3.5491 7.32452 3.57335 7.32227 3.5976 7.32227C3.6221 7.32227 3.64635 7.32452 3.67035 7.32927C3.69435 7.33402 3.7176 7.34102 3.74035 7.35052C3.76285 7.35977 3.78435 7.37127 3.8046 7.38502C3.8251 7.39852 3.84385 7.41402 3.8611 7.43127C3.8786 7.44852 3.89385 7.46727 3.9076 7.48777C3.9211 7.50802 3.9326 7.52952 3.94185 7.55202C3.95135 7.57477 3.95835 7.59802 3.9631 7.62202C3.96785 7.64602 3.97035 7.67027 3.97035 7.69452Z" fill="#7D126B"/>
<path d="M15.1484 7.82509V8.34659C15.1484 8.75634 15.4092 9.09159 15.7819 9.22184C15.7259 9.35234 15.6887 9.48259 15.6887 9.63159C15.6887 9.87359 15.7819 10.1158 15.9494 10.2833L16.3034 10.6373C16.4712 10.8048 16.7134 10.8981 16.9554 10.8981C17.1044 10.8981 17.2349 10.8608 17.3654 10.8048C17.4772 11.1773 17.8312 11.4381 18.2409 11.4381H18.7627C19.1724 11.4381 19.5079 11.1773 19.6382 10.8048C19.7687 10.8608 19.8989 10.8981 20.0482 10.8981C20.2902 10.8981 20.5139 10.8048 20.7002 10.6373L21.0542 10.2648C21.2217 10.0971 21.3149 9.87359 21.3149 9.61309C21.3149 9.46409 21.2777 9.33359 21.2217 9.20334C21.5944 9.09159 21.8552 8.73759 21.8552 8.32784V7.80634C21.8552 7.39659 21.5944 7.06159 21.2217 6.93109C21.2777 6.80084 21.3149 6.67034 21.3149 6.52134C21.3149 6.27934 21.2217 6.03709 21.0354 5.86959L20.6814 5.51559C20.5139 5.34809 20.2717 5.25484 20.0294 5.25484C19.8804 5.25484 19.7499 5.29209 19.6197 5.34809C19.5079 4.97559 19.1539 4.71484 18.7439 4.71484H18.2224C17.8124 4.71484 17.4772 4.97559 17.3467 5.34809C17.2164 5.29209 17.0859 5.25484 16.9369 5.25484C16.6947 5.25484 16.4712 5.34809 16.2849 5.51559L15.9122 5.88809C15.7447 6.05584 15.6514 6.29784 15.6514 6.54009C15.6514 6.68909 15.6887 6.81934 15.7447 6.94984C15.4092 7.08009 15.1484 7.41534 15.1484 7.82509ZM15.8937 7.82509C15.8937 7.73184 15.9682 7.65734 16.0612 7.65734H16.3222C16.4152 7.65734 16.5084 7.58284 16.5457 7.48984C16.5829 7.35934 16.6387 7.22909 16.6947 7.11734C16.7319 7.02434 16.7319 6.91259 16.6574 6.83809L16.4712 6.65184C16.3967 6.57734 16.3967 6.48409 16.4712 6.40959L16.8252 6.05584C16.8809 5.99984 16.9927 5.98134 17.0672 6.05584L17.2537 6.24209C17.3282 6.31659 17.4399 6.31659 17.5329 6.27934C17.6449 6.22334 17.7752 6.16759 17.9057 6.13034C17.9987 6.09309 18.0734 6.01859 18.0734 5.90684V5.64609C18.0734 5.55284 18.1479 5.47834 18.2409 5.47834H18.7627C18.8557 5.47834 18.9302 5.55284 18.9302 5.64609V5.90684C18.9302 5.99984 19.0049 6.09309 19.0979 6.13034C19.2284 6.16759 19.3587 6.22334 19.4707 6.27934C19.5637 6.31659 19.6754 6.31659 19.7499 6.24209L19.9364 6.05584C19.9922 5.99984 20.1039 5.99984 20.1784 6.05584L20.5324 6.40959C20.6069 6.48409 20.6069 6.57734 20.5324 6.65184L20.3462 6.83809C20.2717 6.91259 20.2717 7.02434 20.3089 7.11734C20.3647 7.22909 20.4207 7.35934 20.4579 7.48984C20.4767 7.58284 20.5697 7.65734 20.6814 7.65734H20.9424C21.0354 7.65734 21.1099 7.73184 21.1099 7.82509V8.34659C21.1099 8.43959 21.0354 8.51409 20.9424 8.51409H20.6814C20.5884 8.51409 20.4952 8.58859 20.4579 8.68184C20.4207 8.81209 20.3647 8.94259 20.3089 9.05434C20.2717 9.14734 20.2717 9.25909 20.3462 9.33359L20.5324 9.51984C20.6069 9.59434 20.6069 9.68734 20.5324 9.76184L20.1784 10.1158C20.1227 10.1716 20.0109 10.1903 19.9364 10.1158L19.7499 9.92959C19.6754 9.85509 19.5637 9.85509 19.4707 9.89234C19.3587 9.94809 19.2284 10.0041 19.0979 10.0413C19.0049 10.0598 18.9302 10.1531 18.9302 10.2648V10.5256C18.9302 10.6186 18.8557 10.6931 18.7627 10.6931H18.2409C18.1479 10.6931 18.0734 10.6186 18.0734 10.5256V10.2648C18.0734 10.1716 17.9987 10.0786 17.9057 10.0413C17.7752 10.0041 17.6449 9.94809 17.5329 9.89234C17.4399 9.85509 17.3282 9.85509 17.2537 9.92959L17.0672 10.1158C17.0114 10.1716 16.8809 10.1716 16.8252 10.1158L16.4712 9.76184C16.3967 9.68734 16.3967 9.59434 16.4712 9.51984L16.6574 9.33359C16.7319 9.25909 16.7319 9.14734 16.6947 9.05434C16.6387 8.94259 16.5829 8.81209 16.5457 8.68184C16.5269 8.58859 16.4339 8.51409 16.3222 8.51409H16.0612C15.9682 8.51409 15.8937 8.43959 15.8937 8.34659V7.82509Z" fill="#7D126B"/>
<path d="M18.5018 9.3907C19.2285 9.3907 19.806 8.8132 19.806 8.08695C19.806 7.36045 19.2285 6.7832 18.5018 6.7832C17.7753 6.7832 17.1978 7.36045 17.1978 8.08695C17.1978 8.8132 17.7753 9.3907 18.5018 9.3907ZM18.5018 7.5282C18.8185 7.5282 19.0608 7.7702 19.0608 8.08695C19.0608 8.40345 18.8185 8.6457 18.5018 8.6457C18.1853 8.6457 17.943 8.40345 17.943 8.08695C17.943 7.7702 18.1853 7.5282 18.5018 7.5282Z" fill="#7D126B"/>
<path d="M5.64742 15.7218C4.71592 15.7218 3.97067 14.9768 3.97067 14.0458C3.97067 13.1145 4.71592 12.3695 5.64742 12.3695C6.57892 12.3695 7.32392 13.1145 7.32392 14.0458C7.32392 14.418 7.21217 14.7533 7.00742 15.0328C7.30542 14.9395 7.62217 14.865 7.95742 14.7905C8.03192 14.5485 8.06917 14.3065 8.06917 14.0458C8.06917 13.338 7.75242 12.7048 7.26817 12.2578L6.01992 8.83102H8.83317C9.07517 8.83102 9.28017 8.68202 9.35467 8.45852H10.4912V9.81802C10.4912 9.96702 10.5469 10.116 10.6589 10.209L11.4227 11.01V11.5128C11.4227 11.7178 11.5904 11.8853 11.7952 11.8853C12.0002 11.8853 12.1679 11.7178 12.1679 11.5128V11.01L12.9317 10.209C13.0434 10.0973 13.0994 9.96702 13.0994 9.81802V8.38402C13.3229 8.10452 13.4719 7.73202 13.4719 7.34102C13.4719 6.40977 12.7267 5.66477 11.7952 5.66477C11.2922 5.66477 10.8637 5.88827 10.5469 6.22352H9.35467C9.28017 6.00002 9.07517 5.85102 8.83317 5.85102H4.82767C4.47367 5.60902 4.04517 5.47852 3.59792 5.47852C2.36842 5.47852 1.36242 6.48427 1.36242 7.71352C1.36242 8.19777 1.53017 8.64477 1.79092 9.01727L3.41167 13.1145C3.28142 13.4125 3.22542 13.729 3.22542 14.0458C3.22542 14.232 3.24417 14.3995 3.28142 14.567L0.114167 19.968C0.0024172 20.1543 0.0769172 20.3778 0.244667 20.471C0.412417 20.564 0.654417 20.5083 0.747667 20.3405L2.08892 18.0685L2.74117 18.4968C2.90867 18.6085 3.15092 18.5713 3.26267 18.385C3.37442 18.2175 3.33717 17.9753 3.15092 17.8635L2.46167 17.4165L3.63542 15.4053C3.97067 15.908 4.51092 16.262 5.10717 16.3923C5.25617 16.1503 5.44242 15.908 5.64742 15.7218ZM11.7952 10.3395L11.2364 9.74352V8.92402C11.4039 8.98002 11.5904 9.01727 11.7952 9.01727C12.0002 9.01727 12.1864 8.98002 12.3542 8.92402V9.74352L11.7952 10.3395ZM11.7952 6.40977C12.3169 6.40977 12.7267 6.81952 12.7267 7.34102C12.7267 7.86252 12.3169 8.27227 11.7952 8.27227C11.2737 8.27227 10.8637 7.86252 10.8637 7.34102C10.8637 6.81952 11.2737 6.40977 11.7952 6.40977ZM9.18692 6.96852H10.1559C10.1372 7.08027 10.1184 7.21077 10.1184 7.34102C10.1184 7.47127 10.1372 7.60177 10.1559 7.71352H9.18692C8.94492 7.71352 8.73992 7.86252 8.66542 8.08602C8.66542 8.08602 5.81492 8.08602 5.79642 8.08602C5.81492 7.95552 5.83367 7.84377 5.83367 7.71352C5.83367 7.30377 5.72192 6.93127 5.53567 6.59602H8.68392C8.73992 6.81952 8.94492 6.96852 9.18692 6.96852ZM3.59792 6.22352C4.41767 6.22352 5.08842 6.89402 5.08842 7.71352C5.08842 8.53302 4.41767 9.20352 3.59792 9.20352C2.77842 9.20352 2.10767 8.53302 2.10767 7.71352C2.10767 6.89402 2.77842 6.22352 3.59792 6.22352ZM2.90867 9.83652C3.13217 9.91102 3.35592 9.94827 3.59792 9.94827C4.28742 9.94827 4.92067 9.63177 5.33067 9.12902L6.28067 11.7178C6.07592 11.6618 5.87092 11.6245 5.64742 11.6245C4.97667 11.6245 4.36192 11.904 3.91467 12.3508L2.90867 9.83652Z" fill="#7D126B"/>
<path d="M12.894 19.0742C12.9125 19.2047 12.9313 19.3165 12.9313 19.4467C12.9313 19.5772 12.9125 19.689 12.894 19.8192H17.421C17.4025 19.689 17.3838 19.5772 17.3838 19.4467C17.3838 19.3165 17.4025 19.2047 17.421 19.0742H12.894Z" fill="#7D126B"/>
<path d="M23.7745 18.4597C23.5135 17.8637 23.5507 16.6532 23.588 16.2435C23.588 16.225 23.6252 15.2377 22.0977 15.182C21.9115 15.182 21.725 15.126 21.6132 15.0887C21.073 14.8652 20.5327 14.4182 20.1602 13.8597C19.3962 12.7235 18.0177 12.7422 17.9617 12.7422C17.9617 12.7422 13.77 12.7422 13.7515 12.7422C12.5592 12.8352 11.4227 14.0832 11.2922 14.2507C10.1932 15.3122 8.73996 15.4427 8.73996 15.4427C7.65946 15.5357 6.65346 15.8897 6.24346 16.2062C5.90821 16.4485 5.68471 16.8395 5.64746 17.2492C5.64746 17.2677 5.64746 18.199 5.64746 18.9067C5.64746 19.4095 6.07596 19.8192 6.57896 19.8192H7.73396C7.71521 19.689 7.69671 19.5772 7.69671 19.4467C7.69671 19.3165 7.71521 19.2047 7.73396 19.0742H6.57896C6.46721 19.0742 6.39246 18.9997 6.39246 18.8882C6.39246 18.255 6.39246 17.4355 6.39246 17.2865C6.41121 17.0815 6.52296 16.8952 6.69071 16.7835C6.97021 16.5787 7.80846 16.2435 8.81446 16.169C8.88896 16.169 10.547 16.02 11.8512 14.7535C11.8512 14.7535 12.913 13.5245 13.826 13.4685H17.999C18.0177 13.4685 19.0425 13.4685 19.5827 14.2507C20.0485 14.9397 20.7005 15.48 21.3897 15.7592C21.576 15.8337 21.7997 15.871 22.0417 15.9082C22.4702 15.9642 22.843 16.0387 22.8802 16.2062C22.8615 16.4857 22.7685 17.8825 23.1037 18.7205C23.141 18.8322 23.1595 18.9627 23.1595 19.0742H22.6007C22.6192 19.2047 22.638 19.3165 22.638 19.4467C22.638 19.5772 22.6192 19.689 22.6007 19.8192H23.5135C23.6812 19.8192 23.8117 19.7075 23.8675 19.5585C23.998 19.1675 23.793 18.4597 23.7745 18.4597Z" fill="#7D126B"/>
<mask id="mask0_1927_7369" style="mask-type:luminance" maskUnits="userSpaceOnUse" x="8" y="17" width="5" height="5">
<path d="M8.44824 17.5352H12.2242V21.3082H8.44824V17.5352Z" fill="white"/>
</mask>
<g mask="url(#mask0_1927_7369)">
<path d="M10.3234 17.584C9.29895 17.584 8.46045 18.422 8.46045 19.4462C8.46045 20.4707 9.29895 21.3087 10.3234 21.3087C11.3482 21.3087 12.1864 20.4707 12.1864 19.4462C12.1864 18.422 11.3482 17.584 10.3234 17.584ZM10.3234 20.5637C9.7087 20.5637 9.2057 20.061 9.2057 19.4462C9.2057 18.8317 9.7087 18.329 10.3234 18.329C10.9382 18.329 11.4412 18.8317 11.4412 19.4462C11.4412 20.061 10.9382 20.5637 10.3234 20.5637Z" fill="#7D126B"/>
</g>
<mask id="mask1_1927_7369" style="mask-type:luminance" maskUnits="userSpaceOnUse" x="18" y="17" width="4" height="5">
<path d="M18.1118 17.5352H21.8878V21.3082H18.1118V17.5352Z" fill="white"/>
</mask>
<g mask="url(#mask1_1927_7369)">
<path d="M20.0109 17.584C18.9862 17.584 18.1479 18.422 18.1479 19.4462C18.1479 20.4707 18.9862 21.3087 20.0109 21.3087C21.0354 21.3087 21.8739 20.4707 21.8739 19.4462C21.8739 18.422 21.0354 17.584 20.0109 17.584ZM20.0109 20.5637C19.3959 20.5637 18.8929 20.061 18.8929 19.4462C18.8929 18.8317 19.3959 18.329 20.0109 18.329C20.6257 18.329 21.1287 18.8317 21.1287 19.4462C21.1287 20.061 20.6257 20.5637 20.0109 20.5637Z" fill="#7D126B"/>
</g>
<path d="M19.2468 16.4663C19.3958 16.4663 19.5263 16.3733 19.6008 16.2428C19.6568 16.0938 19.6196 15.9448 19.5078 15.833C19.3028 15.6283 19.1351 15.386 18.9488 15.144C18.8743 15.0508 18.7998 14.939 18.7438 14.846C18.4458 14.4548 17.9986 14.25 17.4398 14.25H14.2353C13.3971 14.25 12.5028 15.5165 12.2421 15.9075C12.1676 16.0193 12.1676 16.1683 12.2233 16.2988C12.2793 16.429 12.4096 16.5035 12.5588 16.5035H19.2468V16.4663ZM18.1478 15.2743C18.2223 15.3675 18.4271 15.6655 18.4643 15.7213H16.2661V14.9763H17.4398C17.7566 14.9763 17.9986 15.0695 18.1478 15.2743ZM14.2353 14.9763H15.5208V15.7213H13.2853C13.6393 15.3115 14.0306 14.9763 14.2353 14.9763Z" fill="#7D126B"/>
<path d="M20.3834 19.4467C20.3834 19.4712 20.3809 19.4955 20.3762 19.5195C20.3714 19.5435 20.3644 19.5667 20.3552 19.5895C20.3457 19.612 20.3342 19.6335 20.3207 19.6537C20.3069 19.674 20.2917 19.693 20.2742 19.7102C20.2569 19.7275 20.2382 19.743 20.2179 19.7565C20.1974 19.7702 20.1759 19.7815 20.1534 19.791C20.1309 19.8002 20.1074 19.8075 20.0834 19.8122C20.0594 19.817 20.0352 19.8192 20.0109 19.8192C19.9864 19.8192 19.9622 19.817 19.9382 19.8122C19.9142 19.8075 19.8909 19.8002 19.8682 19.791C19.8457 19.7815 19.8242 19.7702 19.8039 19.7565C19.7834 19.743 19.7647 19.7275 19.7474 19.7102C19.7302 19.693 19.7147 19.674 19.7009 19.6537C19.6874 19.6335 19.6759 19.612 19.6667 19.5895C19.6572 19.5667 19.6502 19.5435 19.6454 19.5195C19.6407 19.4955 19.6382 19.4712 19.6382 19.4467C19.6382 19.4225 19.6407 19.3982 19.6454 19.3742C19.6502 19.3502 19.6572 19.327 19.6667 19.3042C19.6759 19.2817 19.6874 19.2602 19.7009 19.24C19.7147 19.2195 19.7302 19.2007 19.7474 19.1835C19.7647 19.1662 19.7834 19.1507 19.8039 19.1372C19.8242 19.1235 19.8457 19.112 19.8682 19.1027C19.8909 19.0932 19.9142 19.0862 19.9382 19.0815C19.9622 19.0767 19.9864 19.0742 20.0109 19.0742C20.0352 19.0742 20.0594 19.0767 20.0834 19.0815C20.1074 19.0862 20.1309 19.0932 20.1534 19.1027C20.1759 19.112 20.1974 19.1235 20.2179 19.1372C20.2382 19.1507 20.2569 19.1662 20.2742 19.1835C20.2917 19.2007 20.3069 19.2195 20.3207 19.24C20.3342 19.2602 20.3457 19.2817 20.3552 19.3042C20.3644 19.327 20.3714 19.3502 20.3762 19.3742C20.3809 19.3982 20.3834 19.4225 20.3834 19.4467Z" fill="#7D126B"/>
<path d="M10.6959 19.4467C10.6959 19.4712 10.6934 19.4955 10.6887 19.5195C10.6839 19.5435 10.6769 19.5667 10.6674 19.5895C10.6582 19.612 10.6467 19.6335 10.6329 19.6537C10.6194 19.674 10.6039 19.693 10.5867 19.7102C10.5694 19.7275 10.5507 19.743 10.5302 19.7565C10.5099 19.7702 10.4884 19.7815 10.4659 19.791C10.4432 19.8002 10.4199 19.8075 10.3959 19.8122C10.3719 19.817 10.3477 19.8192 10.3232 19.8192C10.2987 19.8192 10.2744 19.817 10.2504 19.8122C10.2264 19.8075 10.2032 19.8002 10.1807 19.791C10.1579 19.7815 10.1367 19.7702 10.1162 19.7565C10.0959 19.743 10.0772 19.7275 10.0597 19.7102C10.0424 19.693 10.0269 19.674 10.0134 19.6537C9.99993 19.6335 9.98843 19.612 9.97893 19.5895C9.96968 19.5667 9.96268 19.5435 9.95768 19.5195C9.95293 19.4955 9.95068 19.4712 9.95068 19.4467C9.95068 19.4225 9.95293 19.3982 9.95768 19.3742C9.96268 19.3502 9.96968 19.327 9.97893 19.3042C9.98843 19.2817 9.99993 19.2602 10.0134 19.24C10.0269 19.2195 10.0424 19.2007 10.0597 19.1835C10.0772 19.1662 10.0959 19.1507 10.1162 19.1372C10.1367 19.1235 10.1579 19.112 10.1807 19.1027C10.2032 19.0932 10.2264 19.0862 10.2504 19.0815C10.2744 19.0767 10.2987 19.0742 10.3232 19.0742C10.3477 19.0742 10.3719 19.0767 10.3959 19.0815C10.4199 19.0862 10.4432 19.0932 10.4659 19.1027C10.4884 19.112 10.5099 19.1235 10.5302 19.1372C10.5507 19.1507 10.5694 19.1662 10.5867 19.1835C10.6039 19.2007 10.6194 19.2195 10.6329 19.24C10.6467 19.2602 10.6582 19.2817 10.6674 19.3042C10.6769 19.327 10.6839 19.3502 10.6887 19.3742C10.6934 19.3982 10.6959 19.4225 10.6959 19.4467Z" fill="#7D126B"/>
<mask id="mask2_1927_7369" style="mask-type:luminance" maskUnits="userSpaceOnUse" x="6" y="2" width="18" height="13">
<path d="M6.01611 2.68555H23.9361V14.2725H6.01611V2.68555Z" fill="white"/>
</mask>
<g mask="url(#mask2_1927_7369)">
<path d="M22.787 2.68555H7.13777C6.52302 2.68555 6.02002 3.1883 6.02002 3.80305V5.10655H6.76527V3.80305C6.76527 3.59805 6.93302 3.43055 7.13777 3.43055H22.787C22.992 3.43055 23.1595 3.59805 23.1595 3.80305V13.115C23.1595 13.3198 22.992 13.4875 22.787 13.4875H20.8308C21.0358 13.7855 21.3153 14.0463 21.5948 14.2325H22.7685C23.3833 14.2325 23.8863 13.7295 23.8863 13.115V3.80305C23.9048 3.1883 23.4018 2.68555 22.787 2.68555Z" fill="#7D126B"/>
</g>
</svg>
