<svg width="24" height="24" viewBox="0 0 24 24" fill="none" xmlns="http://www.w3.org/2000/svg">
<g clip-path="url(#clip0_1927_7371)">
<mask id="mask0_1927_7371" style="mask-type:luminance" maskUnits="userSpaceOnUse" x="4" y="0" width="15" height="12">
<path d="M4.54395 0.75H18.9439V11.456H4.54395V0.75Z" fill="white"/>
</mask>
<g mask="url(#mask0_1927_7371)">
<path d="M15.3938 8.9105L16.3125 8.42275C16.8188 8.38525 17.3438 8.648 17.5875 9.117V9.13575C17.7375 9.417 18.0375 9.56725 18.3375 9.49225C18.6375 9.417 18.8625 9.17325 18.8813 8.85425C18.9 8.2165 18.7313 7.5975 18.375 7.072C17.7563 6.11525 16.65 5.6275 15.5625 5.759L14.175 3.15125C14.2313 2.9825 14.25 2.8135 14.25 2.626C14.25 1.59425 13.4063 0.75 12.375 0.75C11.3438 0.75 10.5 1.59425 10.5 2.626C10.5 2.6635 10.5 2.701 10.5 2.7385L4.59375 7.91625C4.74375 7.87875 4.9125 7.87875 5.0625 7.87875C5.2875 7.87875 5.49375 7.91625 5.68125 7.95375L10.725 3.5265C10.8375 3.73275 11.0063 3.9205 11.1938 4.08925L6.91875 8.648C7.10625 8.8355 7.25625 9.042 7.36875 9.267L11.9063 4.44575C12.0375 4.48325 12.1688 4.502 12.3188 4.502L13.575 6.847C13.35 7.1285 13.1625 7.44725 13.05 7.80375C12.7875 8.59175 12.8625 9.436 13.2563 10.1675C13.5 10.6365 13.875 11.0305 14.325 11.293C14.4375 11.3683 14.5688 11.4058 14.6813 11.4058C14.85 11.4058 15.0188 11.3495 15.15 11.218C15.375 10.993 15.4313 10.6553 15.2813 10.355C15.1125 10.0363 15.075 9.67975 15.1875 9.342C15.225 9.17325 15.3 9.042 15.3938 8.9105ZM17.775 7.48475C18 7.8225 18.1125 8.19775 18.15 8.573C17.7938 8.04775 17.2313 7.72875 16.6125 7.6725L15.975 6.47175C16.6688 6.50925 17.3625 6.86575 17.775 7.48475ZM15.825 7.8225L15.1313 8.19775L13.0688 4.37075C13.3125 4.277 13.5375 4.108 13.7063 3.9205L15.825 7.8225ZM12.375 1.5005C12.9938 1.5005 13.5 2.007 13.5 2.626C13.5 3.245 12.9938 3.7515 12.375 3.7515C11.7563 3.7515 11.25 3.245 11.25 2.626C11.25 2.007 11.7563 1.5005 12.375 1.5005ZM13.9125 9.79225C13.6125 9.24825 13.5563 8.6105 13.7625 8.029C13.8188 7.86 13.8938 7.71 13.9688 7.57875L14.6063 8.7605C14.55 8.873 14.5125 8.967 14.475 9.0795C14.325 9.5485 14.3438 10.055 14.5313 10.5053C14.2688 10.3175 14.0625 10.0738 13.9125 9.79225Z" fill="#7D126B"/>
</g>
<mask id="mask1_1927_7371" style="mask-type:luminance" maskUnits="userSpaceOnUse" x="0" y="12" width="10" height="12">
<path d="M0 12.5449H9.792V23.2629H0V12.5449Z" fill="white"/>
</mask>
<g mask="url(#mask1_1927_7371)">
<path d="M0.375 23.2632H9.375C9.58125 23.2632 9.75 23.0944 9.75 22.8879V21.3872C9.75 20.9744 9.4125 20.6367 9 20.6367H8.25V19.1359C8.25 18.7232 7.9125 18.3857 7.5 18.3857H6.95625L6.525 12.6824C6.3 12.8327 6.05625 12.9452 5.79375 13.0202L6.20625 18.3104H3.84375L4.25625 12.9827C3.99375 12.8889 3.75 12.7764 3.525 12.6074L3.09375 18.3857H2.25C1.8375 18.3857 1.5 18.7232 1.5 19.1359V20.6367H0.75C0.3375 20.6367 0 20.9744 0 21.3872V22.8879C0 23.0944 0.16875 23.2632 0.375 23.2632ZM2.25 19.1359H7.5V20.6367H2.25V19.1359ZM0.75 21.3872H9V22.5127H0.75V21.3872Z" fill="#7D126B"/>
</g>
<path d="M3.1875 10.5049C3.1875 11.5367 4.03125 12.3809 5.0625 12.3809C6.09375 12.3809 6.9375 11.5367 6.9375 10.5049C6.9375 9.47316 6.09375 8.62891 5.0625 8.62891C4.03125 8.62891 3.1875 9.47316 3.1875 10.5049ZM5.0625 9.37916C5.68125 9.37916 6.1875 9.88566 6.1875 10.5049C6.1875 11.1239 5.68125 11.6304 5.0625 11.6304C4.44375 11.6304 3.9375 11.1239 3.9375 10.5049C3.9375 9.88566 4.44375 9.37916 5.0625 9.37916Z" fill="#7D126B"/>
<path d="M5.625 10.5061C5.625 10.5431 5.6215 10.5796 5.61425 10.6159C5.607 10.6521 5.59625 10.6874 5.58225 10.7214C5.568 10.7556 5.55075 10.7881 5.53025 10.8186C5.50975 10.8494 5.48625 10.8779 5.46025 10.9041C5.43425 10.9301 5.40575 10.9534 5.375 10.9741C5.34425 10.9946 5.312 11.0119 5.27775 11.0261C5.24375 11.0401 5.2085 11.0509 5.17225 11.0581C5.136 11.0654 5.0995 11.0689 5.0625 11.0689C5.0255 11.0689 4.989 11.0654 4.95275 11.0581C4.9165 11.0509 4.88125 11.0401 4.84725 11.0261C4.813 11.0119 4.78075 10.9946 4.75 10.9741C4.71925 10.9534 4.69075 10.9301 4.66475 10.9041C4.63875 10.8779 4.61525 10.8494 4.59475 10.8186C4.57425 10.7881 4.557 10.7556 4.54275 10.7214C4.52875 10.6874 4.518 10.6521 4.51075 10.6159C4.5035 10.5796 4.5 10.5431 4.5 10.5061C4.5 10.4691 4.5035 10.4326 4.51075 10.3964C4.518 10.3601 4.52875 10.3249 4.54275 10.2906C4.557 10.2566 4.57425 10.2241 4.59475 10.1934C4.61525 10.1626 4.63875 10.1341 4.66475 10.1081C4.69075 10.0819 4.71925 10.0586 4.75 10.0381C4.78075 10.0176 4.813 10.0004 4.84725 9.98611C4.88125 9.97186 4.9165 9.96136 4.95275 9.95411C4.989 9.94686 5.0255 9.94336 5.0625 9.94336C5.0995 9.94336 5.136 9.94686 5.17225 9.95411C5.2085 9.96136 5.24375 9.97186 5.27775 9.98611C5.312 10.0004 5.34425 10.0176 5.375 10.0381C5.40575 10.0586 5.43425 10.0819 5.46025 10.1081C5.48625 10.1341 5.50975 10.1626 5.53025 10.1934C5.55075 10.2241 5.568 10.2566 5.58225 10.2906C5.59625 10.3249 5.607 10.3601 5.61425 10.3964C5.6215 10.4326 5.625 10.4691 5.625 10.5061Z" fill="#7D126B"/>
<path d="M12.9375 2.62525C12.9375 2.66225 12.934 2.69875 12.9268 2.735C12.9195 2.77125 12.9088 2.8065 12.8948 2.8405C12.8805 2.87475 12.8633 2.90725 12.8428 2.938C12.8223 2.96875 12.7988 2.997 12.7728 3.02325C12.7468 3.04925 12.7182 3.07275 12.6875 3.09325C12.6568 3.11375 12.6245 3.131 12.5903 3.14525C12.5563 3.15925 12.521 3.17 12.4848 3.17725C12.4485 3.1845 12.412 3.188 12.375 3.188C12.338 3.188 12.3015 3.1845 12.2653 3.17725C12.229 3.17 12.1938 3.15925 12.1598 3.14525C12.1255 3.131 12.0933 3.11375 12.0625 3.09325C12.0318 3.07275 12.0033 3.04925 11.9773 3.02325C11.9513 2.997 11.9278 2.96875 11.9073 2.938C11.8868 2.90725 11.8695 2.87475 11.8553 2.8405C11.8413 2.8065 11.8305 2.77125 11.8233 2.735C11.816 2.69875 11.8125 2.66225 11.8125 2.62525C11.8125 2.58825 11.816 2.55175 11.8233 2.5155C11.8305 2.47925 11.8413 2.444 11.8553 2.41C11.8695 2.37575 11.8868 2.34325 11.9073 2.3125C11.9278 2.28175 11.9513 2.2535 11.9773 2.22725C12.0033 2.20125 12.0318 2.17775 12.0625 2.15725C12.0933 2.13675 12.1255 2.1195 12.1598 2.10525C12.1938 2.09125 12.229 2.0805 12.2653 2.07325C12.3015 2.066 12.338 2.0625 12.375 2.0625C12.412 2.0625 12.4485 2.066 12.4848 2.07325C12.521 2.0805 12.5563 2.09125 12.5903 2.10525C12.6245 2.1195 12.6568 2.13675 12.6875 2.15725C12.7182 2.17775 12.7468 2.20125 12.7728 2.22725C12.7988 2.2535 12.8223 2.28175 12.8428 2.3125C12.8633 2.34325 12.8805 2.37575 12.8948 2.41C12.9088 2.444 12.9195 2.47925 12.9268 2.5155C12.934 2.55175 12.9375 2.58825 12.9375 2.62525Z" fill="#7D126B"/>
<path d="M18.5625 15.3828C17.2125 15.3828 16.125 16.4711 16.125 17.8216C16.125 19.1723 17.2125 20.2606 18.5625 20.2606C19.9125 20.2606 21 19.1723 21 17.8216C21 16.4711 19.9125 15.3828 18.5625 15.3828ZM18.5625 19.5101C17.625 19.5101 16.875 18.7596 16.875 17.8216C16.875 16.8836 17.625 16.1333 18.5625 16.1333C19.5 16.1333 20.25 16.8836 20.25 17.8216C20.25 18.7596 19.5 19.5101 18.5625 19.5101Z" fill="#7D126B"/>
<mask id="mask2_1927_7371" style="mask-type:luminance" maskUnits="userSpaceOnUse" x="13" y="12" width="11" height="12">
<path d="M13.1201 12.3516H24.0001V23.2616H13.1201V12.3516Z" fill="white"/>
</mask>
<g mask="url(#mask2_1927_7371)">
<path d="M23.25 16.6964H22.9125C22.8 16.2836 22.65 15.8896 22.425 15.5334L22.7438 15.2144C22.8938 15.0644 22.9688 14.8766 22.9688 14.6891C22.9688 14.4826 22.8938 14.2951 22.7438 14.1639L22.2188 13.6384C22.0688 13.4884 21.8813 13.4134 21.6938 13.4134C21.4875 13.4134 21.3 13.4884 21.1688 13.6384L20.85 13.9574C20.55 13.7699 20.2125 13.6384 19.875 13.5259V13.1506C19.875 12.7381 19.5375 12.4004 19.125 12.4004H18.375C17.9625 12.4004 17.625 12.7381 17.625 13.1506V13.4321C17.1563 13.5259 16.6875 13.7136 16.275 13.9574L15.9563 13.6384C15.8063 13.4884 15.6188 13.4134 15.4313 13.4134C15.225 13.4134 15.0375 13.4884 14.9063 13.6384L14.3813 14.1639C14.2313 14.3139 14.1563 14.5014 14.1563 14.6891C14.1563 14.8954 14.2313 15.0831 14.3813 15.2144L14.7 15.5334C14.475 15.8896 14.325 16.2836 14.2125 16.6964H13.875C13.4625 16.6964 13.125 17.0341 13.125 17.4469V18.1971C13.125 18.6099 13.4625 18.9476 13.875 18.9476H14.2125C14.325 19.3604 14.475 19.7544 14.7 20.1106L14.3813 20.4296C14.2313 20.5796 14.1563 20.7674 14.1563 20.9549C14.1563 21.1614 14.2313 21.3489 14.3813 21.4801L14.9063 22.0054C15.0563 22.1556 15.2438 22.2306 15.4313 22.2306C15.6375 22.2306 15.825 22.1556 15.9563 22.0054L16.275 21.6866C16.6875 21.9304 17.1563 22.1181 17.625 22.2119V22.4931C17.625 22.9059 17.9625 23.2436 18.375 23.2436H19.125C19.5375 23.2436 19.875 22.9059 19.875 22.4931V22.1181C20.2125 22.0241 20.55 21.8741 20.85 21.6866L21.1688 22.0054C21.3188 22.1556 21.5063 22.2306 21.6938 22.2306C21.9 22.2306 22.0875 22.1556 22.2188 22.0054L22.7438 21.4801C22.8938 21.3301 22.9688 21.1424 22.9688 20.9549C22.9688 20.7486 22.8938 20.5609 22.7438 20.4296L22.425 20.1106C22.65 19.7544 22.8 19.3604 22.9125 18.9476H23.25C23.6625 18.9476 24 18.6099 24 18.1971V17.4469C24 17.0341 23.6625 16.6964 23.25 16.6964ZM23.25 18.1971H22.6125C22.425 18.1971 22.275 18.3284 22.2375 18.4974C22.1438 19.0226 21.9375 19.5104 21.6375 19.9419C21.5438 20.0919 21.5625 20.2984 21.675 20.4109L22.2 20.9361L21.675 21.4614L21.15 20.9361C21.0188 20.8049 20.8125 20.7861 20.6813 20.8986C20.2875 21.1614 19.8563 21.3489 19.4063 21.4614C19.2375 21.4989 19.1063 21.6491 19.1063 21.8366V22.5119H18.3563V21.9116C18.3563 21.7241 18.225 21.5739 18.0375 21.5364C17.4563 21.4614 16.9125 21.2551 16.425 20.9174C16.3688 20.8799 16.2938 20.8424 16.2188 20.8424C16.125 20.8424 16.0313 20.8799 15.9563 20.9549L15.4313 21.4801L14.9063 20.9549L15.4313 20.4296C15.5625 20.2984 15.5813 20.0919 15.4688 19.9606C15.1688 19.5291 14.9625 19.0414 14.8688 18.5161C14.8313 18.3284 14.6813 18.2159 14.4938 18.2159H13.875V17.4656H14.5125C14.7 17.4656 14.85 17.3341 14.8875 17.1654C14.9813 16.6401 15.1875 16.1524 15.4875 15.7209C15.5813 15.5709 15.5625 15.3644 15.45 15.2519L14.925 14.7266L15.45 14.2014L15.975 14.7266C16.1063 14.8579 16.3125 14.8766 16.4438 14.7641C16.9313 14.4264 17.475 14.2201 18.0563 14.1451C18.2438 14.1264 18.375 13.9574 18.375 13.7699V13.1319H19.125V13.8074C19.125 13.9761 19.2375 14.1264 19.425 14.1826C19.875 14.2951 20.3063 14.4826 20.7 14.7454C20.85 14.8391 21.0563 14.8204 21.1688 14.7079L21.6938 14.1826L22.2188 14.7079L21.6938 15.2331C21.5625 15.3644 21.5438 15.5709 21.6563 15.7021C21.9563 16.1336 22.1625 16.6214 22.2563 17.1466C22.2938 17.3341 22.4438 17.4469 22.6313 17.4469H23.2688V18.1971H23.25Z" fill="#7D126B"/>
</g>
</g>
<defs>
<clipPath id="clip0_1927_7371">
<rect width="24" height="24" fill="white"/>
</clipPath>
</defs>
</svg>
