<svg width="40" height="29" viewBox="0 0 40 29" fill="none" xmlns="http://www.w3.org/2000/svg">
<path d="M17.4252 24.7508C17.3259 24.7793 17.2033 24.7969 17.1187 24.7718C17.0592 24.7546 17.0559 24.6265 16.96 24.6725C16.9148 24.6939 16.9114 24.8107 16.9148 24.853C16.9311 25.0314 17.2786 25.3144 17.4302 25.4195C17.47 25.4471 17.5328 25.4685 17.5684 25.5028C17.6107 25.543 17.6237 25.5949 17.6643 25.6347C17.7174 25.6875 17.7995 25.6883 17.8297 25.7716C17.8577 25.8491 17.7593 25.886 17.7869 25.9605C17.8171 26.0405 17.9126 26.0338 17.9574 26.0941C18.0043 26.1569 18.003 26.2301 18.0378 26.2988C18.0771 26.3763 18.1868 26.6053 18.2593 26.6325C18.2521 26.7941 18.5138 27.0479 18.6499 27.1613C18.8609 27.3372 19.0527 27.5034 19.2399 27.6906C19.2353 27.6479 19.2608 27.6052 19.2633 27.5717C19.3307 27.5847 19.3923 27.6169 19.4325 27.6651C19.4672 27.5277 19.5007 27.2074 19.4563 27.0738C19.5895 26.965 19.4723 26.8406 19.345 26.8163C19.3161 26.8616 19.2596 26.877 19.2282 26.9126C19.0762 26.8067 19.2009 26.774 19.1628 26.6752C19.131 26.5911 19.0125 26.5911 19.0787 26.4667C18.9853 26.4064 18.8836 26.3377 18.8789 26.2259C18.9196 26.2188 18.9518 26.1816 18.9958 26.1774C19.0477 25.9379 18.7023 26.1142 18.5934 26.1116C18.5884 26.0802 18.5888 26.0518 18.5934 26.0204C18.644 26.0195 18.6868 25.9931 18.7311 25.9923C18.7144 25.9802 18.5967 25.9341 18.5905 25.9215C18.5666 25.8738 18.5745 25.7775 18.5461 25.731C18.4653 25.6004 18.3149 25.6109 18.2266 25.5137C18.2392 25.538 18.2492 25.6004 18.2613 25.6255C18.0997 25.6469 18.1571 25.5187 18.0968 25.4241C18.0424 25.3383 17.9348 25.2637 17.8611 25.1951C17.7066 25.0527 17.6299 24.8421 17.4294 24.8094C17.4114 24.7701 17.4398 24.7693 17.447 24.7508" fill="#2CCBFF"/>
<path d="M20.6318 26.916C20.6209 26.9244 20.4953 26.6911 20.4915 26.5927C20.736 26.5123 20.3144 26.3386 20.2876 26.2377C20.2754 26.1908 20.3232 26.0861 20.3206 26.0781C20.3286 26.1079 20.2712 25.9253 20.2683 25.9709C20.2733 25.8993 20.3014 25.8039 20.3081 25.7139C20.427 25.6598 20.5468 25.7402 20.6267 25.672C20.6669 25.7294 20.718 25.7549 20.7758 25.7859C20.847 25.6657 20.7293 25.5681 20.8411 25.445C20.9085 25.3705 20.9927 25.3982 21.1015 25.363C21.354 25.2813 21.4156 25.0247 21.529 24.8136C21.586 24.8157 21.6379 24.8141 21.6944 24.8141C21.7991 25.0544 21.9582 24.4569 22.0202 24.3811C22.1278 24.4242 22.4167 24.3263 22.3091 24.5846C22.5306 24.5892 22.6282 24.6893 22.8157 24.7337C22.7416 24.8354 22.5993 24.8647 22.4724 24.8559C22.6064 25.0033 22.588 25.0783 22.33 25.0603C22.3292 25.149 22.4071 25.2198 22.4289 25.3224C22.4494 25.4199 22.4452 25.5501 22.4464 25.6464C22.4272 25.6527 22.4104 25.6477 22.3908 25.6531C22.4343 25.7419 22.6571 25.8558 22.7383 25.9345C22.6516 26.0861 22.4644 25.8826 22.3472 26.0572C22.2647 26.179 22.3711 26.3654 22.2296 26.4437C22.2162 26.4194 22.2036 26.4056 22.1898 26.3871C22.1441 26.4462 22.1337 26.5056 22.1018 26.5693C22.0951 26.5823 22.0227 26.7246 22.0252 26.7104C22.0026 26.8314 22.0721 26.9273 21.9955 27.0592C21.9549 27.1291 21.8 27.2798 21.7133 27.2606C21.6953 27.2572 21.6777 27.1433 21.6325 27.1161C21.5713 27.0784 21.5161 27.0826 21.4524 27.1174C21.4445 27.0663 21.4064 27.0374 21.4051 26.9805C21.3339 26.975 21.2577 26.975 21.1865 26.9805C21.1891 26.9989 21.1928 27.0236 21.1962 27.0399C21.1154 27.029 21.035 27.0588 20.9617 27.0763C20.9395 27.0094 20.937 26.9424 20.9558 26.8775C20.8499 26.8934 20.7858 26.9817 20.6728 26.9361" fill="#2CCBFF"/>
<path d="M19.7947 27.7944C19.7244 27.8367 19.4878 27.7593 19.5117 27.9339C19.6515 27.9498 19.7173 28.0838 19.6331 28.1993C19.837 28.1244 19.9555 28.1424 20.1624 28.1621C20.4203 28.1863 20.4689 28.2136 20.6631 28.3476C20.8583 28.4815 20.9964 28.4246 21.2029 28.407C21.3205 28.397 21.7045 28.5071 21.5546 28.2839C21.4972 28.1985 21.2071 28.1604 21.1007 28.1068C20.9114 28.0122 20.8223 27.951 20.6351 27.9845C20.4705 28.0134 20.3847 28.0503 20.2181 27.9632C20.1519 27.9288 20.11 27.8618 20.0439 27.8309C19.974 27.7995 19.84 27.8162 19.8546 27.7949" fill="#2CCBFF"/>
<path d="M23.9614 24.2816C23.8835 24.4466 24.0367 24.7326 24.3039 24.5701C24.3181 24.5932 24.3382 24.6116 24.3499 24.6275C24.3855 24.5417 24.316 24.084 24.5091 24.2594C24.5145 24.1255 24.4387 23.9182 24.3671 23.8118C24.4936 23.7541 24.4555 23.6004 24.3244 23.5522C24.2578 23.6151 24.2457 23.6971 24.3014 23.767C24.2017 23.8018 24.0602 23.7595 24.0602 23.9098C24.002 23.9756 23.9241 24.0463 23.8194 24.0124C23.8467 23.9731 23.8391 23.9098 23.8559 23.8755C23.7512 23.8541 23.649 23.9073 23.631 24.0132C23.4003 23.9764 23.4296 24.2419 23.4288 24.3872C23.5473 24.2879 23.4987 24.141 23.6549 24.0811C23.7817 24.0333 23.8747 24.1183 23.958 24.1824C23.9664 24.2213 23.9656 24.3126 23.9601 24.3382C23.9409 24.3453 23.9208 24.3465 23.8998 24.3424" fill="#2CCBFF"/>
<path d="M20.5296 21.1567C20.5024 21.1282 20.0548 21.2241 20.2181 20.931C20.2964 20.7899 20.5966 20.807 20.7327 20.7551C20.6557 20.8883 20.5208 21.0323 20.5552 21.199C20.574 21.1847 20.5795 21.1638 20.5707 21.1362" fill="#2CCBFF"/>
<path d="M23.1646 20.1148C23.1713 20.0784 23.5284 19.2816 23.2462 19.3984C23.0184 19.493 22.9636 20.1546 23.2052 20.1353" fill="#2CCBFF"/>
<path d="M23.3284 22.0348C23.3233 22.0378 23.3598 22.0688 23.3116 22.0533C23.2664 21.9017 23.4691 21.7865 23.5168 21.6722C23.5817 21.5177 23.4498 21.3938 23.5139 21.2795C23.0282 20.7833 23.1613 21.7665 23.021 21.8946C23.0014 21.8632 22.9545 21.8347 22.9339 21.7962C22.7593 22.0583 23.297 22.196 23.0797 22.3623C23.1563 22.4021 23.2643 22.4234 23.3451 22.4619C23.3522 22.3279 23.3326 22.1835 23.369 22.0558" fill="#2CCBFF"/>
<path d="M28.0668 26.9161C27.901 26.9069 27.7737 26.726 27.618 26.6297C27.5133 26.5648 27.036 26.5594 27.1817 26.7528C26.9233 26.8407 26.7408 27.1866 26.5 26.8755C26.402 26.7494 26.5578 26.1155 26.1475 26.3257C25.9905 26.1779 25.7685 26.3701 25.6479 26.4672C25.7128 26.515 25.7983 26.5183 25.8782 26.5108C25.9126 26.5849 25.9084 26.6816 25.8841 26.7541C26.0369 26.8265 26.1973 26.6871 26.369 26.7151C26.3811 26.7775 26.3878 26.8525 26.3891 26.9132C26.2333 26.9148 26.0495 26.9488 25.9055 26.9194C25.9184 27.058 26.2626 26.9642 26.0675 27.2033C26.1885 27.2712 26.2614 27.1514 26.294 27.0405C26.361 27.1648 26.4979 27.1275 26.5926 27.205C26.6566 27.2578 26.6286 27.3197 26.6989 27.3654C26.7383 27.3909 26.8367 27.3997 26.8823 27.4072C27.0716 27.4374 27.0946 27.4361 27.2462 27.5697C27.3408 27.653 27.3936 27.7477 27.533 27.7368C27.5606 27.8084 27.5841 27.8812 27.6012 27.9545C27.6812 27.9696 27.731 28.0939 27.6548 28.1634C27.597 28.2162 27.5058 28.1161 27.4082 28.1768C27.1302 28.3514 27.4823 28.6416 27.5807 28.287C27.6741 28.3615 28.1091 28.5009 28.0882 28.5914L28.0668 26.9161Z" fill="#2CCBFF"/>
<path d="M25.3908 16.9902C25.7529 16.9789 25.2735 17.5412 25.6127 17.4977C25.6194 17.4784 25.6127 17.4617 25.6185 17.442C25.6407 17.4562 25.7178 17.4638 25.7396 17.4776C25.7613 17.3298 25.8413 17.1614 25.8359 17.0354C25.8275 16.8256 25.6437 16.8947 25.5917 16.7666C25.5172 16.839 25.3347 16.9395 25.3677 17.0455C25.3908 17.0375 25.4121 17.0258 25.4318 17.0107" fill="#2CCBFF"/>
<path d="M25.6767 16.6225C25.675 16.6355 25.6499 16.669 25.6755 16.6497C25.7713 16.6338 25.7944 16.5773 25.8605 16.5237C25.912 16.4814 25.9175 16.4378 25.9841 16.3976C25.9991 16.3888 26.1025 16.3759 26.1222 16.3721C26.2612 16.3474 26.5485 16.3675 26.5799 16.1749C26.7009 16.2733 26.8278 16.3311 26.9282 16.1996C26.9722 16.1431 26.976 15.9994 27.0091 15.9266C27.0459 15.8441 27.1489 15.8839 27.11 15.7264C27.2121 15.7269 27.2213 15.8194 27.192 15.9044C27.2553 15.9044 27.4721 15.7558 27.5316 15.7034C27.5927 15.6502 27.6246 15.5816 27.679 15.5355C27.7472 15.4769 27.8222 15.4568 27.8779 15.3764C27.9784 15.2294 27.9775 15.0548 27.9633 14.9271C27.9491 14.7998 27.8544 14.5666 28.104 14.6441C28.1341 14.7973 28.2426 14.6792 28.3079 14.7638C28.3607 14.8321 28.3217 14.9347 28.3108 15.0088C28.292 15.1411 28.2124 15.3094 28.1861 15.4551C27.9671 15.4417 28.1178 15.7357 28.063 15.8428C27.8842 15.8726 28.011 16.0547 28.001 16.1364C27.9867 16.2507 27.8984 16.3533 27.8415 16.4018C27.8569 16.3725 27.8607 16.3093 27.8741 16.2741C27.7313 16.2042 27.7184 16.4123 27.5798 16.4014C27.5768 16.4357 27.5576 16.4617 27.5525 16.4977C27.4495 16.4558 27.3855 16.5375 27.2888 16.5216C27.1866 16.5048 27.1778 16.3888 27.048 16.4215C26.9911 16.5413 27.1351 16.6074 27.0719 16.7062C27.0673 16.7133 26.8558 16.7791 26.8403 16.7854C26.7934 16.8038 26.7172 16.9872 26.7013 16.7661C26.6938 16.6644 26.8533 16.6099 26.7386 16.5195C26.5238 16.3495 25.9413 16.7213 25.7002 16.7016C25.691 16.6564 25.7186 16.6426 25.7178 16.6434" fill="#2CCBFF"/>
<path d="M27.9031 14.3756C27.8423 14.3869 27.6891 14.3141 27.754 14.2061C27.8017 14.1269 28.0622 14.2123 27.9717 14.0063C28.0429 14.0093 28.1162 14.0088 28.1861 14.0051C28.2204 13.7974 28.4189 13.5072 28.2477 13.3335C28.3842 13.1823 28.4415 13.4432 28.5169 13.5135C28.6002 13.5926 28.7384 13.6098 28.8426 13.6349C28.9599 13.6638 29.1881 13.655 29.2111 13.7832C29.2492 14.0021 28.9925 13.9075 28.8824 13.9465C28.7355 13.9988 28.7861 14.1252 28.6743 14.2069C28.4901 14.3421 28.5026 14.1441 28.3942 14.088C28.1078 13.9406 28.0668 14.2902 27.9236 14.4158" fill="#2CCBFF"/>
<path d="M10.522 5.03129C10.4943 5.11336 10.4319 5.16737 10.3382 5.18747C9.98643 4.79555 9.59285 5.06311 9.22312 5.30638C9.05229 5.41818 8.97985 5.53123 8.83665 5.61288C8.66163 5.71211 8.41752 5.741 8.25423 5.88169C8.1395 5.98134 8.03608 6.12957 7.92345 6.25476C7.74424 6.45533 7.62993 6.42057 7.4256 6.54032C6.8997 6.84849 6.8863 7.53016 7.05964 8.06443C7.15218 8.35125 7.37535 8.61294 7.42727 8.89139C7.47961 9.17485 7.27486 9.31345 7.24346 9.56509C7.19405 9.95784 7.3854 10.3996 7.42727 10.7609C7.45281 10.9782 7.34437 11.2567 7.29873 11.4623L7.32008 11.4497C7.2355 11.4468 7.15804 11.3915 7.07472 11.4455C7.03201 11.4732 7.04541 11.5309 7.00982 11.5623C6.98051 11.5891 6.95204 11.5816 6.91812 11.6063C6.81972 11.6792 6.76068 11.6771 6.64931 11.6951C6.53584 11.7135 6.46382 11.7399 6.35705 11.7717C6.14895 11.8337 5.94085 11.8404 5.72312 11.8031C5.60044 11.7822 5.44509 11.698 5.35717 11.8328C5.27426 11.9597 5.3735 12.2842 5.37433 12.4303L5.35926 12.4496C5.45556 12.5074 5.49325 12.6991 5.55689 12.7829C5.52046 12.7925 5.47482 12.8352 5.43798 12.8436C5.44551 12.8629 5.45556 12.8792 5.46017 12.9014C5.74029 12.893 6.0292 12.455 6.23813 12.8214C6.3604 12.7167 6.49941 12.6673 6.5597 12.8641C6.58566 12.9487 6.57226 13.2627 6.53458 13.3318C6.39724 13.1484 6.24441 13.2703 6.08991 13.3745C6.14141 13.4386 6.17323 13.5261 6.16821 13.6178C6.09912 13.6077 6.05516 13.555 6.04678 13.4792C5.96681 13.4855 5.88516 13.5052 5.80477 13.5219C5.96011 13.6471 6.0472 13.8552 6.19166 13.972C6.26661 14.0332 6.43158 14.0587 6.45921 14.1295C6.48978 14.2086 6.28628 14.289 6.45921 14.3526C6.48559 14.1927 6.63256 14.2237 6.74017 14.2764C6.75692 14.4008 6.79376 14.423 6.84485 14.4967C6.89928 14.575 7.01652 14.531 6.94869 14.6822C6.84778 14.9053 6.58189 14.683 6.43953 14.7466C6.45 14.9321 6.65936 14.9372 6.65852 15.0871C6.61874 15.0766 6.55928 15.0875 6.52034 15.072C6.57436 15.185 6.6916 15.2336 6.74394 15.3349C6.78874 15.4216 6.7833 15.579 6.7833 15.682C6.7833 15.8868 6.78581 15.8407 6.61874 15.8901C6.51699 15.9199 6.3671 16.0153 6.25111 15.9898C6.19501 15.9772 6.17072 15.9073 6.12424 15.8918C6.09661 15.8826 5.98021 15.8813 5.96178 15.8675C5.8726 15.801 5.86004 15.6959 5.75787 15.6058L5.78718 15.6159C5.72019 15.5744 5.58578 15.582 5.53009 15.5363C5.4832 15.4974 5.47817 15.3115 5.48362 15.2508C5.6243 15.1972 5.54475 15.0548 5.61509 14.9434C5.67748 14.845 5.83115 14.9066 5.77588 14.7688C5.77169 14.7588 5.69465 14.737 5.67622 14.7152C5.64984 14.6851 5.6511 14.6361 5.63058 14.608C5.56108 14.5126 5.53889 14.5038 5.41913 14.5281L5.39946 14.554C5.11515 14.6118 4.60139 14.253 4.51095 13.9817C4.26307 13.9666 4.18268 13.9498 3.98128 13.8623C3.79956 13.7836 3.65762 13.6932 3.44826 13.7053C3.44156 13.9197 3.66809 13.8925 3.72712 14.06C3.75308 14.132 3.6505 14.4401 3.62161 14.5532C3.51986 14.6135 3.40639 14.6608 3.28999 14.6198L3.30967 14.6357C2.88845 14.7278 2.46722 14.5038 2.05395 14.4573C1.59505 14.405 1.11018 14.4468 0.67807 14.6152C0.700262 14.593 0.719941 14.5674 0.744227 14.5478C0.715754 14.5637 0.699006 14.5917 0.67807 14.6152C0.740458 14.6449 0.795309 14.6897 0.838855 14.7425C0.62615 14.8032 0.114904 14.5704 0.00938887 14.8651C-0.0559302 15.0477 0.248054 15.2508 0.0491663 15.4116C0.0994117 15.4358 0.128303 15.4183 0.132909 15.3626C-0.141766 15.7231 0.409676 15.968 0.654622 16.0907C0.715754 16.0907 0.776886 16.0907 0.838436 16.0907C0.9607 16.0907 1.08296 15.9684 1.20606 15.9069C1.63482 15.8458 2.00287 16.0907 2.43163 15.9069C2.39646 15.9471 2.34915 15.9605 2.2989 15.9442C2.34035 15.9232 2.38557 15.9107 2.43163 15.9069C2.40777 15.9751 2.38683 16.0451 2.38599 16.1175L2.29178 16.1753C2.40316 16.3595 2.2273 16.5421 2.51035 16.6459C2.56813 16.859 2.37678 16.8615 2.29304 16.9934C2.19632 17.1459 2.2788 17.3343 2.26959 17.4997C2.2608 17.6491 2.19045 17.7739 2.20678 17.933C2.22353 18.0959 2.26205 18.1709 2.22688 18.3325C2.18292 18.5364 2.17203 18.5351 2.28843 18.7252C2.38599 18.8839 2.51705 19.0455 2.61963 19.2147C2.78544 19.486 2.97177 19.7155 3.22593 19.9135C3.12167 20.2121 3.06682 20.2669 3.17024 20.5604C3.41644 20.5998 3.55127 20.7782 3.65259 20.9917C3.73885 21.1739 3.96746 21.4506 4.00012 21.6503C4.02106 21.7785 3.9951 21.8413 4.02064 21.9707C4.04493 22.0984 4.08052 22.2164 4.11108 22.3404C4.15547 22.5225 4.15086 22.6511 4.36733 22.6444C4.4808 22.6406 4.74752 22.5996 4.86183 22.5648C5.00712 22.5208 5.17838 22.3973 5.33079 22.3194C5.43463 22.2659 5.50832 22.2441 5.61677 22.2215C5.65906 22.2123 5.70595 22.2324 5.7608 22.2177C5.78844 22.2102 5.82696 22.1649 5.85794 22.152C5.98146 22.0992 6.13722 22.0397 6.26828 22.01C6.26451 21.9937 6.28294 21.9681 6.28922 21.9573C6.27582 21.9414 6.26158 21.9263 6.24902 21.9112C6.40855 21.7069 6.82349 21.4845 7.0856 21.4996C7.08602 21.4393 7.15344 21.2815 7.20494 21.2517C7.26439 21.2174 7.34311 21.281 7.41597 21.2333C7.46454 21.2011 7.46035 21.0868 7.5219 21.0369C7.56252 21.0043 7.66426 21.0248 7.7187 20.9884C7.73754 20.8489 7.72665 20.694 7.78736 20.5646C7.91382 20.8259 8.17258 20.4918 8.20984 20.3385C8.20021 20.38 8.18598 20.1857 8.1864 20.1899C8.1843 20.1639 8.24292 20.1154 8.23413 20.0718C8.21696 19.9805 8.06748 19.9311 8.00719 19.8825C7.93014 19.8206 7.86692 19.7268 7.78401 19.6682C7.68604 19.5991 7.55498 19.6435 7.47166 19.5459C7.41304 19.4777 7.41932 19.3855 7.39671 19.3001C7.37158 19.2076 7.32092 19.113 7.31003 18.9765C7.2824 18.9924 7.21708 19.0359 7.19447 19.0552C7.19447 19.1151 7.16139 19.1691 7.16809 19.2319C7.11785 19.2356 7.08142 19.2758 7.03117 19.28C7.05546 19.7929 6.51113 19.5283 6.21427 19.6213C6.2105 19.4965 6.21175 19.1519 6.15146 19.051C5.96178 18.7344 6.02794 19.3529 6.01161 19.3939C6.00994 19.2821 5.84957 19.1335 5.78593 19.0686C5.81147 18.9233 5.83031 18.9153 5.74196 18.801C5.70553 18.7537 5.62472 18.7885 5.5929 18.752C5.5594 18.7139 5.57489 18.6314 5.5527 18.5816C5.44803 18.3501 5.44468 18.1914 5.19219 18.1072C5.21104 18.0926 5.22234 18.0817 5.24788 18.0683C5.22946 18.0038 5.25249 17.954 5.27049 17.8907C5.30734 17.9117 5.39359 17.9092 5.4317 17.9272C5.43546 17.8937 5.45808 17.8577 5.46017 17.8292C5.53302 17.8849 5.60211 17.8564 5.6846 17.8882C5.8144 17.9389 5.78718 17.9104 5.87888 18.0327C5.99444 18.1859 6.00533 18.3141 5.94839 18.4983C6.12927 18.5238 6.24525 18.4912 6.41567 18.5431C6.5685 18.59 6.58148 18.5996 6.71002 18.706C6.80674 18.7864 6.92524 18.873 7.03662 18.8458C7.16935 18.8132 7.24346 18.6453 7.39629 18.6281C7.79783 18.5837 7.50557 19.0003 7.67641 19.1611C7.79867 19.2754 8.06958 19.1892 8.21529 19.2021C8.43469 19.2214 8.63735 19.4027 8.8668 19.3541C8.97943 19.3307 9.02842 19.2771 9.13352 19.262C9.21308 19.2507 9.3299 19.2821 9.41866 19.2767C9.63346 19.2637 9.83444 19.1377 9.97094 19.2968C10.1204 19.4718 10.0844 19.5865 10.3348 19.6891C10.0907 20.0044 10.6911 19.8553 10.7837 19.8516C10.813 20.0948 10.5617 20.022 10.4412 20.1087C10.5241 20.2309 10.586 20.4558 10.7472 20.5119C10.8745 20.5567 10.9302 20.3846 11.068 20.4579C11.122 20.3992 11.1969 20.3745 11.2756 20.375C11.2514 20.3054 11.2551 20.2238 11.2564 20.1442C11.2664 20.2301 11.3514 20.2774 11.4385 20.2803C11.4201 20.2929 11.4109 20.3088 11.3828 20.3209C11.3774 20.4018 11.3912 20.4964 11.3644 20.568C11.3435 20.6241 11.2413 20.6274 11.2342 20.7057C11.2258 20.797 11.3636 20.8632 11.395 20.9348C11.4243 21.0026 11.4168 21.0612 11.4251 21.1349C11.4448 21.3062 11.426 21.4875 11.441 21.6625C11.4611 21.8974 11.5637 21.9912 11.686 22.1712C11.7936 22.3291 11.7856 22.476 11.8497 22.646C11.9142 22.8169 12.0503 22.9366 12.1106 23.1116C12.1951 23.3549 12.232 23.6765 12.3894 23.8867C12.6122 24.184 12.7319 23.7033 12.891 23.5442C13.0083 23.4278 13.0949 23.4232 13.0778 23.2209C13.2344 23.1694 13.2168 22.4484 13.2176 22.2973C13.2185 22.1608 13.288 21.9711 13.3868 21.8739C13.4697 21.7935 13.7318 21.7684 13.6623 21.6248C13.8407 21.4766 14.0128 21.3074 14.1932 21.1546C14.336 21.0344 14.4026 20.8833 14.5248 20.7434C14.6999 21.016 14.7957 20.5583 14.8154 20.4968C14.864 20.3473 14.8828 20.4244 14.9754 20.3121C15.0185 20.2594 15.0311 20.1895 15.0604 20.1149C15.0842 20.1614 15.147 20.2146 15.178 20.259C15.1877 20.2334 15.2429 20.1907 15.2547 20.1622C15.3719 20.251 15.4967 20.2288 15.5042 20.0588C15.5762 20.1066 15.6717 20.1141 15.7525 20.1262C15.7274 20.0446 15.5733 19.6217 15.7822 19.7293C15.76 19.7909 15.7584 19.8654 15.7525 19.9286C15.7789 19.9156 15.8434 19.9223 15.8702 19.9119C15.8873 20.0379 16.0138 20.171 16.0556 20.3188C16.1201 20.5458 16.1532 20.5228 16.3211 20.6496C16.6532 20.8996 16.698 21.3363 16.7499 21.7152C16.8834 21.7483 16.955 21.8149 17.0409 21.6483C17.0957 21.6977 17.169 21.7161 17.2377 21.6621C17.2377 21.5674 17.2427 21.4556 17.2821 21.3757C17.3139 21.4912 17.349 21.5549 17.4056 21.6658C17.4441 21.7412 17.4814 21.8082 17.5019 21.8894C17.5467 22.0665 17.5521 22.2051 17.6145 22.3806C17.6668 22.5275 17.7414 22.7147 17.7577 22.8705C17.7694 22.9844 17.6861 23.244 17.81 23.303C17.8138 23.5232 17.532 23.6957 17.6292 23.9583C17.7627 23.8678 17.8415 24.0295 17.9001 24.1367C17.9369 24.2036 17.9566 24.3058 17.9972 24.3632C18.0223 24.3988 18.0826 24.3925 18.0985 24.4222C18.1459 24.5106 18.145 24.6592 18.2015 24.7702C18.261 24.887 18.3514 24.9749 18.4105 25.0955C18.516 25.3107 18.6692 25.7185 18.9372 25.788C19.219 25.8622 19.1646 25.4732 18.9401 25.4405C18.8878 25.1361 19.0105 24.807 18.7731 24.5788C18.5822 24.395 18.3083 24.32 18.1174 24.1362C18.1722 24.0856 18.1651 24.042 18.1773 23.9767C18.0186 23.9453 18.096 23.728 17.9181 23.7452C17.8946 23.5592 17.9729 23.3428 17.9968 23.156C18.0248 22.9333 18.0395 22.7072 18.1027 22.4853C18.3129 22.417 18.2141 22.6142 18.287 22.7042C18.3439 22.7746 18.4641 22.7804 18.5487 22.8453C18.6705 22.9387 18.7911 23.321 18.9728 23.1782C19.0285 23.3549 19.147 23.2963 19.2169 23.4018C19.2734 23.4868 19.2542 23.6455 19.2889 23.7464C19.4418 23.7263 19.4887 23.674 19.6076 23.5894C19.6013 23.5831 19.5741 23.5718 19.5665 23.566C19.5762 23.5379 19.6084 23.429 19.6252 23.4161C19.7076 23.3499 19.7194 23.4345 19.8148 23.4215C19.9363 23.4052 20.0795 23.3507 20.1674 23.2578C20.3056 23.1108 20.3005 22.8797 20.3244 22.6603C20.3458 22.4614 20.3981 22.152 20.2645 21.9903C20.2147 21.9296 20.1197 21.92 20.0552 21.8296C19.9936 21.7441 19.9451 21.6621 19.8843 21.5838C19.7721 21.4385 19.6172 21.3124 19.5293 21.1546C19.4447 21.003 19.5192 20.7886 19.5938 20.6237C19.7106 20.3662 20.1142 20.1049 20.3412 20.3151C20.3412 20.2908 20.3491 20.2619 20.3491 20.2376C20.3592 20.2393 20.3897 20.2745 20.391 20.274C20.6309 20.2142 20.4383 20.4403 20.4915 20.5177C20.4973 20.5265 20.5572 20.5889 20.5698 20.5977C20.6326 20.5311 20.6439 20.4311 20.6338 20.341C20.8905 20.3306 21.1028 20.2472 21.323 20.1133C21.2833 20.0115 21.3523 19.8876 21.444 19.829C21.4742 20.1355 21.7568 19.9479 21.9176 19.8884C22.0901 19.8248 22.2459 19.7921 22.3112 19.5853C22.315 19.5844 22.3568 19.5982 22.3631 19.5995C22.4322 19.5003 22.5942 19.5467 22.554 19.3604C22.6964 19.334 22.5712 19.1833 22.6529 19.0891C22.6901 19.136 22.7525 19.1465 22.7931 19.1707C22.7877 19.136 22.8044 19.0891 22.7998 19.0539C22.9342 19.0443 22.9623 18.8982 22.9631 18.7885C23.1804 18.8345 23.0603 18.6314 23.1976 18.603C23.1997 18.5268 23.2081 18.5456 23.2386 18.4799C23.201 18.3677 23.2621 18.2659 23.2864 18.1575C23.2935 18.1822 23.306 18.2035 23.3111 18.2282C23.4024 18.1231 23.3479 18.0289 23.3659 17.9096C23.2876 17.9309 23.1943 17.9615 23.1063 17.9443C23.1113 17.8087 23.3764 17.7111 23.4899 17.6625C23.4078 17.4067 23.0155 17.5541 22.9007 17.338C23.0699 17.3234 23.2315 17.4184 23.4074 17.413C23.3785 17.3058 23.2583 17.3535 23.1892 17.2744C23.152 17.2317 23.1335 17.032 23.1084 16.9671C23.0716 16.8741 23.0427 16.8017 22.9966 16.7175C22.961 16.6543 22.9878 16.6334 22.9405 16.5839C22.8999 16.5417 22.8304 16.5764 22.7961 16.5224C22.7169 16.3968 23.0155 16.2054 23.1247 16.1142C23.2307 16.0262 23.5389 15.9743 23.5288 15.8001C23.4802 15.806 23.3609 15.8478 23.3069 15.8236C23.219 15.7846 23.2868 15.7381 23.2261 15.6795C23.1415 15.5979 23.0686 15.5414 22.9426 15.5815C22.9192 15.7084 22.8333 15.8818 22.6767 15.8407C22.67 15.7289 22.7035 15.6029 22.6173 15.5242C22.6043 15.5342 22.6102 15.5493 22.5942 15.5606C22.5381 15.5292 22.3346 15.3559 22.3309 15.2918C22.3225 15.1712 22.4531 15.1176 22.5461 15.1871C22.6977 15.0577 22.9187 14.9614 23.108 14.8446C23.2056 14.7839 23.2968 14.5766 23.4451 14.7052C23.6092 14.8475 23.3324 14.9535 23.3513 15.0854C23.3634 15.0854 23.3931 15.0837 23.4032 15.0866C23.1959 15.26 23.5682 15.1319 23.6448 15.0879C23.7926 15.0029 23.8755 14.974 24.043 14.9815C24.1703 14.9874 24.2486 14.9619 24.3038 15.0879C24.313 15.1088 24.2615 15.3718 24.2435 15.4124C24.1615 15.3894 24.1376 15.4049 24.1062 15.494C24.2234 15.4815 24.3419 15.5125 24.3943 15.6155C24.509 15.6259 24.5546 15.7189 24.6744 15.7051C24.6417 15.7369 24.6262 15.8056 24.5957 15.8395C24.6216 15.8441 24.6484 15.8608 24.6748 15.8667C24.6715 15.914 24.6723 15.9412 24.6392 15.9818C24.6108 15.8885 24.5869 15.9266 24.5362 15.8868C24.5325 15.9726 24.5316 16.061 24.5362 16.1464C24.8042 16.1384 24.2925 16.6078 24.6526 16.5752C24.6614 16.4433 24.9026 16.4416 25.0039 16.4148C25.2057 16.362 25.2267 16.3934 25.2267 16.2113C25.2271 16.0656 25.2045 15.9471 25.1706 15.8181C25.1279 15.6569 25.0663 15.6289 24.9667 15.4949C24.916 15.4266 24.8017 15.2462 24.7979 15.1649C24.7904 14.992 25.0018 14.92 25.1262 14.8275C25.3376 14.67 25.3012 14.392 25.5453 14.2869C25.3891 14.0336 25.676 14.0461 25.7162 13.8615C25.7178 13.8569 25.7182 13.8519 25.7191 13.8468L25.9787 13.8921C26.0239 13.9436 26.1462 14.1274 26.2077 14.0662C26.7592 13.8209 27.0657 13.331 27.4948 12.8407C27.8009 12.473 28.0463 12.0443 27.9851 11.554C27.9851 11.4317 28.1078 11.309 28.1556 11.1901C28.2632 10.9845 28.2041 10.8999 28.0513 10.7413C28.2586 10.8551 27.9818 10.4456 27.9387 10.4013C27.821 10.2807 27.6728 10.1957 27.5392 10.3372C27.4458 10.4377 27.4345 10.5792 27.2671 10.5867C27.2842 10.5394 27.2842 10.4888 27.2662 10.4415C27.213 10.4666 27.1607 10.4955 27.1109 10.526C27.1276 10.39 27.1276 10.3288 27.1276 10.2061C27.0661 10.0839 26.8211 10.1446 26.8823 10.0839C27.2499 9.4713 27.8629 8.98057 28.4755 8.67449C28.9046 8.42955 29.4557 8.61294 29.9455 8.55181C30.0071 8.55181 30.0682 8.42955 30.1294 8.368C30.3136 8.30687 30.3136 8.42955 30.3283 8.46974C30.363 8.41196 30.3789 8.40987 30.3283 8.46974C30.515 8.43248 30.6766 8.61001 30.865 8.55181C30.8077 8.61294 30.739 8.6724 30.6511 8.67156C30.6645 8.66696 30.6892 8.66528 30.7043 8.66109C30.6854 8.66235 30.6728 8.6657 30.6511 8.67156C30.9262 8.85873 31.1711 8.55181 31.4772 8.61336C31.4772 8.4911 31.4161 8.42955 31.3549 8.36842C31.7514 8.02675 32.279 7.20482 32.8677 7.69387C32.879 7.6654 32.8991 7.63818 32.9033 7.60678C32.8811 7.71271 32.8455 7.81572 32.7957 7.91118C32.8552 7.91244 32.897 7.95222 32.9012 8.01167C33.0093 7.75584 33.3769 7.81697 33.438 7.63316C33.5607 7.38821 33.6222 7.32708 33.7445 7.26553C33.8668 7.20398 34.0506 7.26553 34.0506 7.38779C34.0506 7.44935 33.8061 7.44935 33.8061 7.57161C33.8061 7.81697 33.6222 8.12347 33.3149 8.10881C33.3057 8.13854 33.2969 8.15948 33.3019 8.18795C33.3308 8.15069 33.3233 8.1532 33.3149 8.10881C32.9481 8.42997 32.6412 8.98099 32.1513 9.04254C31.4772 9.65511 31.7221 10.6357 31.9675 11.3706C32.2736 11.309 32.3963 11.0645 32.4574 10.758C32.4574 10.6964 32.7023 10.6964 32.7023 10.6357C32.7639 10.2681 32.9477 10.207 33.2538 10.1454C33.3153 9.96161 33.2538 9.65553 33.4531 9.53076C33.4753 9.58435 33.4795 9.64255 33.4824 9.69992C33.7068 9.69071 33.4715 9.41938 33.469 9.33019C33.4669 9.26655 33.7638 8.96843 33.5335 8.96885C33.451 8.96885 33.3036 9.25608 33.2747 8.99899C33.2529 8.80764 33.4661 8.55893 33.5737 8.42871C33.3882 8.33408 33.7922 8.29807 33.8467 8.29849C34.0585 8.30058 34.095 8.10798 34.3085 8.07909C34.3039 8.13938 34.2934 8.19926 34.2826 8.25871C34.4601 8.20219 34.605 8.04224 34.8013 8.04643C34.7825 8.05773 34.7637 8.06987 34.7452 8.08244C34.8554 8.09583 34.986 8.00372 35.089 8.06108C35.1711 8.10672 35.1698 8.22019 35.2314 8.28467C35.2716 8.06192 35.5341 7.97776 35.715 7.90113C36.0072 7.77803 36.2819 7.6185 36.5683 7.48284C36.7136 7.41375 36.8748 7.32457 37.0339 7.294C37.1922 7.26344 37.2701 7.39198 37.4032 7.38779C37.659 7.38068 37.4974 6.97201 37.2797 6.99672C37.497 6.7882 37.0213 6.79909 37.0502 6.61527C36.9024 6.61025 36.7668 6.56126 36.6525 6.47417C36.8413 6.43188 36.9987 6.44151 37.1918 6.45742C37.2801 6.46496 37.7692 6.45784 37.6281 6.28826C37.6938 6.31757 37.7692 6.30459 37.8119 6.24388C37.7604 6.20787 37.7089 6.17311 37.6523 6.1459C37.7265 6.12161 37.7348 6.04792 37.7089 5.98176C37.7545 5.9759 37.7993 5.96669 37.8433 5.95413C37.8236 5.92566 37.8274 5.88839 37.8085 5.85992C37.9052 5.84443 38.0903 5.84568 38.1146 5.9713C38.1372 6.09188 37.9668 6.11952 37.9969 6.24136C38.1678 6.15218 38.4157 6.14506 38.5953 6.2154C38.7582 6.27947 38.754 6.42685 38.8762 6.53027C39.0739 6.69776 39.4829 6.6785 39.5847 6.41052C39.5219 6.42392 39.4616 6.40215 39.4252 6.34981C39.5663 6.38708 39.4742 6.26104 39.4252 6.21959C39.3774 6.17856 39.2267 6.12119 39.3795 6.08435C39.5566 6.04248 39.7802 6.41178 39.8317 6.06216C39.8313 6.09105 39.8338 6.10696 39.8255 6.13543C39.8024 6.00395 39.9268 6.08853 39.995 6.1011C40.0595 5.62921 39.4804 5.72091 39.1886 5.62879C39.2112 5.66773 39.2485 5.69578 39.2891 5.70081C39.261 5.67192 39.2254 5.64638 39.1886 5.62879C39.318 5.73054 39.3351 5.99056 39.13 5.96334C38.9118 5.93487 38.8633 5.63172 38.7774 5.4747C38.5593 5.07567 38.0484 5.07735 37.6599 4.95508C37.4325 4.88348 37.2487 4.73987 37.0276 4.65696C36.8078 4.57448 36.5746 4.54391 36.343 4.51921C36.1148 4.49576 35.8841 4.4811 35.661 4.42541C35.5571 4.39945 35.5253 4.37475 35.4395 4.43463C35.39 4.46938 35.388 4.52088 35.3377 4.56945C35.658 4.78006 35.2887 5.16444 35.0312 4.93708C34.9768 4.88893 34.9424 4.80393 34.8834 4.75033C34.8549 4.72437 34.8097 4.70972 34.7863 4.68543C34.7699 4.6691 34.7913 4.60755 34.7624 4.5929C34.6154 4.51921 34.6933 4.74322 34.7624 4.5929C34.6146 4.67915 34.6933 4.74322 34.7624 4.5929C34.6025 4.69213 34.4182 4.63058 34.2344 4.69213C33.7441 4.75368 33.2538 4.63058 32.7639 4.63058C32.7023 4.63058 32.6412 4.56945 32.6412 4.50832C32.5801 4.20182 32.3351 3.95688 32.0291 3.95688C31.6003 3.95688 31.1711 4.14069 30.7444 4.09589C30.8052 4.06784 30.8809 4.06532 30.9433 4.08626C30.8826 4.10468 30.8093 4.0984 30.7444 4.09589C30.8156 4.03141 30.7947 3.92129 30.6892 3.89742C30.6075 3.87942 30.592 3.96106 30.5271 3.97069C30.4145 3.98661 30.4409 3.90203 30.3634 3.83629C30.2788 3.76427 30.1511 3.78018 30.049 3.79023C30.0804 3.7358 30.1294 3.69225 30.1892 3.6709C30.0645 3.51472 29.776 3.45359 29.5892 3.50551C29.3937 3.55952 29.2702 3.77264 29.0466 3.72826C29.1115 3.68011 29.1764 3.63154 29.2308 3.57083C29.0947 3.56203 28.9595 3.59469 28.823 3.58464C28.9733 3.35979 29.325 3.50676 29.4749 3.28191C29.0424 3.12741 28.5898 3.36943 28.1514 3.26475C28.2117 3.45149 27.7955 3.37445 27.7008 3.40292C27.7088 3.42176 27.7163 3.43977 27.723 3.45861C27.8151 3.39915 27.9927 3.34012 28.0425 3.48206C27.9558 3.51849 27.8763 3.57208 27.7837 3.59134C27.829 3.68346 27.9127 3.75255 27.8135 3.82959C27.718 3.90328 27.5174 3.81326 27.4153 3.79567C27.4211 3.87648 27.4165 3.95939 27.3881 4.03601C27.3098 3.89491 27.1875 3.77264 27.0652 3.77264C26.6976 3.77264 26.3907 3.77264 26.0306 3.65457C25.9473 3.68471 25.9586 3.81117 25.861 3.83922C26.0306 4.13274 25.6039 4.02722 25.4779 3.96902C25.333 3.90328 24.9905 3.71193 24.965 3.53021C25.0387 3.54905 25.2409 3.59469 25.2618 3.47703C25.2828 3.36231 25.14 3.41841 25.0764 3.3845C24.9018 3.28903 25.0923 3.33593 25.1136 3.2882C25.1425 3.22413 25.0211 3.12992 25.1643 3.13453C24.9805 2.92852 24.6899 3.04409 24.4634 2.94611C24.3478 2.89628 24.2766 2.7736 24.1405 2.78239C24.0204 2.78993 23.94 2.90591 23.819 2.91805C23.9425 3.12239 23.5954 3.20571 23.4698 3.09894L23.5493 3.09308C23.5795 3.1048 23.6096 3.12071 23.6377 3.13704C23.6033 3.13537 23.569 3.1362 23.5347 3.13076C23.569 3.13411 23.6033 3.13495 23.6377 3.13704C23.2809 3.04618 22.9049 3.09601 22.5494 2.99677C22.5683 3.00975 22.5871 3.02273 22.606 3.03529C22.5951 2.9415 22.6436 2.85274 22.714 2.79286C22.2848 2.73131 21.9172 2.91512 21.4583 2.98756C21.4018 2.9616 21.3046 2.81924 21.3402 2.76983C21.1451 2.9503 20.9696 2.65971 20.7703 2.69572C20.5915 2.72796 20.7427 2.83013 20.8541 2.83264C20.5807 2.89796 20.2976 2.95113 20.0388 3.06419C19.8475 3.14793 19.6197 3.34137 19.4007 3.23586C19.6917 2.87409 20.1938 2.87367 20.5455 2.60277C20.5149 2.57471 20.4814 2.54917 20.4463 2.5274C20.718 2.40806 21.0082 2.33688 21.2715 2.19871C21.3394 2.16354 21.4662 2.11832 21.4692 2.02704C21.4734 1.90896 21.2849 1.85704 21.2016 1.83066C21.3172 1.85118 21.4298 1.89305 21.5475 1.88593C21.0618 1.50867 20.3818 1.32402 19.7935 1.55934C19.8194 1.55934 19.8458 1.55934 19.8726 1.55934C19.7625 1.49904 19.9522 1.32402 19.7805 1.28466C19.6486 1.2541 19.564 1.47183 19.4225 1.45759C19.4589 1.41237 19.4924 1.36506 19.5234 1.31565C19.4296 1.31146 19.2111 1.33449 19.165 1.22437C19.0917 1.04893 19.3823 1.03679 19.4832 1.04684C19.3584 0.756669 18.6316 0.99324 18.5039 1.19966C18.3912 1.3818 18.6491 1.35836 18.6416 1.49904C18.6316 1.70128 18.1249 1.58111 18.0198 1.58279C18.2221 1.5137 18.0006 1.73771 17.929 1.76827C17.6849 1.87295 17.3717 1.79884 17.1171 1.78377C17.1497 1.70212 17.2285 1.65355 17.313 1.64266C17.0936 1.64517 16.8726 1.65773 16.6582 1.70714C16.7243 1.66653 16.8085 1.67951 16.8525 1.74608C16.4631 2.0576 16.0347 1.93492 15.6662 1.99647C15.1764 2.0576 15.0537 2.54791 14.7476 2.79328C14.5022 3.09936 14.0731 2.79328 13.7058 2.85441C13.4613 2.91554 13.3382 3.22246 13.4416 3.39413C13.4257 3.30871 13.3918 3.22706 13.3483 3.15211C13.3746 3.2346 13.4073 3.31499 13.4416 3.39413C13.45 3.35728 13.4605 3.32127 13.4613 3.28317C13.4224 3.47285 13.7519 3.42386 13.8536 3.44647C13.9403 3.46573 14.0416 3.51849 13.9424 3.56203C13.9152 3.57376 13.8775 3.47368 13.9449 3.47913C13.9964 3.48373 14.0169 3.51011 14.0048 3.56413C13.9717 3.70774 13.625 3.65792 13.5266 3.64117C13.2721 3.59846 13.0129 3.3845 12.7495 3.50509C12.7801 3.54696 12.8157 3.54989 12.8513 3.51262C12.7859 3.49504 12.7441 3.52937 12.7864 3.58925C12.7625 3.58841 12.739 3.58506 12.7156 3.5792C12.7395 3.58004 12.7633 3.58381 12.7864 3.58925C12.6545 3.58925 12.1621 3.55826 12.3576 3.77348C12.5201 3.95185 12.9162 3.84927 12.9702 4.14111C12.7382 4.11599 12.9367 4.02178 12.9702 4.14111C12.6641 4.01843 12.2349 4.07956 11.99 3.77348C11.99 3.71193 12.1734 3.52812 12.1118 3.40585L11.99 3.3443C11.4992 3.65038 11.6839 4.3245 11.8057 4.75368C12.1118 4.75368 12.541 4.631 12.7248 4.99821C12.7248 5.05976 12.7248 5.12089 12.7361 5.1523C12.7654 5.37714 12.8785 5.4052 13.092 5.36626C12.8584 5.60869 12.5946 5.38468 12.4648 5.16528C12.3237 4.92703 12.1755 4.83659 11.9071 4.97644C12.0226 5.22934 12.0649 4.97728 11.9071 4.97644C11.9895 5.12131 12.0511 5.18202 11.9895 5.30513C11.7442 5.7343 11.1927 6.28533 10.6417 5.9177C10.6417 5.85615 10.5802 5.85615 10.5802 5.79502C10.5802 5.7343 10.6417 5.67275 10.6417 5.67275C11.1316 5.7343 11.6219 5.48894 11.7442 4.99863C11.7442 4.9375 11.6835 4.87637 11.6835 4.87637C11.5608 4.87637 11.4992 4.87637 11.3519 4.83115C11.3686 4.8391 11.3853 4.84622 11.4034 4.85124C11.4992 4.50832 11.4381 4.14111 11.2543 3.83419C11.1932 3.71193 11.3154 3.58925 11.3154 3.46657C11.3154 3.3443 11.1932 3.28275 11.1316 3.2212C10.5802 3.03739 10.3964 3.71193 9.97806 3.9753C9.97345 4.04146 10.0451 4.04481 10.0899 4.01759C10.0798 4.2102 10.0304 4.40322 10.1585 4.56819C10.2494 4.6846 10.4102 4.74615 10.3553 4.92368C10.4257 4.87511 10.5107 4.84789 10.5965 4.8525C10.5793 4.93624 10.5793 4.99737 10.5793 5.05892L10.4571 5.12006" fill="#2CCBFF"/>
</svg>
