<svg width="40" height="28" viewBox="0 0 40 28" fill="none" xmlns="http://www.w3.org/2000/svg">
<path d="M28.6404 20.1629C28.132 20.5719 27.9043 20.1702 27.6178 20.1621C27.6316 20.0746 27.5995 19.9864 27.4477 19.8977C27.4181 19.9432 27.4118 20.0315 27.3201 20.0947C27.3259 20.07 27.29 19.9382 27.1633 19.9671V19.9012H27.0853C27.1766 20.2986 26.5577 20.2412 26.4897 20.5969C26.7671 20.3499 26.8918 20.7612 27.0853 20.6008C27.127 20.7743 27.1487 20.9219 27.0853 21.1397C27.9527 21.2804 27.3976 20.9577 27.9702 20.7319C27.971 20.7696 27.9627 20.8066 28.0649 20.8683C28.0411 20.7797 28.318 20.2685 28.4244 20.5233C28.6412 20.5033 29.0124 20.5942 28.8051 20.2485H28.8768C28.886 20.1363 28.8785 20.1641 28.6404 20.1629Z" fill="#2CCBFF"/>
<path d="M20.1844 11.4866C19.9241 11.588 20.2532 11.4697 20.2548 11.7029C20.2661 11.6782 20.3699 11.6562 20.3478 11.5564H20.5651C20.553 11.5028 20.6106 11.4284 20.7269 11.3444C20.6168 11.2546 20.4754 11.3016 20.3441 11.4118L20.2619 11.2708C20.2194 11.2939 20.161 11.3783 20.1844 11.4866Z" fill="#2CCBFF"/>
<path d="M20.4926 11.1445C20.689 11.0647 20.3333 10.8557 20.2549 11.0758H20.4058V11.2181L20.4926 11.1445Z" fill="#2CCBFF"/>
<path d="M27.899 2.32103C28.3848 2.656 28.3248 2.05852 28.1813 1.91783C27.7117 1.67884 27.6679 2.12212 27.899 2.32103Z" fill="#2CCBFF"/>
<mask id="mask0_1482_839" style="mask-type:luminance" maskUnits="userSpaceOnUse" x="0" y="0" width="40" height="28">
<path d="M0 0.010498H40V27.6902H0V0.010498Z" fill="white"/>
</mask>
<g mask="url(#mask0_1482_839)">
<path d="M27.2431 6.28775C27.1635 6.28428 27.015 6.31435 26.8874 6.22068C27.0918 6.191 27.2999 6.07305 27.372 6.34596L27.2431 6.28775ZM14.0629 13.8726C14.0758 13.8738 14.067 13.8664 14.0912 13.8965L14.0629 13.8726ZM13.9694 14.8047C13.9423 14.7654 13.9361 14.6948 13.856 14.6412C13.8894 14.6651 13.9978 14.6605 13.9694 14.8047ZM12.8389 14.9673L12.7959 14.928L12.8405 14.9658L12.8389 14.9673ZM39.9964 11.7579C39.8158 11.1662 39.1231 11.9996 38.7194 11.3794C37.822 11.7718 37.7144 10.7191 37.5613 9.9921C37.5421 9.90036 37.4087 9.8807 37.3595 9.96242C36.8845 10.7495 35.9028 10.4678 36.4604 9.97052C37.0425 10.0326 36.9433 9.7535 36.9767 9.41236C36.4007 8.85651 36.143 10.1143 35.6292 9.02226C36.1351 8.87386 35.2184 8.21047 35.7835 8.13684C35.7539 8.02776 35.6651 7.74482 35.7022 7.57984C35.4653 7.68083 35.3957 6.84784 35.1029 7.02901C34.5049 5.78472 33.7422 4.49263 33.014 3.58292C32.9377 3.48733 32.926 3.35974 32.9861 3.25489C33.2938 2.71947 33.1946 2.13086 33.1612 1.67524C33.6917 1.14522 33.037 0.780569 33.185 0.595159C32.9556 0.546976 33.0424 0.479904 32.8105 0.665314C32.8018 0.471809 32.4744 0.503418 32.514 0.268668C31.3843 0.424782 32.6829 -0.260194 31.0056 0.135296C30.908 0.158038 30.8542 0.249394 30.8721 0.34075C30.8855 0.40628 30.8688 0.479133 30.7871 0.536183C30.9305 0.661074 31.0035 0.808323 31.2316 0.881562C31.147 0.930902 31.034 1.07892 31.0093 1.22771C31.3134 1.26433 30.966 1.54225 30.7287 1.29594C30.8284 1.23658 30.7816 1.11554 30.6486 1.008C30.3271 1.33102 30.7078 1.73537 30.0468 1.63091C30.066 1.90575 29.8696 2.03642 29.835 2.30471C29.8054 2.27888 29.7674 2.25113 29.6874 2.16825L29.5485 2.36831C29.5155 2.16324 29.7111 1.86682 29.3179 1.7612L29.2307 1.97359H29.3137V2.10195H29.2457V2.03218C29.0868 2.016 29.1636 2.1883 29.3087 2.3818C29.2628 2.38604 29.0631 2.40185 29.1039 2.22993C28.988 2.40994 28.3871 2.85824 28.7153 3.00356C28.6469 3.03479 28.571 3.2148 28.4167 3.20362C29.302 4.32225 26.2848 3.79339 27.8345 3.20748C27.2915 2.82818 26.3628 2.63776 27.1485 3.5463C27.0813 3.62031 27.0792 3.84196 27.0855 3.96569C27.8437 3.91327 27.2857 4.48492 27.6735 4.71466C27.5267 4.78404 27.3991 4.73393 27.1677 4.78057C27.2056 4.74935 27.2039 4.62523 27.3295 4.65183L27.1572 4.49802C27.1234 4.56355 27.0471 4.58206 26.96 4.56702C26.8465 4.54736 26.731 4.59015 26.6781 4.68498C25.8486 6.16248 26.392 5.01417 26.8641 6.20603C26.7348 6.11583 26.1172 6.27426 25.9057 6.0079C25.7656 6.01677 25.5358 6.00983 25.3778 5.94006C25.2581 6.28081 25.3832 6.30741 25.7585 6.43577C26.1739 6.20411 26.133 7.46806 25.1609 6.54486L25.0846 6.68517C25.0312 6.56336 24.7372 6.64277 24.7997 6.42228C24.2451 5.81864 24.949 5.47056 23.909 5.32794H23.9853V5.252H23.8339V5.18185C23.6821 5.23003 23.4185 5.02149 23.6216 4.85073C23.5824 4.84533 23.5291 4.88079 23.4678 4.79175C23.6166 4.67727 23.9261 5.10514 23.9853 4.92975C24.2226 5.05001 25.0733 5.29479 25.1621 5.05541C25.5842 5.5596 26.6568 4.65183 26.3503 4.08943H26.2744V3.94603C26.2064 4.06476 26.0988 3.97957 26.1276 3.81498C25.8361 3.78568 25.6255 3.71437 25.2264 3.53166V3.59641C24.7551 3.18743 23.9465 3.24024 23.3789 3.27416C23.3873 3.27339 23.3381 3.05599 23.2334 3.20015C22.7396 2.56683 23.107 3.31464 22.6354 2.92801C22.6504 3.29729 22.5891 3.09145 22.3001 3.06832L22.3568 2.85092C22.3343 2.8833 22.205 2.86133 22.1207 2.86711C22.1758 2.83589 22.2546 2.68555 22.1203 2.60769C22.1433 2.67592 22.381 2.39221 22.1875 2.38682C22.2104 2.27079 22.0732 2.30934 21.8889 2.38335C21.9181 2.15361 21.5544 2.11121 21.4351 2.45273C21.4723 1.61588 21.0919 2.13318 21.0477 2.51942C20.9647 2.44155 20.893 2.28312 20.9138 2.11121H20.8467C21.127 1.89534 20.1311 2.0688 20.5894 2.25152C20.4443 2.36523 20.2545 2.0927 20.2245 2.45697H20.1398L20.222 2.53252L20.0806 2.65896L20.0047 2.52289C19.8354 2.6181 20.061 2.87212 19.6986 2.73258V2.79464C19.4809 2.59111 19.2532 3.02554 19.4013 3.2784C19.34 3.20015 19.1623 3.03479 19.1085 3.27995L19.0301 3.13886C18.8896 3.22521 18.9788 3.38094 19.0226 3.54977C18.8078 3.09916 18.8445 3.95182 18.7361 3.41948C18.6577 3.44608 18.6314 3.58254 18.6481 3.69741C18.3966 3.59217 18.4092 4.49494 18.1348 4.10061C17.9796 4.18734 18.1076 4.4059 17.9884 4.57358V4.24015C17.9225 4.37198 17.8015 4.25788 17.6643 4.40012C17.7119 4.40937 17.8378 4.37159 17.8249 4.52L17.7553 4.451C17.5159 4.53966 17.3345 4.48492 17.749 4.73316C17.6706 4.66108 17.2506 4.90007 17.5976 4.88426C17.6039 5.13713 17.0909 5.04192 16.9224 5.35492C17.0238 5.41274 16.985 5.47943 16.877 5.49523C16.8369 5.50101 16.8182 5.5438 16.8432 5.5731C16.8912 5.62976 16.9479 5.68103 17.0021 5.5835V5.69914H16.7731C16.7765 5.73422 16.7531 5.77778 16.8465 5.841C16.6985 5.94353 16.5721 5.95471 16.5521 6.24689C16.5425 6.23494 16.5229 6.22415 16.5071 6.20372C16.4841 6.17404 16.4349 6.18098 16.417 6.21336C16.3986 6.24728 16.3861 6.2866 16.3945 6.33054C16.52 6.28737 16.525 6.5572 16.3244 6.52944C16.3244 6.5915 16.3561 6.75918 16.173 6.7349V6.81238C16.3436 6.82548 16.2127 7.03595 16.0654 6.93881C15.9933 6.89101 15.897 6.87598 15.8219 6.92031C15.7756 6.9469 15.7189 6.96194 15.6472 6.94498C15.6638 7.061 15.5587 7.32235 15.3486 7.28534V7.48386C15.2781 7.40214 15.2535 7.43375 15.1275 7.5625C15.0329 7.42874 15.0337 7.56751 14.8235 7.63111V7.76332C14.7968 7.74521 14.7751 7.68585 14.6638 7.70088C14.7605 7.73403 14.7902 7.95799 14.6025 7.76834C14.562 7.91057 14.1475 7.70512 14.3656 8.04549C13.7601 7.94565 14.1629 8.03739 13.7042 8.30915V8.18657C13.6642 8.18811 13.6233 8.17038 13.5512 8.25403C13.4778 8.10562 13.1229 8.27446 13.4748 8.40243C13.4748 8.54583 12.9973 8.42672 13.2476 8.73355L13.0962 8.66763C12.9907 8.88504 13.597 9.10514 13.0962 8.93785C13.0924 9.04038 13.0924 9.18879 13.2446 9.29286L13.1725 9.35492C13.0978 9.20883 12.9339 9.39925 13.1475 9.49716C12.8635 9.45707 13.16 9.82404 13.4502 9.66214C13.3476 9.75658 13.3147 9.77894 13.1637 9.91809L13.3143 10.0526C13.1003 10.0218 12.662 10.1447 12.8756 10.482C12.9093 10.3702 13.2409 10.1139 13.1662 10.467C13.0516 10.4581 13.1295 10.5052 13.0324 10.6605V10.595C12.8168 10.7719 12.9873 11.1362 13.3176 11.1612L13.1616 11.2958C13.2063 11.2915 13.3255 11.4472 13.3935 11.3096V11.4399C13.5512 11.4299 13.7455 11.4785 13.9236 11.3775V11.4438C14.997 10.4724 14.6325 11.2472 15.0375 10.8544C15.0775 10.3799 15.4624 10.0145 15.3369 10.383C15.3123 10.4558 15.3427 10.5364 15.4128 10.5769C15.4641 10.6069 15.5179 10.6459 15.5629 10.6744C15.5542 10.6886 15.5129 10.7091 15.4224 10.8189H15.424V11.4399H15.4999V11.5895C15.7602 11.3463 15.4245 12.0694 15.6442 12.1947C15.5671 12.2282 15.4766 12.4842 15.7185 12.4761C15.9641 13.0045 15.3873 13.8175 16.4879 13.7165C16.5008 13.2335 16.3824 13.4559 16.7936 13.2196H16.7189C16.9049 12.988 17.1072 13.2994 17.387 13.2308C17.3532 12.9483 17.5851 12.7432 17.6856 12.4649H17.6135C17.6631 12.3843 17.6468 12.355 17.764 12.2648C17.5084 12.086 18.0247 11.7814 17.7636 11.507L17.9229 11.4334L17.6906 11.3659C17.7961 11.2792 18.1873 11.4669 18.1348 11.0945C18.2073 11.103 18.2644 11.0556 18.3574 11.1682C18.3883 11.0942 18.4375 11.0121 18.5276 10.95C18.5739 10.918 18.5776 10.8579 18.5347 10.8224C18.4008 10.7129 18.9355 10.6374 18.7361 10.2538L18.5901 10.3197C18.651 10.1744 18.3908 10.1101 18.4388 9.90923C18.1126 10.1205 18.1852 9.69105 17.9963 9.50795C18.1627 9.55382 18.1423 9.215 18.1348 9.0928H18.2198C18.0547 9.0107 18.3182 8.79522 18.2861 8.59709C17.6014 8.54428 18.4913 8.39665 18.7403 8.26366C18.5305 8.15612 18.9405 8.10408 18.7449 7.9869C18.84 8.00193 18.9108 7.98613 18.9584 7.85622C18.9943 7.92676 19.0739 7.9206 19.1903 7.84813C19.2491 7.69394 19.4142 7.41332 19.6223 7.13463C19.6682 7.07334 19.6761 6.99663 19.6507 6.92609C19.5739 6.71215 19.6849 6.26231 19.9392 6.33054C19.8988 5.65674 19.9889 6.24073 20.2303 5.91847C20.6928 6.14397 20.9722 5.87222 21.0477 6.66513C20.6165 6.59574 20.1711 8.17693 19.7745 7.91096C19.5381 8.40436 19.6849 8.55353 19.7745 9.04231C19.8308 9.55267 19.3954 9.43163 19.7804 9.84871C20.5022 9.74193 20.4668 10.8062 20.9764 10.1324L21.0523 10.2723C21.2199 9.99596 21.7421 10.1239 21.805 9.78742L21.8814 9.92811C21.9297 9.83483 22.1378 9.81748 22.1833 9.65173C22.303 9.77508 22.5703 9.73962 22.6354 9.50564C22.5782 9.78202 23.0353 9.47712 22.9769 9.62167C22.7951 10.1787 23.8131 9.72459 23.7459 10.1131H23.1454V10.1833H23.0862V10.1058C22.9973 10.09 23.0265 10.4184 22.9527 10.376C22.9031 10.3475 22.8384 10.3595 22.8197 10.4107C22.6975 10.7519 22.4994 10.5005 22.0557 10.59C21.9994 10.3999 21.4535 10.6447 21.1491 10.5934V10.7334C21.0194 10.6123 20.639 11.0452 21.0077 11.0194V11.1346C20.7683 11.3474 21.0861 11.6712 21.3129 11.4469C21.295 11.6215 21.2462 12.5266 21.074 12.5111C20.124 11.4746 20.0101 11.931 19.7328 13.0011L19.7345 13.0007C19.6928 13.2443 19.8233 13.4933 19.81 13.7589C20.006 13.718 19.9714 13.8965 20.2162 13.9593C19.9872 14.1008 19.7666 13.6806 19.6686 13.9354H19.7403C19.7111 14.0765 19.3854 14.2596 19.4588 13.9196C19.2849 13.9875 19.2353 14.1155 19.0818 14.2353C19.3767 14.2912 18.9913 14.3984 19.0727 14.6146H18.8575V14.5449C18.1168 14.8317 18.8971 13.7427 17.5726 14.4073L17.4967 14.3317C17.4884 14.45 17.1118 14.514 17.0417 14.6844C16.4725 14.4982 16.4745 15.4195 16.3111 14.8953H16.0838V14.6146C15.4712 14.2681 15.4182 14.6759 15.0967 14.536V14.6146C14.9745 14.6089 14.8152 14.6435 14.673 14.556H14.7347V14.4909H14.806V14.3348C14.7455 14.3471 14.6542 14.292 14.5783 14.4053C14.5474 14.3298 14.5082 14.24 14.3556 14.27V14.1999C14.2768 14.208 14.0908 14.218 14.2872 14.0657C14.3185 14.0619 13.9594 13.8876 14.2372 13.8749C14.2096 13.8495 14.1663 13.8071 14.0758 13.7292C14.1033 13.7123 14.1271 13.656 14.2372 13.6702C14.2493 13.6753 14.0612 13.5137 14.2288 13.5342C14.3047 13.4012 14.7268 12.9617 14.7426 12.9089C14.7872 13.158 15.0821 12.6387 14.6788 12.6931V12.6229C14.555 12.6711 14.5866 12.4637 14.7639 12.4946C14.743 12.4637 14.6563 12.4495 14.6788 12.3435H14.5208C14.5858 12.5065 14.0674 12.3408 14.2935 12.6152C14.2655 12.5986 14.2326 12.5081 14.1533 12.6152C14.1917 12.2193 13.9165 12.8473 13.7801 12.483C13.5057 12.4772 13.715 13.0974 13.5378 13.2489C13.8589 13.4262 13.8485 14.0796 13.5962 14.2812H13.6663C13.6504 14.3722 13.6646 14.4435 13.8135 14.487C13.796 14.5121 13.7013 14.5402 13.8105 14.6146H13.5203C13.5215 14.7943 13.5462 14.829 13.4444 15.0086C13.4169 14.9781 13.3606 14.8652 13.381 14.7546H13.2934C13.3235 14.8571 13.1762 14.8505 13.3093 14.6883C13.225 14.6038 12.911 14.6096 12.7671 14.6146C12.6662 14.7376 12.8585 14.9161 12.6224 14.9697C12.647 14.6339 12.6324 14.6177 12.2492 14.8317V14.6859C12.1641 14.8371 11.745 14.7145 11.7817 15.007C11.906 15.5814 11.2558 15.5648 11.5798 15.2449H11.5056C11.6449 15.1851 11.7321 14.9288 11.4247 14.9697V14.9103C11.3413 14.9377 11.4022 15.3459 11.1812 15.3852C11.2074 15.4735 11.1132 15.5533 10.9581 15.5251V15.6762C11.0456 15.6643 11.0903 15.704 10.9005 15.7957V15.6647H10.8071C10.8329 15.8412 10.7158 15.9272 10.9485 16.0058C10.9259 15.9992 10.7896 16.0324 10.8171 16.1399C10.5815 16.1681 10.4355 16.0968 10.3788 15.9302C10.3375 15.9326 10.2929 15.9121 10.2212 16.0027L10.1394 15.9218C10.1603 15.9784 10.1161 16.0378 10.0001 16.0694C9.00218 15.8871 9.90046 16.8234 8.48756 16.813V16.8981C8.56679 16.8947 8.68481 16.9217 8.7774 17.0227H8.71025V17.0928C8.63686 17.018 8.40624 17.0157 8.27237 17.0227V16.9525C8.12599 16.9756 7.98629 16.8985 7.81113 16.8091V16.8835L7.67518 16.8172C7.84491 16.722 7.57718 16.7386 7.7565 16.5424C6.86155 16.2706 7.87035 17.5596 7.08216 17.2327L7.15347 17.1572C7.03629 17.1341 6.88741 17.2208 6.7598 17.0901V17.1572H6.62593V16.9525C6.53543 16.9359 6.39698 17.0184 6.54294 16.8222C6.36445 16.8469 6.32608 16.8939 6.10005 16.9525C6.11673 16.8207 5.95284 16.9413 5.79145 16.8103C5.76935 16.8777 5.60629 16.9028 5.48618 16.887V16.9637H5.70346V17.0967H5.63756C5.64841 17.1965 5.54123 17.1163 5.40278 17.2439C5.51704 17.131 5.65425 17.5716 5.64966 17.3823L5.79729 17.4521C5.79228 17.2582 5.89362 17.5608 6.08754 17.5843V17.6544H6.15802V17.794H6.45286L6.37154 17.8641C6.49081 17.8387 6.57255 17.9285 6.4587 18.0696C6.49039 18.0623 6.64636 18.0808 6.61384 18.2095C6.608 18.2735 6.56588 19.0556 6.98666 18.9026C6.97874 18.9454 7.0267 19.0352 6.90242 19.1046H6.97874C6.88199 19.2006 6.91493 19.3466 6.83528 19.5201H6.91118C6.89492 19.6319 7.03045 19.8138 6.98666 19.9823C6.90784 19.8551 6.84237 19.6951 6.77189 19.5016C6.50332 19.7017 6.83069 20.2201 6.46204 20.1951C6.23642 21.0527 5.5821 21.1449 4.91777 20.606C4.16211 20.4225 2.59574 19.9403 2.71042 19.6365C2.62118 19.662 2.51483 19.7815 2.39514 19.6323V19.7055H2.16327C2.25752 19.7533 2.23125 19.8165 2.10823 19.9075C2.1345 19.756 1.91389 19.825 1.80212 19.7013L1.72664 19.8416C1.6766 19.756 1.40177 19.8416 1.57067 20.0686L1.64699 20.0035C1.65366 20.0301 1.6203 20.1542 1.49477 20.1253V20.197H1.58277C1.6178 20.0509 1.83173 20.1588 1.56191 20.4071C1.83257 20.4637 1.35423 20.4722 1.42888 20.6815C1.20786 22.107 0.228248 22.2496 0.161523 22.8837C1.06523 22.9843 -0.58413 24.1172 0.237005 24.1954C0.344183 24.096 0.592317 24.4734 0.757461 24.3442V24.4051C0.997254 24.2317 1.72414 24.6461 1.48602 24.8951H1.6424C1.62655 24.9406 1.55691 24.9968 1.57067 25.0936H1.4097C1.49352 25.2948 1.6424 25.3588 1.80212 25.5893C2.46229 24.8565 3.87227 25.7901 4.33851 25.5754C4.89984 24.8816 4.52618 25.7408 6.08671 24.6137C5.5454 24.0609 6.47079 23.5533 6.98291 23.2927H6.91326V23.2387C7.6831 22.827 8.78031 23.3736 8.72485 22.2064C8.5597 21.7955 9.35665 21.6059 9.76076 21.7967V21.9443C9.82289 21.8884 9.92382 21.8214 10.0639 21.7967V21.9362H10.2107V22.0804L10.2925 22.0048C10.9597 22.7025 10.84 21.9659 11.1978 22.0723V22.0025H11.3371V22.08C11.6024 21.954 12.2934 21.2709 12.5265 21.6456C12.5674 21.5161 12.7313 21.6602 12.8297 21.718C12.8222 21.6356 12.8451 21.5531 13.0365 21.5735C12.9928 21.6074 12.906 21.6891 13.042 21.7774C13.0599 22.8166 14.9983 24.4394 15.0775 24.1978C15.5112 24.5863 17.2394 25.8884 16.3444 26.0499C16.0454 26.9832 16.6339 26.6378 16.9641 26.0561C17.5522 25.9563 17.2164 25.4455 16.9958 25.3796C16.8411 25.2859 16.9479 25.2139 17.1201 24.9487H17.0421C17.2131 24.6815 17.4329 25.023 17.7736 24.9598C17.7786 25.8102 19.2553 24.8712 16.5117 24.0486C17.3737 23.3767 15.4833 24.3982 15.2347 22.2565C14.5858 22.0962 14.3093 21.9073 14.7093 21.2863C14.6625 21.2956 14.5354 21.2798 14.5575 21.1518H14.4895C14.5112 21.1375 14.5291 21.0724 14.6288 21.0878V20.9521C14.9111 21.0801 15.2014 20.626 15.3865 20.9594C15.3636 20.6981 15.4211 20.9062 15.5971 20.7602C15.6146 20.9147 15.6138 20.9791 15.3715 21.0913C15.5166 21.2034 15.3994 21.4216 15.6046 21.5866C15.9295 20.8515 16.2368 21.3287 16.1217 21.8572H16.2731V21.9324C16.3524 21.9173 16.3911 21.9601 16.4929 22.0561H16.2635C16.8365 22.7176 18.6535 23.4049 18.6027 23.719H18.7495V23.7892H18.9133V23.7838C18.9113 23.7522 19.0722 24.0004 18.9054 23.9784C18.9229 24.3211 18.8558 24.584 18.8299 24.8858H18.9054V24.9487H18.8299C18.7615 25.2108 19.1811 25.0288 19.2762 25.3588H19.2662C19.3079 25.4417 19.3658 25.6186 19.5627 25.5758C19.5827 25.661 19.5022 25.7689 19.6502 25.858C19.6323 25.8302 20.0172 25.6614 19.9472 25.9104C19.4951 25.8449 19.6185 26.3757 20.1644 26.2014V26.2693C20.35 26.1845 20.5965 26.1247 20.7825 26.3387C20.7908 26.1128 21.0406 26.413 21.2112 26.4682C20.8409 26.7912 21.016 26.2643 20.7016 26.4574V26.3949C19.0639 26.4967 20.6182 26.743 20.1619 27.1616C20.2966 27.3998 20.4209 27.8258 20.5444 27.2341C20.6728 27.4827 20.9113 28.0374 20.9877 27.3806V27.512H21.0636V27.6473H21.4597C21.4577 27.5032 21.172 27.4677 21.227 27.221C20.5348 26.6058 21.599 27.4045 21.6057 26.8012C21.0932 27.1427 21.3376 26.2357 21.8334 26.755C21.9814 25.7574 20.574 26.2658 21.0757 25.7046C20.6332 25.565 21.3763 25.3079 21.2963 25.7157C21.3705 25.7396 21.4114 25.6691 21.4639 25.5646C21.1003 25.528 20.4626 24.5162 21.064 24.6457C21.1207 24.9201 21.2883 25.1256 21.6057 25.2339C21.6441 25.077 21.3175 25.1356 21.3788 24.8935C21.4727 24.9864 21.6224 25.1368 21.8334 25.1672V25.0843C21.7087 25.1105 21.7333 24.9772 21.6136 24.8858H21.7408C21.6912 25.0797 21.8797 25.0489 22.0599 24.9325C22.092 24.9116 22.082 24.865 22.0436 24.8569C21.8739 24.8199 21.642 24.7363 21.6057 24.5401C22.2046 24.6634 21.8663 24.2352 22.1178 24.4032C22.137 24.4919 22.5415 24.4776 22.3672 24.3354C22.8184 24.2702 23.1479 24.6888 23.4586 24.488C23.4978 24.5663 23.4089 24.6121 23.3218 24.6754C23.2776 24.7073 23.3022 24.7752 23.3585 24.7748C23.6809 24.7706 23.9415 24.3257 24.3306 24.1546C24.5408 24.064 24.9019 24.2671 24.904 23.978C24.904 23.9437 24.8786 23.9137 24.8427 23.9056C24.5545 23.8412 24.1767 23.6855 24.1938 23.3474C24.1946 23.3247 24.1788 23.3042 24.1542 23.3019C24.0987 23.2962 24.0274 23.2657 24.0466 23.167C23.9899 23.1797 23.8923 23.1285 23.8239 23.2283C23.8372 23.1805 23.7622 22.9377 23.9707 22.9724C23.9694 22.9307 23.9494 22.8964 24.0491 22.827C24.0545 22.8617 23.8773 22.6092 24.0466 22.6277V22.3521C24.7614 22.4871 24.1175 21.7554 24.5299 21.5014C24.1513 21.6228 24.6163 20.8542 24.5904 21.3769C24.6354 21.3838 24.7651 21.3626 24.7485 21.237C24.9261 21.3279 24.957 20.5751 24.8369 20.9128C24.7852 20.8403 24.4924 20.4614 24.7877 20.4533V20.5312C25.1396 20.3342 25.5229 20.4179 24.9457 20.0517H25.0045V20.0605C25.6905 20.0763 24.8473 19.9499 25.894 19.6365V19.697H25.9862V19.5324C25.9862 19.492 26.0454 19.4789 26.0654 19.5155C26.1059 19.5899 26.1509 19.6778 26.1922 19.761C25.6676 20.0073 26.5838 20.1916 26.867 19.8466L26.9375 20.0571C26.9721 19.8813 27.4934 19.6169 27.606 19.842H27.6894V19.7722C27.8412 19.7926 27.7548 19.5197 27.97 19.5001V19.6365C29.1615 18.9427 28.6056 19.4226 29.2457 18.748C29.3871 18.8949 29.3771 18.6898 29.6023 18.6177C29.5447 19.004 29.9463 18.3575 30.0627 18.6235C30.0644 18.8937 29.4697 18.7947 29.83 19.0791C29.0047 19.1184 29.3733 19.2399 29.8767 19.4858C29.8367 19.4854 29.8287 19.4881 29.7545 19.5529L29.6824 19.4758C29.6336 19.5756 29.7866 19.6604 29.6878 19.7583C29.4376 19.4981 29.5522 19.7213 29.3763 19.9067C29.4184 19.9241 29.4872 19.9965 29.4609 20.1014C28.7044 20.4745 29.8854 20.441 29.835 20.6592C30.4084 20.5081 30.7846 21.124 31.3955 21.2836C31.5377 21.3661 31.9977 21.1984 31.9873 21.4837C32.24 21.4124 32.4927 21.8699 32.6433 22.0889C32.622 22.0195 32.3705 22.373 32.5899 22.3706V22.3005C32.9415 22.3834 33.5011 22.0156 33.4665 22.3706C34.4273 22.2492 33.4632 23.3143 34.5045 22.9234C34.5166 22.9442 34.5954 22.967 34.5783 23.061C36.8232 24.4132 36.4967 21.5716 37.181 22.77H37.0847C37.6435 23.204 36.3995 23.1019 37.7928 23.2622L37.706 23.1821L37.784 23.1238C37.1993 22.775 38.063 22.8502 37.631 22.3005C37.7828 22.1386 37.618 21.8907 37.7486 21.7227C37.804 21.6514 37.7728 21.5511 37.6806 21.5299C37.0776 21.39 37.2648 21.1938 36.6731 20.9286L36.6768 20.9221C35.1551 20.4229 35.9979 19.8242 35.0229 19.4102C34.8398 19.8158 34.6642 19.0336 34.9678 18.8004C34.811 18.7869 34.9178 18.0696 35.1004 18.3375C35.2122 18.2103 35.3819 18.1282 35.4758 17.9293L35.5404 17.999C35.8899 17.5346 34.9386 17.6618 35.2556 17.4563C35.3323 17.407 35.3365 17.3044 35.2618 17.2528C35.1113 17.1487 34.9182 17.0446 34.7739 16.9224C34.7084 16.8665 34.6117 16.8604 34.5341 16.9012C34.0608 17.1533 34.1421 16.365 33.773 16.6696C33.7522 16.5173 33.7701 16.2741 33.9282 16.1291C33.4969 16.1661 33.6834 15.3729 33.7017 15.1751H33.6366C33.8506 14.7634 33.924 15.1948 34.2113 15.3331C34.4657 15.2013 34.3185 14.8101 34.0737 14.6998C34.1367 14.6671 34.2351 14.6239 34.3631 14.6401C34.341 13.8846 34.3748 14.4778 34.6496 14.0599C34.9299 13.8691 34.8294 13.4968 34.9891 13.6444C35.2873 14.0141 35.354 13.1645 35.6647 13.3723C35.7097 13.4023 35.771 13.3935 35.8023 13.3511C35.9111 13.2023 36.3599 13.3642 36.6635 13.4783C36.7494 13.5103 36.839 13.4513 36.8424 13.3657C36.8557 13.0446 37.6452 13.7196 37.5617 13.1333H37.6272C37.6243 13.1024 37.6452 13.062 37.5688 12.9984H37.8583C37.6748 12.7632 37.9383 12.8265 38.229 12.8573V12.7174H38.3679C38.2615 12.138 38.9029 12.7309 39.3404 12.5223C39.2274 12.1276 40.0639 12.2201 39.9964 11.7579Z" fill="#2CCBFF"/>
</g>
<path d="M8.27605 24.4183C8.18889 24.3793 8.2431 24.303 8.12008 24.2043C8.11341 24.224 8.02291 24.2541 8.03834 24.3466H7.73975V24.4279C8.20432 24.382 7.99539 24.8832 8.43786 24.4167C8.41158 24.4167 8.36279 24.416 8.27605 24.4183Z" fill="#2CCBFF"/>
<path d="M8.87644 24.2783C8.63874 24.1102 8.69545 24.3789 9.03074 24.4278V24.2767C9.00364 24.2767 8.9611 24.276 8.87644 24.2783Z" fill="#2CCBFF"/>
<path d="M6.91652 24.6228V24.6926H6.76514V24.8471C6.80767 24.8379 6.89275 24.7577 6.99909 24.7739C6.9945 24.7238 6.98408 24.7003 7.08959 24.6228H6.91652Z" fill="#2CCBFF"/>
<path d="M4.43724 3.54443C4.51439 3.6061 4.61448 3.7946 4.81007 3.75605C4.76586 3.94994 4.88096 4.26757 5.18331 4.24174C5.15078 4.4391 5.27423 4.36702 5.42269 4.52352C5.42519 4.4815 5.39725 4.44874 5.48608 4.38437V4.44643C5.6287 4.42098 6.12789 4.31113 6.23465 4.52005C6.34766 4.43602 6.86895 4.29763 6.83517 4.52429C6.90982 4.41212 7.16296 4.45915 7.21217 4.24521C7.50451 4.49461 7.79893 4.02087 7.67049 3.60919C7.4699 3.6963 7.49158 3.39795 7.67049 3.55368C7.48366 3.14971 7.72512 3.35478 7.74764 3.11656C7.5262 3.27499 7.51118 3.1501 7.58833 2.85444V2.91535L7.43695 2.84558C7.48866 2.95659 7.13544 3.21524 7.14586 2.91535C7.04202 2.94194 6.94861 3.05681 6.77387 3.05874C6.7918 2.94541 6.919 2.87179 6.75969 2.7708C6.50447 3.61497 6.68629 2.42619 6.46777 2.71066L6.38061 2.63126C6.0424 3.3224 6.26551 2.08196 5.94148 2.75807C5.83555 2.78776 5.74756 2.60235 5.57407 2.90532V2.84905C5.39933 2.9246 5.64497 2.56573 5.57407 2.44469C5.63996 2.46319 5.75923 2.43659 5.80094 2.2932C5.58908 2.39651 6.05032 1.75817 5.47774 1.81291C5.51277 1.83642 5.59367 1.92392 5.63371 2.02299H5.56198C5.62578 2.21534 5.42269 2.44662 5.42269 2.08582L5.3422 2.15173V1.88846H5.33011C5.35388 1.92778 5.28924 2.00526 5.18331 1.87574V2.08929C5.06154 2.03763 4.9456 1.95746 5.17914 2.16291C4.99523 2.24309 5.02484 2.26275 4.88013 2.01566V2.15867H4.82216V2.08543C4.48103 2.23615 6.13998 2.7203 5.0215 2.57305C5.07488 2.60851 5.1487 2.68985 5.25629 2.78467C5.1829 3.02636 4.47728 2.28896 4.43557 2.72415C4.52941 2.75037 4.8305 2.63704 4.81007 2.86022C4.97355 2.8502 4.81424 3.02752 4.81007 3.21447L4.88055 3.14393C4.89973 3.25379 4.47644 3.48006 4.35842 3.33088C4.32673 3.38446 4.20954 3.56525 4.43724 3.54443Z" fill="#2CCBFF"/>
<path d="M4.44047 13.1951C4.49593 13.3014 4.60978 13.1989 4.72489 13.3226C4.58059 13.3643 4.50928 13.2579 4.31786 13.2475L4.44047 13.1951ZM3.91167 13.53C3.52717 13.8935 4.10142 13.5111 3.91001 13.8843H4.04137C3.85204 13.9564 3.93586 13.9571 4.10309 13.954C3.9588 13.9756 3.86747 14.0782 4.13687 13.9575V14.0936C4.2991 13.9039 4.47925 14.2158 4.66358 14.0227C4.73031 14.094 4.8329 14.1148 5.0314 13.9625V14.02C6.89887 13.9502 5.80833 13.3685 6.89637 12.5151V12.6477H6.97894C6.98103 12.3035 6.81463 12.5771 6.77751 12.4149C7.0123 12.3301 6.85008 12.2063 6.82714 11.9423H6.6057C6.62238 11.7792 6.66158 11.844 6.3805 11.6536V11.7364C5.90091 11.6358 5.83294 11.7777 5.40506 11.94C5.45261 11.9747 5.55186 12.0965 5.69573 12.0934C5.58772 12.0753 5.3692 12.3991 5.31207 12.332C5.1661 12.1292 4.55849 11.7908 4.73823 12.3104C4.7057 12.4033 4.25739 12.6843 4.58726 12.7784V12.9221C5.20989 12.6673 4.52346 13.192 4.19234 13.1827L4.27366 13.2475H4.20276C4.17357 13.3835 3.44668 13.3724 4.12811 13.5285C4.07432 13.5289 4.01134 13.5273 3.91167 13.53Z" fill="#2CCBFF"/>
<path d="M12.596 22.795C12.0367 22.6146 11.837 23.448 12.3249 23.7791C12.3482 23.5008 12.7365 23.1512 12.596 22.795Z" fill="#2CCBFF"/>
<path d="M12.4744 24.1057L12.4139 24.0505H12.4839C12.4689 23.9958 12.2984 23.9534 12.3251 23.8208C12.2921 23.8405 12.2763 23.9203 12.1616 23.8994V23.9638C12.0381 23.9283 11.707 24.165 11.5644 24.0313C11.5214 24.1153 11.3913 24.754 11.7783 24.6665C11.6028 24.7101 11.7224 25.0158 11.4797 24.9999C11.6078 25.1233 11.4122 25.5643 11.8751 25.4968C11.8488 25.4028 11.9089 25.2154 12.0961 25.3607C12.4764 25.5674 12.2863 24.5767 12.5523 24.3847H12.4802C12.4981 24.3323 12.5961 24.2236 12.4744 24.1057Z" fill="#2CCBFF"/>
<path d="M15.846 26.383C14.5828 26.7257 14.7784 26.1213 14.3501 26.378C14.202 26.0153 13.931 26.6652 14.137 26.6794C14.9652 26.9735 15.0436 27.2804 15.7809 27.5016C15.6892 27.386 16.0925 27.1894 15.8656 27.1416L15.9415 27.0768C15.66 27.0175 16.1508 26.5646 16.1538 26.3078C16.09 26.3425 15.9819 26.4023 15.846 26.383Z" fill="#2CCBFF"/>
<path d="M7.0625 13.4768V13.6229C7.17468 13.6429 7.48746 13.5196 7.0625 13.4768Z" fill="#2CCBFF"/>
<path d="M7.9332 15.9044H8.09084V15.8235H7.84229L7.9332 15.9044Z" fill="#2CCBFF"/>
<path d="M9.40405 9.53589C9.36943 9.55516 9.349 9.63033 9.22681 9.61337L9.40405 9.76794V9.53589Z" fill="#2CCBFF"/>
<path d="M10.3619 9.13468C10.356 9.67934 10.6863 8.18797 10.4378 8.98897H10.2864C10.2885 9.02636 10.2668 9.06799 10.3619 9.13468Z" fill="#2CCBFF"/>
<path d="M7.5883 9.80682C7.56495 9.7837 7.50907 9.77175 7.5245 9.67114C7.43525 9.75209 7.341 9.92979 7.35518 10.1167C7.37228 10.0508 7.58914 9.74554 7.5883 10.0497C7.68089 10.02 7.63042 9.80644 7.82309 9.82533C7.78973 9.74592 7.90692 9.73705 7.89357 9.60522C7.86313 9.68232 7.71216 9.68849 7.5883 9.67923V9.80682Z" fill="#2CCBFF"/>
<path d="M7.52461 12.936C7.60343 12.7144 7.15804 12.8323 7.35988 13.0039C7.36864 13.0004 7.44913 12.9673 7.52461 12.936Z" fill="#2CCBFF"/>
<path d="M7.43115 10.3159V10.4686L7.57586 10.3969C7.44908 10.7819 7.73058 10.5742 7.74768 10.2354C7.72266 10.2581 7.68346 10.3047 7.59505 10.3718V10.2404L7.43115 10.3159Z" fill="#2CCBFF"/>
<path d="M7.5684 14.7646H7.53045V14.7615H7.5684V14.7646ZM7.86115 10.4316L7.86282 10.4959H7.7961V10.5071C8.06717 10.5222 7.69559 10.8109 7.48249 11.0502C7.49291 11.0568 7.48457 11.0522 7.44329 10.999C7.25479 11.0032 7.55046 11.0105 7.34779 11.1551H7.43119V11.2152H7.44329V11.1551H7.52461V11.0892L7.64638 11.2013C7.69351 11.093 7.74522 11.0248 7.92788 10.9917C7.86324 11.0441 7.82362 11.0923 7.7006 11.1975H7.78984V11.2561C7.6101 11.2141 7.45038 11.3979 7.48708 11.6153C7.76774 11.2815 7.83697 11.443 7.63846 11.6778C7.66974 11.6786 7.91704 11.6628 7.93705 11.8061H7.86115C7.86699 11.8913 7.72979 12.0725 7.56298 12.0821C7.57298 12.1284 7.55088 12.2383 7.41118 12.2167V12.2918H7.33528V12.5779H7.42327C7.39658 12.2861 7.51085 12.4807 7.65055 12.6557C7.59842 12.5644 7.7594 12.2945 7.78984 12.5813L7.93705 12.5116V12.5779H8.02505C7.99919 12.3647 8.19811 12.7093 8.31155 12.5158C8.31196 12.5432 8.27735 12.6368 8.16434 12.6137V12.6708C8.01629 12.4757 7.74981 13.0955 8.0851 13.1056C7.81403 13.3353 8.15766 13.0177 8.24024 13.2987H8.09427V13.3688H8.01837C8.06884 13.6186 7.88034 13.4101 7.86574 13.656H7.94164V13.7917H8.01045C8.01879 13.7855 7.84406 13.9297 7.87825 13.772C7.85073 13.8221 7.73438 13.8873 7.75231 13.7239H7.60635V13.6568C7.48708 13.7023 6.49829 13.9112 7.15512 13.9474C7.30233 13.7215 7.32652 14.092 7.14094 14.1394C7.30859 14.2874 7.05878 14.2338 6.92283 14.4165L6.84693 14.3414C6.65552 14.5526 6.47494 14.1648 6.30646 14.5653H6.54208V14.6197H6.4666C6.43699 14.8591 6.9612 14.4323 6.84068 14.8406H7.06045C6.87279 15.1181 7.51585 15.0048 7.70643 14.9662C7.53754 15.1231 7.0421 15.4161 6.82733 15.0961H6.5842C6.70055 15.1593 6.66511 15.2634 6.44074 15.1609C6.50205 15.3586 5.79017 15.5463 5.62378 15.5876H5.76474V15.7275H5.92863V15.6577H5.99202V15.7356C6.26934 15.4095 6.45325 15.79 6.75018 15.7957C6.78521 15.5344 7.29441 15.4245 7.41701 15.7973C7.60426 15.7094 7.70477 15.753 7.95373 15.7973C7.97208 15.5055 8.1047 15.8424 8.31572 15.7973C8.40038 16.0582 10.0189 15.9087 9.4342 15.6635C9.34162 15.7414 9.00132 15.5124 9.13602 15.4473C9.20983 15.5444 9.50509 15.4107 9.31242 15.3667C9.33911 15.3035 9.50009 15.3155 9.60685 15.317V15.2422C10.1778 15.0753 10.1882 14.4755 9.23277 14.4983C9.47173 14.1101 9.63479 14.2196 9.15687 13.7917C9.17564 13.7948 9.20358 13.789 9.23486 13.7894C9.31201 13.7898 9.37164 13.7258 9.3633 13.6556C9.30075 13.1291 9.07221 12.7941 8.99923 12.1215L8.99256 12.1338C9.01716 11.9102 7.96082 11.7133 8.51798 11.8131C8.65393 11.837 8.66853 11.7487 8.85619 11.6666C8.47711 11.5945 8.66394 11.5294 9.07555 11.5417C9.01591 11.4122 9.48799 11.3814 9.22526 11.1917C9.2482 11.1794 9.27322 11.1123 9.37414 11.1273C9.83455 10.7515 8.93668 10.6274 8.47961 10.7704V10.642H8.54467V10.6309C8.43541 10.6451 8.47961 10.5314 8.69688 10.5071C8.60847 10.3564 9.74864 10.1255 9.07555 10.0103V9.94125C9.01758 9.98828 8.74484 10.0638 8.77237 9.86185L8.69105 9.94164L8.63767 9.88189C8.74318 9.89538 8.58846 9.78784 8.46752 9.8048C8.48211 9.85607 8.43999 9.93008 8.38286 10.0214H8.45876C8.43833 10.1644 8.13431 9.91735 8.30362 10.0846C8.19895 10.1109 8.15808 10.1055 8.23565 10.3487C8.18852 10.3402 8.23982 10.2824 8.10053 10.2901C8.13181 10.1436 7.84531 10.2053 7.86115 10.4316Z" fill="#2CCBFF"/>
<path d="M14.0056 12.1747C13.4246 12.6792 14.5415 11.9183 14.8359 12.3292C14.9752 12.1515 14.9039 12.0613 14.9677 11.9122C14.9981 11.8424 14.9197 11.7742 14.8455 11.8054C14.5686 11.9218 14.3897 12.2387 14.0056 12.1747Z" fill="#2CCBFF"/>
<path d="M14.7599 13.7722V13.4904C14.7107 13.4931 14.6815 13.5063 14.6023 13.4137L14.5309 13.4878L14.4492 13.408V13.4904H14.3691V13.7075H14.5251V13.7722H14.7599Z" fill="#2CCBFF"/>
<path d="M14.9415 13.3481C14.8973 13.3794 14.7926 13.4688 14.9369 13.5617C14.7401 13.677 14.9719 13.8092 15.1671 13.7679V13.8311C15.0128 13.8142 15.2163 13.9256 15.3398 13.9078C15.0774 13.7783 15.6592 13.7436 15.4044 13.5617C15.8139 13.266 15.4265 13.3142 15.6384 13.1408H15.562L15.6375 13.0706C15.5362 13.0895 15.4186 13.0128 15.3106 13.1519C15.3702 13.1454 15.6021 13.2626 15.2426 13.2765C15.1671 13.5748 15.1971 13.2402 15.0912 13.2063C15.1004 13.2514 15.0812 13.3659 14.9415 13.3481Z" fill="#2CCBFF"/>
<path d="M14.7879 13.9668C14.6958 14.1399 15.3822 14.2678 14.9518 14.0366V13.9668H14.7879Z" fill="#2CCBFF"/>
<path d="M15.167 14.0422C15.165 14.0904 15.1574 14.1124 15.2546 14.1918V14.1124H15.3305V14.0365C15.2792 14.0399 15.2517 14.0511 15.167 13.959V14.0422Z" fill="#2CCBFF"/>
<path d="M22.1394 26.2982C22.0785 26.1536 21.3921 25.7115 21.1448 25.8903C21.5118 25.9863 21.9063 26.2442 22.212 26.5233C22.2007 26.4554 22.2503 26.3864 22.1394 26.2982Z" fill="#2CCBFF"/>
<path d="M18.2735 3.70327V3.7819C18.2831 3.75839 18.3816 3.73256 18.362 3.63851C18.633 3.74837 18.5492 3.1771 18.4266 3.42689C18.2022 3.40915 18.3424 3.4319 18.1956 3.63311L18.2735 3.70327Z" fill="#2CCBFF"/>
</svg>
