<svg width="40" height="28" viewBox="0 0 40 28" fill="none" xmlns="http://www.w3.org/2000/svg">
<path d="M39.9272 3.14383C39.8499 2.77427 39.5391 2.51004 39.3761 2.18549C39.2032 1.84069 39.1585 1.43782 38.9379 1.11777C38.7298 0.815281 38.3367 0.570407 38.0167 0.837337C37.7276 1.07816 37.7 1.53775 37.5985 1.8857C37.4802 2.29262 37.2471 2.64103 37.0102 2.97773C36.7529 3.34234 36.4734 3.71055 36.0903 3.92661C35.3859 4.32453 34.5228 4.52079 34.2362 5.44402C34.1238 5.80593 34.1685 6.26011 33.904 6.5509C33.6158 6.8687 33.1729 6.80838 32.8107 6.93667C32.4614 7.05955 32.4117 7.3931 32.25 7.70505C32.0403 8.10927 31.6748 8.34874 31.3648 8.65303C31.0882 8.92491 30.8262 9.42231 30.4448 9.52989C30.0655 9.63702 29.7404 9.26206 29.7045 8.87855C29.6623 8.42436 29.9522 8.02014 29.9272 7.5628C29.9109 7.26977 29.6857 6.63282 29.3101 6.78002C29.1697 6.83584 29.0845 7.01994 29.0164 7.15093C28.7666 6.80478 28.8489 6.5356 28.9905 6.15793C29.1388 5.76001 29.0185 5.40711 28.592 5.31888C28.1955 5.23696 28.1374 5.61327 27.8821 5.82438C27.6139 6.0463 27.3307 6.00444 27.2078 6.401C27.1055 6.7296 26.9756 7.19774 27.0361 7.54525C27.103 7.92561 27.2881 8.21685 27.2847 8.62107C27.2826 8.90015 27.3478 9.51999 27.0328 9.63027C26.6342 9.76981 26.1885 9.27827 26.2048 8.8754C26.2152 8.62062 26.2929 8.3897 26.2662 8.12997C26.2386 7.85944 26.1225 7.59611 26.1266 7.32198C26.1304 7.08521 26.2515 6.93532 26.3527 6.73906C26.4609 6.52974 26.4755 6.32313 26.4629 6.08681C26.346 6.15838 26.107 6.34429 26.0502 6.14128C26.0021 5.96753 26.2603 5.57276 26.3472 5.43231C26.6748 4.90566 27.1878 5.12082 27.6511 4.89575C27.7727 4.83724 27.8876 4.75711 28.0188 4.7238C28.1236 4.69679 28.2377 4.72965 28.3388 4.70265C28.5832 4.63648 28.4695 4.41051 28.3058 4.29842C27.8943 4.01619 27.4518 3.99548 27.0161 4.16834C26.8268 4.24396 26.5532 4.43257 26.3472 4.3799C26.2453 4.35424 26.1843 4.25251 26.0882 4.21605C25.962 4.16834 25.8363 4.21335 25.7164 4.26466C25.6357 4.07201 25.7477 3.87935 25.9031 3.74386C25.8768 3.65878 25.7256 3.62457 25.6479 3.62502C25.5029 3.62592 25.4778 3.66193 25.4298 3.79202C25.3872 3.90726 25.4022 4.01169 25.2986 4.09001C25.1557 4.19669 25.1415 4.02699 24.9974 4.06255C24.6941 4.40601 24.5466 4.46858 24.1259 4.40061C23.9061 4.36549 23.2736 4.46227 23.5026 4.07426C23.6108 3.8906 24.1869 3.39635 23.8359 3.21315C23.5869 3.08306 23.3133 3.24466 23.0564 3.07361C22.6891 2.82873 22.4573 2.66894 22.0094 2.75491C21.5394 2.84539 21.5691 2.52174 21.2787 2.22915C20.9971 1.94557 20.5961 2.33494 20.2681 2.32413C20.0759 2.31783 19.8975 2.2296 19.7091 2.2008C19.5056 2.16974 19.3143 2.2125 19.115 2.25121C18.6964 2.33314 18.2953 2.2251 17.8788 2.27372C17.4247 2.32683 17.085 2.43802 16.6418 2.24626C16.224 2.06576 15.8684 2.01894 15.4206 2.00769C14.9882 1.99598 14.5595 1.92936 14.1271 1.91766C13.269 1.89425 12.405 1.89831 11.5544 1.75696C10.6596 1.60842 9.77553 1.50444 8.87354 1.42116C7.93437 1.33429 6.97765 1.26902 6.046 1.11732C5.62739 1.04935 5.21086 0.920162 4.80227 0.802677C4.62304 0.751362 4.45133 0.672588 4.28255 0.590663C4.19816 0.549701 4.11377 0.508289 4.02937 0.466876C3.94498 0.425464 3.8585 0.390803 3.77244 0.354343C3.72523 0.334536 3.67635 0.323733 3.62831 0.307528C3.59739 0.297175 3.56104 0.264316 3.57525 0.223353C3.58193 0.204448 3.61535 0.164836 3.60366 0.143229C3.58653 0.11262 3.55102 0.129725 3.52804 0.141429C3.49712 0.158084 3.46871 0.169787 3.43445 0.17744C3.41565 0.181491 3.40939 0.170687 3.39351 0.156283C3.37012 0.134677 3.35341 0.130625 3.32124 0.131976C3.29659 0.132876 3.2686 0.130175 3.24436 0.135577C3.21888 0.141429 3.19423 0.18059 3.1842 0.203547C3.16791 0.238208 3.15956 0.27782 3.15454 0.316081C3.14535 0.388553 3.16039 0.458324 3.17919 0.527644C3.19172 0.572658 3.20593 0.617221 3.21888 0.661785C3.30453 0.965176 3.23058 1.07501 2.95651 0.937717C2.78982 0.854893 2.69373 0.699146 2.52536 0.614971C2.40671 0.555553 2.11385 0.290874 1.97765 0.460574C1.92376 0.527645 1.95509 0.659984 1.95635 0.739208C1.9622 1.08401 1.88365 1.44367 1.84856 1.78622C1.74328 2.80803 1.52311 3.81588 1.22607 4.79177C1.14209 5.06816 1.05143 5.34139 0.954927 5.61237C0.675431 6.3956 0.358336 7.17344 0.176183 7.99178C0.00155087 8.77457 0.0495957 9.56455 0.18621 10.3487C0.225064 10.5715 0.269766 10.7925 0.314051 11.014C0.500799 11.9417 0.645769 12.8793 0.837948 13.8057C0.994198 14.5588 1.23275 15.2507 1.67685 15.8633C2.5028 17.0017 3.546 18.2161 4.81856 18.7437C5.51751 19.0331 6.18847 19.2987 6.81723 19.7484C7.52244 20.2535 8.18086 20.9147 9.00681 21.1834C9.75005 21.4243 10.4348 21.1708 11.1784 21.1182C11.9359 21.0641 12.4004 21.5435 12.8416 22.149C13.3033 22.7819 13.7616 23.4953 14.5299 23.6983C15.162 23.8653 15.8513 23.6542 16.4429 24.0076C17.1836 24.4505 17.5592 25.435 17.9954 26.1691C18.249 26.5963 18.7908 27.5357 19.3461 27.0302C19.857 26.5652 20.0049 25.6569 20.3082 25.0415C20.6453 24.3569 21.1509 23.8928 21.8461 23.6803C23.1336 23.2869 24.5127 23.5854 25.8267 23.5827C26.1446 23.5818 26.4629 23.5714 26.7813 23.5606C26.7959 23.5214 26.7963 23.485 26.7821 23.4454C26.6756 23.4481 26.4199 23.3436 26.3877 23.2221C26.3422 23.0506 26.5636 22.9192 26.5436 22.8003C26.4316 22.781 26.2298 22.8764 26.1371 22.8143C26.0422 22.7499 26.0677 22.5942 26.1379 22.5167C26.3008 22.3362 26.6037 22.5028 26.7901 22.2944C26.8866 22.1863 26.8849 22.1166 27.0295 22.0734C27.1552 22.036 27.3202 22.022 27.4506 22.0175C27.8512 22.0027 27.6753 22.2624 27.6327 22.5271C27.776 22.5879 28.0054 22.4375 28.1357 22.3911C28.3208 22.3254 28.3964 22.2543 28.5498 22.1256C28.7123 21.9887 28.7841 21.9685 28.9717 22.0324C29.11 22.0792 29.321 22.2467 29.4589 22.239C29.5315 22.4749 29.5403 22.4708 29.7041 22.6198C29.8516 22.7544 29.809 22.9025 30.0266 22.857C30.256 22.8093 30.5864 22.5595 30.5915 22.2831C30.7828 22.1814 30.9988 22.3727 31.1784 22.4744C31.3831 22.5906 31.4638 22.785 31.623 22.9511C31.7445 23.0776 32.1034 23.2325 32.1001 23.4395C32.098 23.5543 31.9551 23.6016 31.9831 23.7375C32.0027 23.8316 32.1281 23.895 32.1619 23.9761C32.2062 24.0837 32.1832 24.22 32.2195 24.3254C32.258 24.4357 32.3311 24.5063 32.3971 24.5973C32.5442 24.7985 32.5366 25.033 32.6695 25.2324C32.7585 25.3661 32.8746 25.62 32.9962 25.7149C33.1006 25.796 33.2013 25.7127 33.3087 25.7654C33.3927 25.8063 33.4741 25.9675 33.5071 26.0579C33.5393 26.1453 33.5368 26.3555 33.635 26.4041C33.7754 26.473 33.8351 26.2623 33.9767 26.3222C34.1079 26.3775 34.0361 27.0843 34.372 26.8038C34.3895 27.005 34.308 27.1383 34.1911 27.285C34.1138 27.3818 33.9015 27.56 34.0239 27.6919C34.2571 27.9427 34.847 27.4597 34.9564 27.2369C35.157 26.8277 34.9965 26.4325 34.8766 26.0345C34.7668 25.6681 34.8194 25.2698 34.7225 24.8948C34.6289 24.5333 34.4718 24.2344 34.3201 23.9004C34.2341 23.7118 34.1802 23.5025 34.082 23.3207C34.001 23.1717 33.8777 23.0731 33.7775 22.9412C33.5356 22.6198 33.4541 22.1656 33.2607 21.8069C33.0818 21.4747 33.0192 21.052 32.9736 20.6739C32.9135 20.1702 33.3024 19.8573 33.4261 19.4005C33.5498 18.9454 33.9316 18.7302 34.059 18.2891C34.1309 18.2823 34.1798 18.2269 34.189 18.1491C34.3331 18.1293 34.4225 17.7773 34.4914 17.6562C34.6084 17.4518 34.7609 17.2596 34.8821 17.0652C35.0078 16.8639 35.0571 16.6708 35.2213 16.4818C35.3241 16.362 35.4101 16.2234 35.5183 16.1127C35.8208 16.0681 35.9044 15.7165 36.1028 15.4883C36.188 15.3906 36.3201 15.3245 36.3831 15.207C36.4655 15.053 36.4249 14.8419 36.4136 14.6736C36.3907 14.3324 36.2478 13.9822 36.125 13.6689C36.0594 13.5019 35.9487 13.4713 35.8187 13.3731C35.6621 13.2548 35.6199 13.1238 35.591 12.9253C35.5647 12.7443 35.52 12.5922 35.4695 12.418C35.4189 12.2447 35.4302 12.057 35.3746 11.8872C35.3124 11.6982 35.154 11.5384 35.1941 11.3187C35.2372 11.0869 35.3734 11.1238 35.444 11.3115C35.5589 11.6163 35.6658 11.9786 35.7226 12.3032C35.7569 12.499 35.8133 13.3691 36.1112 12.8321C36.2185 12.6394 36.1517 12.4247 36.1868 12.2172C36.2211 12.0146 36.3535 11.8499 36.3894 11.6482C36.427 11.4398 36.3472 11.3552 36.2378 11.203C36.1266 11.0491 36.0915 10.8925 36.0656 10.7002C36.2169 10.599 36.2641 10.5242 36.4521 10.5094C36.5544 10.2911 36.5711 10.0043 36.5678 9.76981C36.5649 9.56725 36.6021 9.34129 36.6075 9.12657C36.6113 8.97848 36.6016 8.97893 36.7424 8.91321C36.8527 8.86144 36.9584 8.83038 37.0645 8.76826C37.263 8.65168 37.5041 8.64853 37.6712 8.46172C37.7163 8.41086 37.8065 8.29202 37.7764 8.21325C37.7246 8.07731 37.6098 8.22 37.5249 8.14033C37.2642 7.895 37.84 7.83829 37.9235 7.78382C38.0806 7.68164 38.193 7.44442 38.3747 7.38725C38.6103 7.31343 38.6663 7.65733 38.9233 7.63257C39.0315 7.62222 39.1931 7.5664 39.27 7.47458C39.3928 7.32738 39.3026 7.31118 39.2107 7.20675C39.1489 7.13608 39.072 7.03795 39.0732 6.93441C39.0741 6.85834 39.1413 6.78992 39.1413 6.7062C39.1418 6.64723 39.0929 6.58241 39.0895 6.51669C38.7319 6.59996 38.4545 6.5572 38.3931 6.11427C38.3371 5.71005 38.4269 5.19554 38.6371 4.85209C38.9838 4.28582 40.1072 4.00494 39.9272 3.14383Z" fill="#2CCBFF"/>
</svg>
