<svg width="40" height="29" viewBox="0 0 40 29" fill="none" xmlns="http://www.w3.org/2000/svg">
<path d="M15.6675 0.480895C15.4667 0.467851 15.3151 0.480895 15.2082 0.480895H15.1345C13.6636 0.547857 12.2093 0.614818 10.7016 0.905854L10.673 0.910782L10.6445 0.918608C9.65681 1.15051 8.7963 1.38995 8.44021 1.34878C8.39507 1.33574 8.36236 1.32559 8.23107 1.28443C8.05095 1.22762 7.73126 1.14007 7.342 1.14007C7.06745 1.14007 6.79289 1.16326 6.50636 1.23805C6.21937 1.30994 5.87941 1.44154 5.67027 1.70156C5.527 1.88187 5.51042 2.13406 5.53944 2.25784C5.54358 2.22682 5.55556 2.23986 5.25659 2.37118C4.92492 2.51785 4.27308 2.71613 4.02341 3.26718V3.27762L4.01512 3.28777C3.82671 3.76693 3.92483 4.07594 3.91699 4.12754C3.85941 4.24349 3.54801 4.35915 2.92105 4.59627L2.88005 4.61163C1.83159 5.05195 0.930077 5.61344 0.319703 6.38335C0.21283 6.51467 5.6177e-06 6.72077 5.6177e-06 7.07355C5.6177e-06 7.53445 0.389263 7.7536 0.622818 7.91071C0.856372 8.06753 1.06137 8.20667 1.01622 8.16551L1.04064 8.1887L1.0692 8.20928C1.13922 8.26349 1.16363 8.46437 0.999637 8.77599C0.86881 9.01804 0.503967 9.31661 0.21283 9.75693C-0.00414034 10.0404 5.6177e-06 10.3057 5.6177e-06 10.37V10.6431L0.667962 11.0628L0.720938 11.0886C1.63489 11.5365 2.41709 11.9693 3.08919 12.4508L3.06477 12.4302C3.60144 12.8525 4.1464 13.007 4.59693 13.1772C5.1746 13.396 5.94482 13.723 7.0223 13.5865C7.48112 13.53 7.79667 13.4192 8.03437 13.3549C8.27207 13.2879 8.40704 13.2723 8.39092 13.2723C8.31722 13.2723 8.4439 13.2775 8.62448 13.3111C8.78432 13.3392 9.02571 13.3781 9.32514 13.3882C10.4763 13.4914 11.2751 13.1128 11.6151 13.0276C11.5824 13.0328 11.7422 13.0122 11.9104 13.038C12.0744 13.0638 12.242 13.1282 12.2628 13.1436L12.3406 13.1899L12.4226 13.2259C12.3567 13.1978 12.3936 13.2079 12.5005 13.3059C12.6027 13.4013 12.7829 13.5813 13.1311 13.7361C13.6517 13.9755 14.1966 13.9909 14.7043 13.9393C14.725 13.9598 14.7333 13.9575 14.7494 13.9781C14.8563 14.1094 14.8931 14.2819 14.8931 14.1944C14.8931 14.2175 14.8765 14.2691 14.8314 14.4005C14.7863 14.5112 14.725 14.7069 14.7987 14.9411C14.9093 15.6701 15.1225 16.2983 15.954 16.9731C16.5893 17.483 16.868 17.89 16.88 18.5158C16.839 18.7579 16.6547 19.0437 16.4087 19.4043C16.1549 19.7751 15.8352 20.2258 15.8352 20.787C15.8352 21.4697 16.4128 21.9665 16.868 22.3555C17.3227 22.7443 17.6829 23.0689 17.7571 23.2541C17.81 23.3907 17.8142 23.7179 17.9616 24.0988C18.2117 24.7916 18.6908 25.3891 19.2482 25.948L19.2565 25.9558L19.2643 25.9659C19.6006 26.2828 19.6987 26.3112 19.7195 26.3265V26.5866C19.7195 27.2692 20.416 27.7638 21.3212 27.9928L21.3502 27.998L21.3788 28.0058C22.1407 28.1652 22.6691 28.0212 23.0873 27.9542C23.718 27.913 24.5209 27.8382 25.3404 27.6684C26.2092 27.4907 27.1103 27.2408 27.7128 26.7025L27.7741 26.646L27.8151 26.5842C28.0979 26.172 28.4748 25.7755 28.8516 25.5387C29.0073 25.4407 29.2206 25.3172 29.4214 25.1111C29.5361 24.9925 29.5154 24.789 29.5522 24.6087H29.7858L29.8885 24.596C30.5192 24.5189 30.9702 24.2252 31.183 23.9443C31.3921 23.6663 31.441 23.3831 31.3304 23.0817C31.2115 22.7469 30.9292 22.5228 30.7444 22.3813C30.6053 22.2732 30.5685 22.2318 30.5233 22.188C30.544 22.1648 30.544 22.1494 30.5809 22.1262C30.7527 22.0054 31.019 21.8688 31.1586 21.8146C31.7565 21.6343 32.7151 21.4155 33.244 20.7537L33.2642 20.7279L33.2808 20.7021C33.5798 20.2307 33.5798 19.6927 33.2808 19.2214L33.3338 19.3397C33.0966 18.5877 32.699 18.0161 32.6129 17.4908L32.6087 17.4572L32.5963 17.4265C32.4982 17.1044 32.8957 16.5867 33.4158 15.9945C33.7189 15.7162 34.2229 15.4356 34.7761 15.2037L34.7969 15.1936L34.8213 15.1831C35.9112 14.6706 37.3738 13.9111 38.4798 13.0508C39.0372 12.6209 39.5085 12.1675 39.7747 11.6655C40.041 11.1631 40.0737 10.5683 39.6232 10.0506L39.0004 9.3398L38.021 9.86796C37.5622 10.1149 36.423 10.3802 35.5671 10.437C35.4316 10.4292 35.2884 10.4138 35.2635 10.4216C35.2391 10.4086 35.2267 10.3932 35.2349 10.4034L35.1778 10.3315L35.0917 10.2694C34.6739 9.96303 34.3583 9.25487 33.3011 8.68323L33.2767 8.67019L33.2481 8.65743C32.74 8.41539 32.453 8.31741 32.3056 8.19392L32.2605 8.15537L32.2075 8.12435C32.0352 8.01623 31.8302 7.72258 31.6215 7.32603L31.6132 7.3156C31.048 6.30103 31.0439 5.35835 30.2326 4.11971L30.2202 4.09652L30.2036 4.07594C30.1138 3.9626 29.9991 3.79012 29.7775 3.59185C29.5522 3.39357 29.069 3.1179 28.4218 3.1179H27.6143L27.5405 3.12312C27.0942 3.16428 26.5778 3.08456 25.9222 2.92223C25.2833 2.76773 24.5458 2.54626 23.6811 2.42249C23.4024 2.36857 23.1201 2.33755 22.7962 2.35321C22.4645 2.36857 22.0545 2.43031 21.7021 2.65178C21.3419 2.87846 21.2802 3.10254 21.2231 3.2466C21.1613 3.22341 21.0549 3.17211 20.7394 3.04079C20.0018 2.71613 19.1579 2.55641 18.3716 2.39176C17.9206 2.299 17.6668 2.21406 17.3227 2.1213C17.3309 2.10855 17.3512 2.08536 17.3554 2.07232C17.5313 1.74533 17.4291 1.49285 17.2858 1.26617C17.1384 1.03978 16.9251 0.825848 16.5234 0.65598L16.4704 0.635399L16.4087 0.614818C16.118 0.524667 15.872 0.491041 15.6675 0.480895ZM38.4923 18.2813C38.1767 18.6779 37.7589 19.1388 37.2342 19.3347C36.8164 19.4687 36.2922 19.6 36.083 19.8652C35.7675 20.1948 36.083 20.5887 35.9766 20.9183C35.9766 21.0499 35.8702 21.1812 35.7638 21.3126C35.6611 21.6421 35.7675 22.0387 35.9766 22.3683C36.083 22.5666 36.2922 22.8292 36.6077 22.8961C36.8164 22.8961 37.1278 22.8292 37.3369 22.6979C37.5498 22.5666 37.7589 22.3039 37.8612 22.1057C37.9676 21.9074 37.9676 21.7091 37.9676 21.5134C38.0745 20.9183 38.5987 20.3235 38.8078 19.7313C38.9142 19.3347 38.9142 18.9405 38.8078 18.5466C38.7014 18.4126 38.5987 18.2813 38.4923 18.2813ZM29.0524 24.6087H29.0566C29.0566 24.6113 29.0524 24.6113 29.0524 24.614C29.0239 24.6192 29.122 24.6087 29.0524 24.6087Z" fill="#2CCBFF"/>
</svg>
