<svg width="40" height="29" viewBox="0 0 40 29" fill="none" xmlns="http://www.w3.org/2000/svg">
<path d="M15.4979 1.59168C15.8965 1.55544 16.5067 1.51036 16.8279 1.71638C17.1245 1.90585 16.8522 2.07164 16.5432 2.11872C16.3609 2.14555 15.8051 2.12843 15.7851 2.3179C15.7711 2.43061 16.0715 2.59954 16.1072 2.73765C16.1153 2.76847 16.7995 2.50766 16.859 2.49567C17.2882 2.40008 17.4921 2.68942 17.7751 2.84779C18.087 3.02043 18.506 2.99589 18.88 3.06323C19.9496 3.25613 20.7442 3.52864 21.1037 4.26798C21.187 4.44119 21.5031 4.79416 21.3051 4.97479C21.119 5.14201 20.3766 5.00561 20.5423 5.34375C21.1691 5.23417 22.1724 5.27384 22.7202 5.46759C23.0163 5.57117 23.1851 5.74409 23.4621 5.86337C23.7863 6.00062 24.1565 5.94498 24.5062 5.88819C25.1984 5.77377 25.0875 5.24958 25.6382 5.02387C26.2578 4.76848 27.0762 5.2941 27.4468 5.596C27.8403 5.91416 28.1195 6.5191 28.7603 6.55477C29.1376 6.5756 29.5498 6.52395 29.9055 6.5796C30.2161 6.62811 30.5034 6.79732 30.8353 6.77107C30.4422 6.42808 29.8868 6.40211 29.4113 6.18182C29.0845 6.03144 29.0297 5.83569 28.9001 5.60399C28.793 5.41508 28.6727 5.3018 28.4394 5.15028C28.241 5.0193 27.8607 4.81728 28.06 4.59157C28.2159 4.41693 28.7603 4.46972 28.371 4.21262C28.1764 4.08364 27.7311 4.10533 27.4931 4.03941C27.1982 3.95609 27.1247 3.78859 26.964 3.63308C26.2956 2.98961 24.5933 2.4192 23.4655 2.22916C23.1081 2.16895 22.7495 2.08163 22.3845 2.04168C22.0394 2.00344 21.6591 2.06565 21.3238 1.98062C21.0255 1.90585 20.9269 1.72009 20.7166 1.57685C20.7166 1.57685 20.3218 1.37567 20.3354 1.37881C20.0341 1.31632 20.1034 1.38338 19.9683 1.50579C19.9249 1.5446 19.9198 1.63563 19.8616 1.68813C19.7944 1.74977 19.7116 1.69698 19.6466 1.73464C19.3406 1.91841 19.1324 2.17066 18.7869 2.3316C18.5192 2.45515 18.2137 2.57757 17.8894 2.52164C17.5231 2.45829 17.5376 2.29935 17.4802 2.07621C17.4114 1.81397 17.3451 1.55088 17.224 1.29606C17.1114 1.05837 17.0319 0.777866 16.6146 0.725933C16.3303 0.690549 14.6212 0.690549 14.8868 1.04181C15.0691 1.28294 15.6577 1.21417 15.4979 1.59168Z" fill="#2CCBFF"/>
<path d="M32.9677 16.7205C32.9524 16.4688 32.9069 16.1914 32.6919 15.9788C32.4717 15.7628 32.1981 15.5374 31.927 15.3545C31.7077 15.2038 31.3771 15.1 31.1765 14.9419C31.0971 14.8785 31.0686 14.8063 31.007 14.7359C30.9713 14.6965 30.8791 14.6542 30.8612 14.608C30.843 14.5661 30.9131 14.5133 30.8888 14.4816C30.7971 14.366 30.5081 14.3809 30.2948 14.3292C30.2442 14.1985 30.3806 14.1632 30.4767 14.0753C30.6156 13.9469 30.6245 13.976 30.4482 13.8633C30.2098 13.7117 29.8622 13.6413 29.6238 13.49C29.4105 13.355 29.3977 13.1681 29.2108 13.0218C29.0234 12.8757 28.8313 12.8871 28.6796 12.7047C28.5376 12.5327 28.4068 12.5213 28.1144 12.4502C27.9011 12.3974 27.616 12.3001 27.4443 12.1999C27.2509 12.0875 27.2186 11.8789 27.1999 11.7083C27.18 11.5317 27.2607 11.3767 27.2335 11.2009C27.2008 10.9958 27.0593 10.8965 26.9093 10.7358C26.786 10.6026 26.7818 10.4519 26.6896 10.3155C26.5927 10.1688 26.4741 10.0513 26.4104 9.8889C26.3484 9.73053 26.3148 9.58215 26.1601 9.44404C25.9663 9.26998 25.7917 9.31877 25.4963 9.29623C24.7901 9.2403 25.0761 8.86364 24.8381 8.55518C24.6911 8.3677 23.981 7.96992 23.6436 8.02814C23.6126 8.36628 23.6287 8.67331 23.5136 8.99918C23.4031 9.30879 23.4171 9.62467 23.418 9.95225C23.4201 10.2322 23.35 10.5361 23.1269 10.7718C22.9327 10.9789 22.6832 11.3248 22.3161 11.3699C22.0501 11.403 21.7632 11.3507 21.5601 11.238C21.377 11.1367 21.309 10.9895 21.1424 10.8842C20.9406 10.7561 20.6631 10.7404 20.4523 10.6123C20.2534 10.4893 20.1846 10.3937 19.8888 10.3543C19.5638 10.3101 19.5833 10.2102 19.3632 10.0938C19.2387 10.0287 19.1286 10.0747 19.0067 10.0373C18.8894 10.0013 18.8545 9.94597 18.778 9.87264C18.6616 9.76249 18.4721 9.67917 18.3692 9.57644C18.2528 9.46145 18.2571 9.21947 18.4275 9.1313C18.6102 9.03599 18.8418 9.13643 18.8392 8.92071C18.4432 8.92984 18.4691 8.54976 18.6756 8.41307C18.8966 8.26526 19.3849 8.26098 19.1541 7.92855C18.9225 7.59469 18.5855 7.85949 18.3047 7.96222C17.8317 8.13628 17.9753 7.95109 17.7833 7.73594C17.6214 7.55674 17.2627 7.61181 17.0082 7.63492C16.8747 7.64605 16.7086 7.67173 16.5824 7.62808C16.4613 7.58641 16.2802 7.5108 16.1834 7.44602C16.086 7.3841 16.041 7.35985 15.9182 7.33845C15.7822 7.31419 15.6964 7.28195 15.6237 7.1972C15.568 7.13043 15.537 7.01372 15.4448 6.96606C15.37 7.03569 15.336 7.15154 15.367 7.242C15.3985 7.33245 15.5294 7.36584 15.6352 7.42291C15.7984 7.51108 15.8273 7.76162 15.585 7.80899C15.4703 7.83096 15.404 7.80499 15.2893 7.85693C15.1907 7.89944 15.1253 7.94339 15.0046 7.95166C14.8384 7.96479 14.7891 7.86007 14.5805 7.91942C14.4487 7.95651 14.357 8.08692 14.2949 8.17224C14.2537 8.23102 14.2728 8.31691 14.2146 8.36628C14.1606 8.41022 14.034 8.40851 14.0111 8.42506C13.8271 8.57858 13.8887 8.58086 13.8237 8.77718C13.7892 8.8762 13.6826 8.95067 13.6465 9.03942C13.5258 9.32277 13.9418 9.34274 13.8215 9.60127C13.6494 9.9785 13.3439 9.67032 13.0307 9.62638C12.5943 9.56474 12.7197 9.9668 12.3007 9.70428C12.0436 9.54477 12.1817 9.26655 11.8859 9.12531C11.8141 9.09049 11.6726 9.11988 11.5995 9.08792C11.5672 9.0728 11.447 8.96408 11.4618 8.96722C11.3025 8.91871 11.1776 8.90045 10.9485 8.90901C10.8618 9.07166 10.7148 9.02401 10.5618 9.09449C10.4632 9.13929 10.4054 9.13215 10.3255 9.18865C10.2954 9.20834 10.3162 9.32419 10.2792 9.34931C10.1199 9.45945 9.91506 9.33818 9.7557 9.41094C9.5887 9.48627 9.71746 9.62381 9.60698 9.73196C9.4523 9.88377 9.30654 9.79274 9.23728 10.0147C9.19733 10.1446 9.24663 10.2673 9.18841 10.3963C9.0469 10.7056 8.86121 10.5729 8.63429 10.3671C8.59009 10.5446 8.9105 11.1236 8.3874 11.1593C7.91571 11.1915 8.10651 10.5187 7.62888 10.6485C7.26895 10.7458 7.52307 11.2554 7.48865 11.4435C7.43595 11.7305 7.01654 11.8695 6.69486 11.9885C6.47941 12.4628 6.18196 12.721 5.40984 12.81C4.75543 12.8845 4.31179 13.1547 3.70753 13.357C2.99235 13.5959 2.31202 13.7077 1.71073 14.0482C1.46257 14.1877 1.16256 14.2867 0.978135 14.4673C0.771189 14.6725 0.629684 14.7989 0.351348 14.9755C-0.142008 15.2934 -0.137759 15.8912 0.504327 16.1363C0.793711 16.2468 1.10519 16.3606 0.862126 16.644C0.709573 16.8229 0.242563 16.8406 0.124005 17.0386C0.00332178 17.2452 0.37047 17.4832 0.443985 17.6658C0.565093 17.9594 0.616936 18.0262 0.907595 18.2468C1.37121 18.5992 1.21823 19.124 1.38055 19.5474C1.48721 19.8248 1.5739 19.8818 1.85309 20.0873C2.0987 20.2694 2.17647 20.4217 1.99544 20.6443C1.88836 20.7739 1.81272 20.7022 1.7698 20.9048C1.74303 21.0275 1.80167 21.1596 1.76045 21.2792C1.67334 21.5255 1.2552 21.6022 1.35293 21.8836C1.48806 21.9255 1.78382 21.9441 1.87816 22.0066C2.00097 22.0885 1.96102 22.2286 2.06683 22.3264C2.3014 22.5453 2.75524 22.5516 3.09604 22.4948C3.83628 22.3695 4.54084 22.0183 5.27853 21.8645C5.64993 21.7883 5.97459 21.7315 6.30944 21.5654C6.58437 21.4287 6.85676 21.2721 7.16952 21.1668C7.75763 20.9696 8.35765 20.763 8.94237 20.5795C9.66009 20.3564 10.3595 20.4417 11.1193 20.563C11.7958 20.6723 12.2692 20.4009 12.8624 20.2442C13.496 20.077 14.3395 20.065 14.9939 20.182C15.2685 20.232 15.5251 20.3344 15.8077 20.3718C16.1022 20.4115 16.3979 20.4157 16.6618 20.5165C17.2304 20.731 17.2725 21.0412 17.6158 21.3417C17.7705 21.4767 17.9915 21.5406 18.136 21.6927C18.3187 21.8821 18.3195 22.0785 18.3692 22.2979C18.7058 22.3498 19.2038 21.9775 19.3432 21.794C19.5115 21.5708 19.5026 21.181 19.9674 21.1026C20.6652 20.981 20.4549 21.4801 20.2394 21.6918C19.9267 21.9971 19.7885 22.1969 19.8366 22.5844C20.1332 22.4297 20.3074 22.232 20.4982 22.022C20.8152 22.0845 21.0047 22.2525 21.0086 22.4608C21.0103 22.5499 20.87 22.6703 20.9129 22.7468C20.986 22.8814 21.0651 22.7913 21.2091 22.866C21.4224 22.9762 21.6183 23.1237 21.7768 23.2795C21.9821 23.4812 22.0254 23.4958 22.3815 23.5954C23.0716 23.79 23.6513 24.0049 24.1272 24.3969C24.3664 24.5953 24.6452 24.8937 25.0264 24.9054C25.4092 24.9188 25.5031 24.6717 25.827 24.6181C26.1325 24.5679 26.4958 24.7722 26.7185 24.8823C27.0504 25.047 27.3397 25.128 27.7677 25.0404C28.0685 24.979 28.3719 24.8081 28.6328 24.692C29.0421 24.5085 29.2014 24.6195 29.6565 24.6195C30.1766 24.6207 30.2268 24.5239 30.1686 24.2143C30.1172 23.9509 30.1278 23.7526 30.3305 23.5169C30.5285 23.2841 30.6003 23.0315 30.7796 22.8033C30.9539 22.5818 31.1893 22.4135 31.3248 22.1769C31.4816 21.9095 31.5203 21.649 31.7013 21.3808C31.8479 21.1665 32.1008 21.0078 32.247 20.8101C32.578 20.3635 32.8147 20.0108 32.7892 19.5015C32.7688 19.108 32.8002 18.7265 32.8716 18.333C32.9035 18.1543 32.8648 17.9358 32.9345 17.7623C33.0165 17.5562 33.164 17.4829 33.0939 17.2549C33.0378 17.0657 32.98 16.9171 32.9677 16.7205Z" fill="#2CCBFF"/>
<path d="M28.484 26.7207C28.3319 26.9809 28.0858 26.9541 27.7174 27.0006C27.5253 27.0254 27.1522 27.1196 26.9512 27.0368C26.6669 27.1196 27.0468 27.2939 27.165 27.3732C27.3162 27.4743 27.4369 27.6018 27.5274 27.7308C27.6269 27.8706 27.7293 28.011 27.8143 28.1437C27.9307 28.332 27.9379 28.5204 28.1908 28.2701C28.4678 27.999 28.5736 27.6666 28.8078 27.3904C28.9578 27.2123 29.1558 26.5811 28.484 26.7207Z" fill="#2CCBFF"/>
<path d="M29.5643 4.03094L29.4921 4.01553C29.5108 4.02752 29.5095 4.02466 29.5337 4.03465C29.6684 4.09172 29.8596 4.15535 30.0122 4.20129C30.186 4.25437 30.353 4.22869 30.531 4.22041C30.7218 4.21271 30.9254 4.23097 31.1039 4.209C31.2764 4.18674 31.372 4.13566 31.5199 4.07374C31.6622 4.01553 31.8369 4.00269 31.944 3.91509C32.0459 3.83205 32.0353 3.7182 32.1339 3.62974C32.2461 3.52787 32.4186 3.51617 32.4471 3.38006C32.4747 3.23596 32.3353 3.13694 32.1161 3.20514C31.8611 3.28275 31.7366 3.54071 31.485 3.65342C31.3295 3.72191 31.1791 3.72191 31.0286 3.77669C30.8761 3.83205 30.7537 3.9168 30.5858 3.95504C30.412 3.99499 30.2569 3.97473 30.0831 3.95104C29.9008 3.92764 29.838 3.85602 29.688 3.78782C29.5987 3.74702 29.311 3.66798 29.2252 3.75615C29.1287 3.85459 29.4717 3.97501 29.5643 4.03094Z" fill="#2CCBFF"/>
<path d="M34.8874 3.91781C34.8232 3.89384 34.7565 3.86788 34.7128 3.82564C34.6703 3.7837 34.6745 3.71322 34.5738 3.71265C34.5326 3.92409 34.6036 4.10814 34.7948 4.27964C34.887 4.36353 35.0697 4.37295 35.1649 4.45313C35.2333 4.51134 35.2189 4.70681 35.4182 4.6349C35.6544 4.55043 35.368 4.17777 35.2758 4.08332C35.1908 3.99657 35.0179 3.96432 34.8874 3.91781Z" fill="#2CCBFF"/>
<path d="M38.8228 5.71465C38.9299 5.33057 37.3721 5.41303 37.6623 5.08374L37.6292 5.12654C37.4932 5.18447 37.5828 5.43158 37.6844 5.51205C37.8348 5.62904 38.0677 5.60564 38.287 5.61563C38.3214 5.78256 38.6465 5.76259 38.8228 5.71465Z" fill="#2CCBFF"/>
<path d="M14.0433 7.63363C14.2698 7.62364 14.4907 7.67957 14.7062 7.63363C14.931 7.58626 14.9063 7.3888 14.738 7.30405C14.4793 7.17279 14.3067 7.37225 14.0751 7.41933C13.977 7.43987 13.8125 7.43987 13.8865 7.53832C13.9387 7.61051 13.9443 7.63363 14.0433 7.63363Z" fill="#2CCBFF"/>
<path d="M19.6526 23.0616C19.5468 23.0696 19.4435 23.0108 19.3407 23.0345C19.2684 23.0507 19.2281 23.1144 19.1643 23.1498C19.1567 23.1857 19.1809 23.2296 19.1839 23.257C19.1877 23.2896 19.1737 23.327 19.1809 23.3606C19.1987 23.4514 19.2463 23.4622 19.3849 23.4554C19.4992 23.4494 19.5714 23.4382 19.6845 23.4342C19.7945 23.4308 19.8935 23.3997 19.922 23.3187C19.9394 23.2665 19.9177 23.1426 19.8889 23.0961C19.8298 22.9957 19.7745 23.0519 19.6526 23.0616Z" fill="#2CCBFF"/>
<path d="M39.1738 6.3314C39.014 6.27347 38.7909 6.30001 38.6086 6.30001L38.6775 6.31571C38.5577 6.31942 38.5394 6.39988 38.5848 6.45867C38.6316 6.51802 38.7089 6.51545 38.7965 6.52201C38.8997 6.53115 38.9813 6.52373 39.082 6.54199C39.1764 6.55968 39.1653 6.59307 39.2741 6.57309C39.4955 6.53371 39.3259 6.38448 39.1738 6.3314Z" fill="#2CCBFF"/>
<mask id="mask0_1482_1678" style="mask-type:luminance" maskUnits="userSpaceOnUse" x="39" y="5" width="1" height="2">
<path d="M39.145 5.73291H40V6.17121H39.145V5.73291Z" fill="white"/>
</mask>
<g mask="url(#mask0_1482_1678)">
<path d="M39.8136 5.91836C39.6963 5.82477 39.4753 5.79252 39.3058 5.74658L39.3627 5.77911C39.2467 5.75143 39.1859 5.82134 39.1953 5.88783C39.2055 5.95489 39.279 5.97087 39.3572 6.00026C39.4468 6.03307 39.5284 6.04877 39.6092 6.08986C39.6869 6.13095 39.6576 6.15806 39.7719 6.16776C39.9993 6.18688 39.9215 6.00539 39.8136 5.91836Z" fill="#2CCBFF"/>
</g>
</svg>
